<?xml version="1.0" encoding="UTF-8"?>
<svg width="16px" height="13px" viewBox="0 0 16 13" version="1.1" xmlns="http://www.w3.org/2000/svg" xmlns:xlink="http://www.w3.org/1999/xlink">
    <title>Icon/Auto/16</title>
    <g id="Page-1" stroke="none" stroke-width="1" fill="none" fill-rule="evenodd">
        <g id="Icons" transform="translate(-121.000000, -115.000000)" fill="#0071C4">
            <g id="Icon/Auto/16" transform="translate(121.000000, 115.000000)">
                <path d="M12.3069995,0 C12.7238441,5.89560711e-16 13.0969648,0.258572834 13.2433287,0.648876558 L14.5,4 L15,4 C15.5522847,4 16,4.44771525 16,5 C16,5.51283584 15.6139598,5.93550716 15.1166211,5.99327227 L15,6 L15,12 C15,12.5522847 14.5522847,13 14,13 L13,13 C12.4477153,13 12,12.5522847 12,12 L12,11 L4,11 L4,12 C4,12.5522847 3.55228475,13 3,13 L2,13 C1.44771525,13 1,12.5522847 1,12 L1,6 C0.44771525,6 3.62034905e-15,5.55228475 3.55271368e-15,5 C3.4850783e-15,4.44771525 0.44771525,4 1,4 L1.5,4 L2.75667129,0.648876558 C2.90303519,0.258572834 3.27615591,2.98617708e-16 3.69300047,0 L12.3069995,0 Z M5,6 L4,6 C3.44771525,6 3,6.44771525 3,7 C3,7.55228475 3.44771525,8 4,8 L4,8 L5,8 C5.55228475,8 6,7.55228475 6,7 C6,6.44771525 5.55228475,6 5,6 L5,6 Z M12,6 L11,6 C10.4477153,6 10,6.44771525 10,7 C10,7.55228475 10.4477153,8 11,8 L11,8 L12,8 C12.5522847,8 13,7.55228475 13,7 C13,6.44771525 12.5522847,6 12,6 L12,6 Z M12,2 L4,2 L3,5 L13,5 L12,2 Z"></path>
            </g>
        </g>
    </g>
</svg>