<?xml version="1.0" encoding="UTF-8"?>
<svg width="24px" height="17px" viewBox="0 0 24 17" version="1.1" xmlns="http://www.w3.org/2000/svg" xmlns:xlink="http://www.w3.org/1999/xlink">
    <title>Icon/Auto/24</title>
    <g id="Page-1" stroke="none" stroke-width="1" fill="none" fill-rule="evenodd">
        <g id="Icons" transform="translate(-164.000000, -113.000000)" fill="#0071C4">
            <g id="Icon/Auto/24" transform="translate(164.000000, 113.000000)">
                <path d="M18.322967,0 C18.7318716,-1.30579088e-15 19.0995804,0.248950944 19.2514437,0.628609324 L21.0147235,5.03680875 L23.0127407,5.03680875 C23.557989,5.03680875 24,5.4788198 24,6.02406806 C24,6.56931633 23.557989,7.01132738 23.0127407,7.01132738 L21.804531,7.01132738 L23,10 L23,16 C23,16.5522847 22.5522847,17 22,17 L20,17 C19.4477153,17 19,16.5522847 19,16 L19,15 L5,15 L5,16 C5,16.5522847 4.55228475,17 4,17 L2,17 C1.44771525,17 1,16.5522847 1,16 L1,10 L2.18304243,7.04239393 L0.985770588,7.02535573 C0.439090157,7.017576 2.89000428e-16,6.57219276 0,6.02545697 L0,6.02406806 C4.18324007e-16,5.47774901 0.440930283,5.03384314 0.987236983,5.03016879 L2.99332951,5.01667622 L4.74855627,0.628609324 C4.90041962,0.248950944 5.26812837,-8.43177189e-16 5.67703296,0 L18.322967,0 Z M14,9 L10,9 C9.44771525,9 9,9.44771525 9,10 L9,10 L9,11 C9,11.5522847 9.44771525,12 10,12 L10,12 L14,12 C14.5522847,12 15,11.5522847 15,11 L15,11 L15,10 C15,9.44771525 14.5522847,9 14,9 L14,9 Z M20.9701425,9.75770093 C20.8361938,9.22190602 20.2932593,8.89614533 19.7574644,9.03009405 L19.7574644,9.03009405 L17.7574644,9.53009405 C17.3122974,9.6413858 17,10.0413689 17,10.5002366 L17,10.5002366 L17,10.7194601 C17,11.2717449 17.4477153,11.7194601 18,11.7194601 L18,11.7194601 L20,11.7194601 C20.5522847,11.7194601 21,11.2717449 21,10.7194601 L21,10.7194601 L21,10.0002366 C21,9.91847475 20.9899727,9.83702153 20.9701425,9.75770093 Z M4,9 C3.44771525,9 3,9.44771525 3,10 L3,10 L3,10.7192236 C3,11.2715083 3.44771525,11.7192236 4,11.7192236 L4,11.7192236 L6,11.7192236 C6.55228475,11.7192236 7,11.2715083 7,10.7192236 L7,10.7192236 L7,10.5 C7,10.0411324 6.68770263,9.64114925 6.24253563,9.5298575 L6.24253563,9.5298575 L4.24253563,9.0298575 C4.16321502,9.01002735 4.08176181,9 4,9 Z M18,2 L6,2 L5,5 L19,5 L18,2 Z"></path>
            </g>
        </g>
    </g>
</svg>