<?xml version="1.0" encoding="UTF-8"?>
<svg width="12px" height="12px" viewBox="0 0 12 12" version="1.1" xmlns="http://www.w3.org/2000/svg" xmlns:xlink="http://www.w3.org/1999/xlink">
    <title>Icon/X/16</title>
    <g id="Page-1" stroke="none" stroke-width="1" fill="none" fill-rule="evenodd">
        <g id="Icons" transform="translate(-30.000000, -1034.000000)" fill="#0071C4">
            <g id="Icon/X/16" transform="translate(30.000000, 1034.000000)">
                <path d="M0.266032458,9.58620555 C-0.125713288,9.9779513 -0.126376284,10.6124337 0.259971641,10.9987816 L1.00121842,11.7400284 C1.38961687,12.1284268 2.02733847,12.1204235 2.41379445,11.7339675 L6,8.14776199 L9.58620555,11.7339675 C9.9779513,12.1257133 10.6124337,12.1263763 10.9987816,11.7400284 L11.7400284,10.9987816 C12.1284268,10.6103831 12.1204235,9.97266153 11.7339675,9.58620555 L8.14776199,6 L11.7339675,2.41379445 C12.1257133,2.0220487 12.1263763,1.38756635 11.7400284,1.00121842 L10.9987816,0.259971641 C10.6103831,-0.128426808 9.97266153,-0.120423513 9.58620555,0.266032458 L6,3.85223801 L2.41379445,0.266032458 C2.0220487,-0.125713288 1.38756635,-0.126376284 1.00121842,0.259971641 L0.259971641,1.00121842 C-0.128426808,1.38961687 -0.120423513,2.02733847 0.266032458,2.41379445 L3.85223801,6 L0.266032458,9.58620555 Z"></path>
            </g>
        </g>
    </g>
</svg>