<?xml version="1.0" encoding="UTF-8"?>
<svg width="22px" height="22px" viewBox="0 0 22 22" version="1.1" xmlns="http://www.w3.org/2000/svg" xmlns:xlink="http://www.w3.org/1999/xlink">
    <title>Icon/X/24</title>
    <g id="Page-1" stroke="none" stroke-width="1" fill="none" fill-rule="evenodd">
        <g id="Icons" transform="translate(-74.000000, -1029.000000)" fill="#0071C4">
            <g id="Icon/X/24" transform="translate(74.000000, 1029.000000)">
                <path d="M0.327896297,17.8517665 C-0.107805584,18.2874683 -0.108451326,18.9932349 0.330564601,19.4322508 L2.56774916,21.6694354 C3.0049247,22.1066109 3.70748384,22.1128534 4.14823355,21.6721037 L11,14.8203372 L17.8517665,21.6721037 C18.2874683,22.1078056 18.9932349,22.1084513 19.4322508,21.6694354 L21.6694354,19.4322508 C22.1066109,18.9950753 22.1128534,18.2925162 21.6721037,17.8517665 L14.8203372,11 L21.6721037,4.14823355 C22.1078056,3.71253166 22.1084513,3.00676508 21.6694354,2.56774916 L19.4322508,0.330564601 C18.9950753,-0.106610944 18.2925162,-0.112853413 17.8517665,0.327896297 L11,7.17966275 L4.14823355,0.327896297 C3.71253166,-0.107805584 3.00676508,-0.108451326 2.56774916,0.330564601 L0.330564601,2.56774916 C-0.106610944,3.0049247 -0.112853413,3.70748384 0.327896297,4.14823355 L7.17966275,11 L0.327896297,17.8517665 Z"></path>
            </g>
        </g>
    </g>
</svg>