<?xml version="1.0" encoding="UTF-8"?>
<svg width="11px" height="17px" viewBox="0 0 11 17" version="1.1" xmlns="http://www.w3.org/2000/svg" xmlns:xlink="http://www.w3.org/1999/xlink">
    <title>Icon/Booster/16</title>
    <g id="Page-1" stroke="none" stroke-width="1" fill="none" fill-rule="evenodd">
        <g id="Icons" transform="translate(-301.000000, -325.000000)" fill="#0071C4" fill-rule="nonzero">
            <g id="Icon/Booster/16" transform="translate(301.000000, 325.000000)">
                <path d="M10.9127201,5.83044693 C10.8599546,5.73070455 10.7463146,5.6666888 10.6211332,5.6666888 L6.80723242,5.6666888 L10.5712342,0.434928584 C10.6339946,0.347670601 10.6378417,0.237170385 10.5812291,0.146791302 C10.5245788,0.0561133908 10.4164076,0 10.2992599,0 L5.14970178,0 C5.02772635,0 4.91634928,0.0606290247 4.86166024,0.156685853 L0.0339377123,8.65670245 C-0.015961326,8.74425927 -0.0104924216,8.84851728 0.0480814306,8.93208971 C0.106994732,9.01566214 0.210300451,9.06666224 0.321979251,9.06666224 L3.63153391,9.06666224 L0.0252251818,16.6067414 C-0.0362528473,16.7356694 0.0184739136,16.8852498 0.153951877,16.9583632 C0.206076194,16.9864199 0.264008864,17 0.321639802,17 C0.414007712,17 0.505093258,16.9651367 0.5681931,16.8994275 L10.8673471,6.13272877 C10.9480983,6.04832627 10.9654856,5.93045494 10.9127201,5.83044693 Z"></path>
            </g>
        </g>
    </g>
</svg>