<?xml version="1.0" encoding="UTF-8"?>
<svg width="12px" height="21px" viewBox="0 0 12 21" version="1.1" xmlns="http://www.w3.org/2000/svg" xmlns:xlink="http://www.w3.org/1999/xlink">
    <title>Icon/Booster/24</title>
    <g id="Page-1" stroke="none" stroke-width="1" fill="none" fill-rule="evenodd">
        <g id="Icons" transform="translate(-346.000000, -323.000000)" fill="#0071C4" fill-rule="nonzero">
            <g id="Icon/Booster/24" transform="translate(346.000000, 323.000000)">
                <path d="M11.9669516,7.2023168 C11.9090886,7.07910562 11.7844703,7.00002734 11.6471957,7.00002734 L7.46485017,7.00002734 L11.5924761,0.537264721 C11.6612995,0.429475448 11.6655183,0.292975182 11.6034366,0.181330432 C11.5413135,0.0693165416 11.4226924,0 11.2942276,0 L5.64719255,0 C5.5134336,0 5.39129686,0.0748946775 5.33132454,0.193553112 L0.0372162903,10.6935736 C-0.0175032818,10.801732 -0.0115060498,10.9305213 0.052726373,11.0337579 C0.117331038,11.1369944 0.230616682,11.1999945 0.353084296,11.1999945 L3.98236095,11.1999945 L0.0276620793,20.51421 C-0.0397550805,20.673474 0.0202585998,20.8582497 0.168824513,20.9485663 C0.225984338,20.9832246 0.289513637,21 0.352712054,21 C0.454003235,21 0.553888168,20.9569335 0.623083817,20.8757634 L11.9171952,7.57572378 C12.0057474,7.47146186 12.0248145,7.32585611 11.9669516,7.2023168 Z"></path>
            </g>
        </g>
    </g>
</svg>