<?xml version="1.0" encoding="UTF-8"?>
<svg width="13px" height="16px" viewBox="0 0 13 16" version="1.1" xmlns="http://www.w3.org/2000/svg" xmlns:xlink="http://www.w3.org/1999/xlink">
    <title>Icon/Accounts/16</title>
    <g id="Page-1" stroke="none" stroke-width="1" fill="none" fill-rule="evenodd">
        <g id="Icons" transform="translate(-30.000000, -114.000000)" fill="#0071C4" fill-rule="nonzero">
            <g id="Icon/Accounts/16" transform="translate(30.000000, 114.000000)">
                <path d="M2,14 L7,14 L7,6 L2,6 L2,14 Z M8,4 C8.55228475,4 9,4.44771525 9,5 L9,15 C9,15.5522847 8.55228475,16 8,16 L1,16 C0.44771525,16 0,15.5522847 0,15 L0,5 C0,4.44771525 0.44771525,4 1,4 L8,4 Z M12,0 C12.2761424,0 12.5261424,0.111928813 12.7071068,0.292893219 C12.8880712,0.473857625 13,0.723857625 13,1 L13,1 L13,9 C13,9.55228475 12.5522847,10 12,10 C11.4477153,10 11,9.55228475 11,9 L11,9 L11,2 L4,2 C3.44771525,2 3,1.55228475 3,1 C3,0.44771525 3.44771525,0 4,0 L4,0 Z"></path>
            </g>
        </g>
    </g>
</svg>