<?xml version="1.0" encoding="UTF-8"?>
<svg width="18px" height="24px" viewBox="0 0 18 24" version="1.1" xmlns="http://www.w3.org/2000/svg" xmlns:xlink="http://www.w3.org/1999/xlink">
    <title>Icon/Accounts/24</title>
    <g id="Page-1" stroke="none" stroke-width="1" fill="none" fill-rule="evenodd">
        <g id="Icons" transform="translate(-76.000000, -110.000000)" fill="#0071C4">
            <g id="Icon/Accounts/24" transform="translate(76.000000, 110.000000)">
                <path d="M13,4 C13.5522847,4 14,4.44771525 14,5 L14,23 C14,23.5522847 13.5522847,24 13,24 L1,24 C0.44771525,24 6.76353751e-17,23.5522847 0,23 L0,5 C-6.76353751e-17,4.44771525 0.44771525,4 1,4 L13,4 Z M12,6 L2,6 L2,22 L12,22 L12,6 Z M17,0 C17.5522847,0 18,0.44771525 18,1 L18,1 L18,13 C18,13.5522847 17.5522847,14 17,14 C16.4477153,14 16,13.5522847 16,13 L16,13 L16,2 L5,2 C4.44771525,2 4,1.55228475 4,1 C4,0.44771525 4.44771525,0 5,0 L5,0 Z"></path>
            </g>
        </g>
    </g>
</svg>