<?xml version="1.0" encoding="UTF-8"?>
<svg width="16px" height="14px" viewBox="0 0 16 14" version="1.1" xmlns="http://www.w3.org/2000/svg" xmlns:xlink="http://www.w3.org/1999/xlink">
    <title>Icon/Devices/Desktop/16</title>
    <g id="Page-1" stroke="none" stroke-width="1" fill="none" fill-rule="evenodd">
        <g id="Icons" transform="translate(-121.000000, -433.000000)" fill="#0071C4">
            <g id="Icon/Devices/Desktop/16" transform="translate(121.000000, 433.000000)">
                <path d="M5,12 L5,11 L1.00087166,11 C0.448105505,11 0,10.555163 0,10.0044225 L0,0.995577499 C0,0.445735229 0.444630861,0 1.00087166,0 L14.9991283,0 C15.5518945,0 16,0.444836974 16,0.995577499 L16,10.0044225 C16,10.5542648 15.5553691,11 14.9991283,11 L11,11 L11,12 L11.0029699,12 C11.5536144,12 12,12.4438648 12,13 C12,13.5522847 11.5469637,14 11.0029699,14 L4.99703014,14 C4.4463856,14 4,13.5561352 4,13 C4,12.4477153 4.45303631,12 4.99703014,12 L5,12 L5,12 Z M2,2 L2,9 L14,9 L14,2 L2,2 Z M7,11 L7,12 L9,12 L9,11 L7,11 Z"></path>
            </g>
        </g>
    </g>
</svg>