<?xml version="1.0" encoding="UTF-8"?>
<svg width="24px" height="20px" viewBox="0 0 24 20" version="1.1" xmlns="http://www.w3.org/2000/svg" xmlns:xlink="http://www.w3.org/1999/xlink">
    <title>Icon/Devices/Desktop/24</title>
    <g id="Page-1" stroke="none" stroke-width="1" fill="none" fill-rule="evenodd">
        <g id="Icons" transform="translate(-164.000000, -430.000000)" fill="#0071C4">
            <g id="Icon/Devices/Desktop/24" transform="translate(164.000000, 430.000000)">
                <path d="M22.9993054,0 C23.5519738,0 24,0.444630861 24,1.00087166 L24,14.9991283 C24,15.5518945 23.5525308,16 22.9993054,16 L15,16 L15,18 L16.0046024,18 C16.515078,18 16.935804,18.3827202 16.9933032,18.8826674 L17,19 C17,19.5522847 16.5443356,20 16.0046024,20 L7.99539757,20 C7.44565467,20 7,19.5561352 7,19 C7,18.4477153 7.4556644,18 7.99539757,18 L9,18 L9,16 L1.00069463,16 C0.448026248,16 0,15.5553691 0,14.9991283 L0,1.00087166 C0,0.448105505 0.44746922,0 1.00069463,0 L22.9993054,0 Z M13,18 L13,16 L11,16 L11,18 L13,18 Z M22,2 L2,2 L2,14 L22,14 L22,2 Z"></path>
            </g>
        </g>
    </g>
</svg>