<?xml version="1.0" encoding="UTF-8"?>
<svg width="12px" height="16px" viewBox="0 0 12 16" version="1.1" xmlns="http://www.w3.org/2000/svg" xmlns:xlink="http://www.w3.org/1999/xlink">
    <title>Icon/MapPin/Fill/16</title>
    <g id="Page-1" stroke="none" stroke-width="1" fill="none" fill-rule="evenodd">
        <g id="Icons" transform="translate(-301.000000, -703.000000)" fill="#0071C4">
            <g id="Icon/MapPin/Fill/16" transform="translate(301.000000, 703.000000)">
                <path d="M6,1.0658141e-14 C9.3137085,1.0658141e-14 12,2.6862915 12,6 C12,9.3137085 7.19976899,15.3366104 7.19976899,15.3366104 C6.54304227,16.2285996 5.46284513,16.2221383 4.80023101,15.3366104 C4.80023101,15.3366104 0,9.3137085 0,6 C0,2.6862915 2.6862915,1.0658141e-14 6,1.0658141e-14 Z M6,4 C4.8954305,4 4,4.8954305 4,6 C4,7.1045695 4.8954305,8 6,8 C7.1045695,8 8,7.1045695 8,6 C8,4.8954305 7.1045695,4 6,4 Z"></path>
            </g>
        </g>
    </g>
</svg>