<?xml version="1.0" encoding="UTF-8"?>
<svg width="18px" height="24px" viewBox="0 0 18 24" version="1.1" xmlns="http://www.w3.org/2000/svg" xmlns:xlink="http://www.w3.org/1999/xlink">
    <title>Icon/MapPin/Fill/24</title>
    <g id="Page-1" stroke="none" stroke-width="1" fill="none" fill-rule="evenodd">
        <g id="Icons" transform="translate(-343.000000, -700.000000)" fill="#0071C4">
            <g id="Icon/MapPin/Fill/24" transform="translate(343.000000, 700.000000)">
                <path d="M8.99821075,5.15143483e-14 C13.9677853,5.15143483e-14 17.9964215,3.95092689 17.9964215,8.82464219 C17.9964215,13.6983575 10.2211141,23.3300968 10.2211141,23.3300968 C9.54754385,24.2135688 8.45489095,24.2109307 7.78467201,23.3425316 C7.78467201,23.3425316 -1.77635684e-15,13.6983575 -1.77635684e-15,8.82464219 C-1.77635684e-15,3.95092689 4.02863618,5.15143483e-14 8.99821075,5.15143483e-14 Z M9,5.88426462 C7.34314575,5.88426462 6,7.20150212 6,8.82639693 C6,10.4512917 7.34314575,11.7685292 9,11.7685292 C10.6568542,11.7685292 12,10.4512917 12,8.82639693 C12,7.20150212 10.6568542,5.88426462 9,5.88426462 Z"></path>
            </g>
        </g>
    </g>
</svg>