<?xml version="1.0" encoding="UTF-8"?>
<svg width="24px" height="25px" viewBox="0 0 24 25" version="1.1" xmlns="http://www.w3.org/2000/svg" xmlns:xlink="http://www.w3.org/1999/xlink">
    <title>Icon/Mail/Bill/24</title>
    <g id="Page-1" stroke="none" stroke-width="1" fill="none" fill-rule="evenodd">
        <g id="Icons" transform="translate(-426.000000, -646.000000)" fill="#0071C4">
            <g id="Icon/Mail/Bill/24" transform="translate(426.000000, 646.000000)">
                <path d="M12.6527353,0.242413922 L15.875,3.019 L20,3.01920382 C20.5522847,3.01920382 21,3.46691907 21,4.01920382 L21,7.435 L23.6527353,9.72000094 C23.8732153,9.90996628 24,10.1865573 24,10.477587 L24,23.0192908 C24,23.5715755 23.5522847,24.0192908 23,24.0192908 L1,24.0192908 C0.44771525,24.0192908 3.8061018e-15,23.5715755 1.77635684e-15,23.0192908 L1.77635684e-15,10.477587 C4.08448351e-16,10.1865573 0.126784682,9.90996628 0.347264729,9.72000094 L3,7.434 L3,4.01920382 C3,3.46691907 3.44771525,3.01920382 4,3.01920382 L8.124,3.019 L11.3472647,0.242413922 C11.7224029,-0.0808046405 12.2775971,-0.0808046405 12.6527353,0.242413922 Z M22,12.279 L12.624695,19.7808688 C12.2594764,20.0730437 11.7405236,20.0730437 11.375305,19.7808688 L11.375305,19.7808688 L2,12.28 L2,22.0192038 L22,22.0192038 L22,12.279 Z M19,5.01920382 L5,5.01920382 L5,12.12 L12,17.7193752 L19,12.119 L19,5.01920382 Z M11.9964253,2.01920382 L10.9928505,3.02277855 L13,3.02277855 L11.9964253,2.01920382 Z M11.1233244,14.8954424 C10.712241,14.8275242 10.3199304,14.7086693 9.9463807,14.538874 C9.57283102,14.3690787 9.25737394,14.1644337 9,13.924933 L9.51474531,13.1796247 C9.55764097,13.1188558 9.61572796,13.067918 9.68900804,13.0268097 C9.76228812,12.9857013 9.84003534,12.9651475 9.92225201,12.9651475 C10.0080433,12.9651475 10.0956206,12.9874886 10.1849866,13.0321716 C10.2743525,13.0768546 10.37176,13.131367 10.4772118,13.1957105 C10.5826636,13.2600539 10.697944,13.3252901 10.8230563,13.3914209 C10.9481686,13.4575517 11.091152,13.5120641 11.2520107,13.5549598 L11.4504021,11.5281501 C11.1930282,11.4566574 10.9374454,11.3726546 10.6836461,11.2761394 C10.4298468,11.1796242 10.2010734,11.0491518 9.99731903,10.8847185 C9.79356466,10.7202851 9.62824013,10.511172 9.50134048,10.2573727 C9.37444083,10.0035734 9.31099196,9.68543534 9.31099196,9.30294906 C9.31099196,9.02055265 9.36818531,8.74530965 9.48257373,8.4772118 C9.59696214,8.20911394 9.76407397,7.96782949 9.98391421,7.75335121 C10.2037545,7.53887292 10.4745292,7.36282464 10.7962466,7.22520107 C11.1179641,7.08757751 11.4861463,7.008043 11.9008043,6.98659517 L11.9597855,6.39142091 C11.9705094,6.29133105 12.0151917,6.20107279 12.0938338,6.12064343 C12.1724758,6.04021408 12.2743515,6 12.3994638,6 L13.0107239,6 L12.9034853,7.05630027 C13.2895462,7.12779303 13.6219825,7.24307338 13.9008043,7.40214477 C14.1796261,7.56121617 14.4155486,7.73190257 14.6085791,7.91420912 L14.2010724,8.50938338 C14.1403035,8.59874933 14.078642,8.6639855 14.0160858,8.70509383 C13.9535296,8.74620217 13.879357,8.76675603 13.7935657,8.76675603 C13.7363715,8.76675603 13.672029,8.75424499 13.6005362,8.72922252 C13.5290434,8.70420005 13.4504026,8.67292244 13.3646113,8.63538874 C13.2788199,8.59785504 13.1867744,8.55764097 13.0884718,8.51474531 C12.9901693,8.47184965 12.8856127,8.43431651 12.7747989,8.40214477 L12.5871314,10.30563 C12.758714,10.355675 12.930294,10.4101874 13.1018767,10.4691689 C13.2734593,10.5281504 13.4387838,10.5960675 13.5978552,10.6729223 C13.7569266,10.749777 13.9052719,10.8382479 14.0428954,10.9383378 C14.180519,11.0384277 14.3002676,11.156389 14.4021448,11.2922252 C14.504022,11.4280614 14.5835565,11.5844495 14.6407507,11.7613941 C14.6979449,11.9383387 14.7265416,12.1394091 14.7265416,12.3646113 C14.7265416,12.7042019 14.6693482,13.0232335 14.5549598,13.3217158 C14.4405714,13.6201981 14.2725659,13.8838237 14.0509383,14.1126005 C13.8293108,14.3413774 13.5576424,14.5281494 13.2359249,14.6729223 C12.9142075,14.8176951 12.5460253,14.9061661 12.1313673,14.9383378 L12.0670241,15.6085791 C12.0563002,15.708669 12.0116179,15.7989272 11.9329759,15.8793566 C11.8543338,15.9597859 11.7524582,16 11.6273458,16 L11.0160858,16 L11.1233244,14.8954424 Z M13.150134,12.6112601 C13.150134,12.4075057 13.0848979,12.2448621 12.9544236,12.1233244 C12.8239493,12.0017867 12.6514756,11.899911 12.4369973,11.8176944 L12.2654155,13.5871314 C12.8552308,13.4834669 13.150134,13.1581797 13.150134,12.6112601 Z M10.8766756,9.14209115 C10.8766756,9.3529948 10.9436991,9.52368121 11.077748,9.6541555 C11.2117969,9.78462979 11.3878452,9.89454826 11.6058981,9.98391421 L11.766756,8.36461126 C11.6023227,8.38963373 11.4638075,8.42627322 11.3512064,8.47453083 C11.2386053,8.52278845 11.1474534,8.58087544 11.077748,8.64879357 C11.0080425,8.71671169 10.9571047,8.79267161 10.924933,8.8766756 C10.8927612,8.9606796 10.8766756,9.04915056 10.8766756,9.14209115 Z"></path>
            </g>
        </g>
    </g>
</svg>