<?xml version="1.0" encoding="UTF-8"?>
<svg width="14px" height="14px" viewBox="0 0 14 14" version="1.1" xmlns="http://www.w3.org/2000/svg" xmlns:xlink="http://www.w3.org/1999/xlink">
    <title>Icon/RSS/16</title>
    <g id="Page-1" stroke="none" stroke-width="1" fill="none" fill-rule="evenodd">
        <g id="Icons" transform="translate(-478.000000, -807.000000)" fill="#0071C4">
            <g id="Icon/RSS/16" transform="translate(478.000000, 807.000000)">
                <path d="M1,12 C1.55228475,12 2,12.4477153 2,13 C2,13.5522847 1.55228475,14 1,14 C0.44771525,14 2.66453526e-14,13.5522847 2.66453526e-14,13 C2.66453526e-14,12.4477153 0.44771525,12 1,12 Z M1,8 C1.63949745,8 2.52948792,8.14600003 3.44173013,8.59495108 C5.03947117,9.38126366 6.0213047,10.8501204 5.99998611,13.0053265 C5.99711848,13.5551606 5.55050815,14 5,14 C4.44771525,14 4,13.5522847 4,13 L4,13 L4.00007356,12.9877438 C4.01409758,11.6311355 3.49105068,10.848306 2.55860402,10.3894115 C2.21720693,10.2213963 1.84104696,10.1103222 1.46316926,10.0483326 C1.23951614,10.0116431 1.07390995,10 1,10 C0.44771525,10 2.66453526e-14,9.55228475 2.66453526e-14,9 C2.66453526e-14,8.44771525 0.44771525,8 1,8 Z M1,0 C1.42688921,0 2.13712031,0.0507140107 3.03934614,0.201035238 C4.53764511,0.450669124 6.03761922,0.900512497 7.44709545,1.60501748 C11.5257824,3.64368629 14.001245,7.35674377 14,13.0002206 C14,13.552404 13.5522112,14 13,14 C12.4477153,14 12,13.5522847 12,13 L12,13 C12.0010615,8.14224855 9.9761949,5.10506893 6.55290499,3.3939902 C5.33738112,2.78642932 4.02485513,2.39280179 2.710654,2.17384072 C2.25049366,2.0971727 1.82439054,2.04802322 1.44440142,2.02089012 C1.22283462,2.00506916 1.07070957,2 1,2 C0.44771525,2 2.66453526e-14,1.55228475 2.66453526e-14,1 C2.66453526e-14,0.44771525 0.44771525,0 1,0 Z M1,4 C1.3020427,4 1.79368359,4.03521041 2.41482639,4.13900895 C3.44459685,4.31109286 4.47603382,4.62134517 5.44817172,5.10870412 C8.26945306,6.52308857 9.99304263,9.10915902 10,12.9979196 L10,12.9979196 C10,13.5522847 9.55228475,14 9,14 C8.44800941,14 8.00047696,13.5527616 8,13.0008823 C7.99427965,9.89564744 6.71969235,7.98340784 4.55184702,6.89660849 C3.77398082,6.50664318 2.93041339,6.25290131 2.08517947,6.11165512 C1.58131963,6.02745561 1.19795847,6 1,6 C0.44771525,6 2.66453526e-14,5.55228475 2.66453526e-14,5 C2.66453526e-14,4.44771525 0.44771525,4 1,4 Z"></path>
            </g>
        </g>
    </g>
</svg>