<?xml version="1.0" encoding="UTF-8"?>
<svg width="24px" height="24px" viewBox="0 0 24 24" version="1.1" xmlns="http://www.w3.org/2000/svg" xmlns:xlink="http://www.w3.org/1999/xlink">
    <title>Icon/RSS/24</title>
    <g id="Page-1" stroke="none" stroke-width="1" fill="none" fill-rule="evenodd">
        <g id="Icons" transform="translate(-517.000000, -802.000000)" fill="#0071C4">
            <g id="Icon/RSS/24" transform="translate(517.000000, 802.000000)">
                <path d="M2.25,0 C14.2621933,0 24,9.73780669 24,21.75 L24,21.75 L24,22.5 C24,23.3284271 23.3284271,24 22.5,24 C21.6715729,24 21,23.3284271 21,22.5 L21,22.5 L21,21.75 C21,11.3946609 12.6053391,3 2.25,3 L2.25,3 L1.5,3 C0.671572854,3 0,2.32842712 0,1.5 C0,0.671572875 0.671572854,0 1.5,0 L1.5,0 Z M2,7 C10.2842712,7 17,13.7157288 17,22 L17,22.5 C17,23.3284271 16.3284271,24 15.5,24 C14.6715729,24 14,23.3284271 14,22.5 L14,22 C14,15.372583 8.627417,10 2,10 L1.5,10 C0.671572875,10 0,9.32842712 0,8.5 C0,7.67157288 0.671572875,7 1.5,7 L2,7 Z M1.5,21 C2.32842712,21 3,21.6715729 3,22.5 C3,23.3284271 2.32842712,24 1.5,24 C0.671572875,24 -4.4408921e-16,23.3284271 -4.4408921e-16,22.5 C0,21.6715729 0.671572875,21 1.5,21 Z M1.5,14 C6.19442037,14 10,17.8055796 10,22.5 C10,23.3284271 9.32842712,24 8.5,24 C7.67157288,24 7,23.3284271 7,22.5 C7,19.4624339 4.53756612,17 1.5,17 C0.671572875,17 0,16.3284271 0,15.5 C0,14.6715729 0.671572875,14 1.5,14 Z"></path>
            </g>
        </g>
    </g>
</svg>