<?xml version="1.0" encoding="UTF-8"?>
<svg width="16px" height="16px" viewBox="0 0 16 16" version="1.1" xmlns="http://www.w3.org/2000/svg" xmlns:xlink="http://www.w3.org/1999/xlink">
    <title>Icon/Success/Outline/16</title>
    <g id="Page-1" stroke="none" stroke-width="1" fill="none" fill-rule="evenodd">
        <g id="Icons" transform="translate(-213.000000, -271.000000)" fill="#0071C4">
            <g id="Icon/Success/Outline/16" transform="translate(213.000000, 271.000000)">
                <path d="M8,0 C12.418278,0 16,3.581722 16,8 C16,12.418278 12.418278,16 8,16 C3.581722,16 0,12.418278 0,8 C0,3.581722 3.581722,0 8,0 Z M8,2 C4.6862915,2 2,4.6862915 2,8 C2,11.3137085 4.6862915,14 8,14 C11.3137085,14 14,11.3137085 14,8 C14,4.6862915 11.3137085,2 8,2 Z M10.4748737,4.81801948 L11.8890873,6.23223305 L6.93933983,11.1819805 L4.1109127,8.35355339 L5.52512627,6.93933983 L6.93933983,8.35355339 L10.4748737,4.81801948 Z"></path>
            </g>
        </g>
    </g>
</svg>