<?xml version="1.0" encoding="UTF-8"?>
<svg width="14px" height="14px" viewBox="0 0 14 14" version="1.1" xmlns="http://www.w3.org/2000/svg" xmlns:xlink="http://www.w3.org/1999/xlink">
    <title>Icon/Filter/16</title>
    <g id="Page-1" stroke="none" stroke-width="1" fill="none" fill-rule="evenodd">
        <g id="Icons" transform="translate(-29.000000, -544.000000)" fill="#0071C4">
            <g id="Icon/Filter/16" transform="translate(29.000000, 544.000000)">
                <path d="M12,10 C13.1045695,10 14,10.8954305 14,12 C14,13.1045695 13.1045695,14 12,14 C11.2601625,14 10.6141507,13.5982846 10.2681881,13.0010775 L1.00684547,13 C0.450780073,13 0,12.5561352 0,12 C0,11.4477153 0.449948758,11 1.00684547,11 L10.2676063,10.9999275 C10.6134261,10.4021661 11.2597476,10 12,10 Z M2,5 C2.74025244,5 3.38657394,5.40216612 3.73239368,5.99992752 L12.9931545,6 C13.509501,6 13.9350657,6.38272018 13.9932262,6.88266744 L14,7 C14,7.55228475 13.5500512,8 12.9931545,8 L3.73181186,8.0010775 C3.38584934,8.59828461 2.7398375,9 2,9 C0.8954305,9 0,8.1045695 0,7 C0,5.8954305 0.8954305,5 2,5 Z M12,0 C13.1045695,0 14,0.8954305 14,2 C14,3.1045695 13.1045695,4 12,4 C11.2601625,4 10.6141507,3.59828461 10.2681881,3.0010775 L1.00684547,3 C0.450780073,3 0,2.55613518 0,2 C0,1.44771525 0.449948758,1 1.00684547,1 L10.2676063,0.999927519 C10.6134261,0.40216612 11.2597476,0 12,0 Z"></path>
            </g>
        </g>
    </g>
</svg>