<?xml version="1.0" encoding="UTF-8"?>
<svg width="20px" height="20px" viewBox="0 0 20 20" version="1.1" xmlns="http://www.w3.org/2000/svg" xmlns:xlink="http://www.w3.org/1999/xlink">
    <title>Icon/Filter/24</title>
    <g id="Page-1" stroke="none" stroke-width="1" fill="none" fill-rule="evenodd">
        <g id="Icons" transform="translate(-75.000000, -541.000000)" fill="#0071C4">
            <g id="Icon/Filter/24" transform="translate(75.000000, 541.000000)">
                <path d="M17,14 C18.6568542,14 20,15.3431458 20,17 C20,18.6568542 18.6568542,20 17,20 C15.6937812,20 14.5825421,19.1651924 14.1707057,18 L14.1707057,18 L0.998513042,18 C0.447049516,18 0,17.5561352 0,17 C0,16.4477153 0.452137557,16 0.998513042,16 L0.998513042,16 L14.1707057,16 C14.5825421,14.8348076 15.6937812,14 17,14 Z M3,7 C4.30621883,7 5.41745788,7.83480763 5.82929429,9 L19.001487,9 C19.5478624,9 20,9.44771525 20,10 C20,10.5561352 19.5529505,11 19.001487,11 L5.82929429,11 C5.41745788,12.1651924 4.30621883,13 3,13 C1.34314575,13 0,11.6568542 0,10 C0,8.34314575 1.34314575,7 3,7 Z M17,0 C18.6568542,0 20,1.34314575 20,3 C20,4.65685425 18.6568542,6 17,6 C15.6937812,6 14.5825421,5.16519237 14.1707057,4 L14.1707057,4 L0.998513042,4 C0.447049516,4 0,3.55613518 0,3 C0,2.44771525 0.452137557,2 0.998513042,2 L0.998513042,2 L14.1707057,2 C14.5825421,0.834807627 15.6937812,0 17,0 Z"></path>
            </g>
        </g>
    </g>
</svg>