<?xml version="1.0" encoding="UTF-8"?>
<svg width="16px" height="9px" viewBox="0 0 16 9" version="1.1" xmlns="http://www.w3.org/2000/svg" xmlns:xlink="http://www.w3.org/1999/xlink">
    <title>Icon/GradCap/16</title>
    <g id="Page-1" stroke="none" stroke-width="1" fill="none" fill-rule="evenodd">
        <g id="Icons" transform="translate(-213.000000, -547.000000)" fill="#0071C4">
            <g id="Icon/GradCap/16" transform="translate(213.000000, 547.000000)">
                <path d="M1,3 C1.55228475,3 2,3.44771525 2,4 L2,8 C2,8.55228475 1.55228475,9 1,9 C0.44771525,9 6.76353751e-17,8.55228475 0,8 L0,4 C-6.76353751e-17,3.44771525 0.44771525,3 1,3 Z M14.9991283,0 C15.5518945,0 16,0.443864822 16,1 C16,1.55228475 15.5553691,2 14.9991283,2 L14.9991283,2 L12.0985466,2 L12.893423,6.03299751 C13.0008416,6.57801172 12.6750629,6.86935316 12.1461722,6.69715149 C12.1461722,6.69715149 10.5338343,6 8,6 C6.00913022,6 4.56583368,6.4338355 4.03869551,6.619765 L3.91792215,6.66381442 C3.85291892,6.68840014 3.81930961,6.7027418 3.81930961,6.7027418 C3.30512699,6.87786645 2.97553288,6.58670099 3.08704936,6.03299751 L3.08704936,6.03299751 L3.89929946,2 L1.00087166,2 C0.448105505,2 0,1.55613518 0,1 C0,0.44771525 0.444630861,0 1.00087166,0 L1.00087166,0 Z"></path>
            </g>
        </g>
    </g>
</svg>