<?xml version="1.0" encoding="UTF-8"?>
<svg width="22px" height="12px" viewBox="0 0 22 12" version="1.1" xmlns="http://www.w3.org/2000/svg" xmlns:xlink="http://www.w3.org/1999/xlink">
    <title>Icon/GradCap/24</title>
    <g id="Page-1" stroke="none" stroke-width="1" fill="none" fill-rule="evenodd">
        <g id="Icons" transform="translate(-252.000000, -545.000000)" fill="#0071C4">
            <g id="Icon/GradCap/24" transform="translate(252.000000, 545.000000)">
                <path d="M1,4 C1.55228475,4 2,4.44771525 2,5 L2,11 C2,11.5522847 1.55228475,12 1,12 C0.44771525,12 6.76353751e-17,11.5522847 0,11 L0,5 C-6.76353751e-17,4.44771525 0.44771525,4 1,4 Z M20.9975383,0 C21.5511826,0 22,0.443864822 22,1 C22,1.55228475 21.5605417,2 20.9975383,2 L17,2 L17.8672077,8.43989848 C17.9405469,8.98451619 17.5787585,9.26795889 17.0551526,9.08807017 C17.0551526,9.08807017 14.4779406,8 11,8 C7.52205935,8 4.94484737,9.08807017 4.94484737,9.08807017 C4.42302258,9.27471254 4.05955982,8.98372388 4.13279228,8.43989848 L5,2 L1.00246167,2 C0.448817378,2 0,1.55613518 0,1 C0,0.44771525 0.43945834,0 1.00246167,0 L20.9975383,0 Z"></path>
            </g>
        </g>
    </g>
</svg>