<?xml version="1.0" encoding="UTF-8"?>
<svg width="14px" height="10px" viewBox="0 0 14 10" version="1.1" xmlns="http://www.w3.org/2000/svg" xmlns:xlink="http://www.w3.org/1999/xlink">
    <title>Icon/Menu/16</title>
    <g id="Page-1" stroke="none" stroke-width="1" fill="none" fill-rule="evenodd">
        <g id="Icons" transform="translate(-478.000000, -707.000000)" fill="#0071C4" fill-rule="nonzero">
            <g id="Icon/Menu/16" transform="translate(478.000000, 707.000000)">
                <path d="M13,8 C13.5522847,8 14,8.44771525 14,9 C14,9.55228475 13.5522847,10 13,10 L13,10 L1,10 C0.44771525,10 0,9.55228475 0,9 C0,8.44771525 0.44771525,8 1,8 L1,8 Z M13,4 C13.5522847,4 14,4.44771525 14,5 C14,5.55228475 13.5522847,6 13,6 L13,6 L1,6 C0.44771525,6 0,5.55228475 0,5 C0,4.44771525 0.44771525,4 1,4 L1,4 Z M13,0 C13.5522847,0 14,0.44771525 14,1 C14,1.55228475 13.5522847,2 13,2 L13,2 L1,2 C0.44771525,2 0,1.55228475 0,1 C0,0.44771525 0.44771525,0 1,0 L1,0 Z"></path>
            </g>
        </g>
    </g>
</svg>