<?xml version="1.0" encoding="UTF-8"?>
<svg width="21px" height="21px" viewBox="0 0 21 21" version="1.1" xmlns="http://www.w3.org/2000/svg" xmlns:xlink="http://www.w3.org/1999/xlink">
    <title>Icon/Distribute/24</title>
    <g id="Page-1" stroke="none" stroke-width="1" fill="none" fill-rule="evenodd">
        <g id="Icons" transform="translate(-75.000000, -485.000000)" fill="#0071C4">
            <g id="Icon/Distribute/24" transform="translate(75.000000, 485.000000)">
                <path d="M7.87513643,0.330760785 L7.875,13.125 L20.6689818,13.1258635 C19.5030692,17.6541468 15.3922675,21 10.5,21 C4.70101013,21 1.0658141e-14,16.2989899 1.0658141e-14,10.5 C1.0658141e-14,5.60737237 3.34634577,1.49632567 7.87513643,0.330760785 Z M10.5,-2.84217094e-14 C16.2039245,-2.84217094e-14 20.8455734,4.54814202 20.9962258,10.2157049 L21,10.5 L10.5,10.5 L10.5,-2.84217094e-14 Z M13.1256449,3.07333044 L13.125,7.875 L17.927024,7.87535788 C17.1362897,5.63781876 15.3630453,3.86435832 13.1256449,3.07333044 Z"></path>
            </g>
        </g>
    </g>
</svg>