<?xml version="1.0" encoding="UTF-8"?>
<svg width="16px" height="14px" viewBox="0 0 16 14" version="1.1" xmlns="http://www.w3.org/2000/svg" xmlns:xlink="http://www.w3.org/1999/xlink">
    <title>Icon/BarChart/16</title>
    <g id="Page-1" stroke="none" stroke-width="1" fill="none" fill-rule="evenodd">
        <g id="Icons" transform="translate(-477.000000, -221.000000)" fill="#0071C4">
            <g id="Icon/BarChart/16" transform="translate(477.000000, 221.000000)">
                <path d="M5.32907052e-15,1 C5.32907052e-15,0.44771525 0.44771525,0 1,0 C1.55228475,0 2,0.44771525 2,1 L2,12 L4,12 L4,7 C4,6.44771525 4.44771525,6 5,6 C5.55228475,6 6,6.44771525 6,7 L6,12 L8,12 L8,5 C8,4.44771525 8.44771525,4 9,4 C9.55228475,4 10,4.44771525 10,5 L10,12 L12,12 L12,3 C12,2.44771525 12.4477153,2 13,2 C13.5522847,2 14,2.44771525 14,3 L14,12 L15,12 C15.5522847,12 16,12.4477153 16,13 C16,13.5522847 15.5522847,14 15,14 L5.32907052e-15,14 L5.32907052e-15,1 Z"></path>
            </g>
        </g>
    </g>
</svg>