<?xml version="1.0" encoding="UTF-8"?>
<svg width="22px" height="22px" viewBox="0 0 22 22" version="1.1" xmlns="http://www.w3.org/2000/svg" xmlns:xlink="http://www.w3.org/1999/xlink">
    <title>Icon/BarChart/24</title>
    <g id="Page-1" stroke="none" stroke-width="1" fill="none" fill-rule="evenodd">
        <g id="Icons" transform="translate(-518.000000, -217.000000)" fill="#0071C4">
            <g id="Icon/BarChart/24" transform="translate(518.000000, 217.000000)">
                <path d="M9,10 C9,9.44771525 9.44771525,9 10,9 C10.5522847,9 11,9.44771525 11,10 L11,20 L13,20 L13,6 C13,5.44771525 13.4477153,5 14,5 C14.5522847,5 15,5.44771525 15,6 L15,20 L17,20 L17,2 C17,1.44771525 17.4477153,1 18,1 C18.5522847,1 19,1.44771525 19,2 L19,20 L21,20 C21.5522847,20 22,20.4477153 22,21 C22,21.5522847 21.5522847,22 21,22 L-5.32907052e-15,22 L-5.32907052e-15,1 C-5.32907052e-15,0.44771525 0.44771525,0 1,0 C1.55228475,0 2,0.44771525 2,1 L2,20 L5,20 L5,14 C5,13.4477153 5.44771525,13 6,13 C6.55228475,13 7,13.4477153 7,14 L7,20 L9,20 L9,10 Z"></path>
            </g>
        </g>
    </g>
</svg>