<?xml version="1.0" encoding="UTF-8"?>
<svg width="14px" height="14px" viewBox="0 0 14 14" version="1.1" xmlns="http://www.w3.org/2000/svg" xmlns:xlink="http://www.w3.org/1999/xlink">
    <title>Icon/List/16</title>
    <g id="Page-1" stroke="none" stroke-width="1" fill="none" fill-rule="evenodd">
        <g id="Icons" transform="translate(-122.000000, -652.000000)" fill="#0071C4">
            <g id="Icon/List/16" transform="translate(122.000000, 652.000000)">
                <path d="M13.0046024,12 C13.515078,12 13.935804,12.3827202 13.9933032,12.8826674 L14,13 C14,13.5522847 13.5443356,14 13.0046024,14 L4.99539757,14 C4.44565467,14 4,13.5561352 4,13 C4,12.4477153 4.4556644,12 4.99539757,12 L13.0046024,12 Z M1,12 C1.51283584,12 1.93550716,12.3827202 1.99327227,12.8826674 L2,13 C2,13.5128358 1.61727982,13.9355072 1.11733256,13.9932723 L1,14 C0.44771525,14 0,13.5561352 0,13 C0,12.4871642 0.382720178,12.0644928 0.882667443,12.0067277 L1,12 Z M13.0046024,8 C13.515078,8 13.935804,8.38272018 13.9933032,8.88266744 L14,9 C14,9.55228475 13.5443356,10 13.0046024,10 L4.99539757,10 C4.44565467,10 4,9.55613518 4,9 C4,8.44771525 4.4556644,8 4.99539757,8 L13.0046024,8 Z M1,8 C1.51283584,8 1.93550716,8.38272018 1.99327227,8.88266744 L2,9 C2,9.51283584 1.61727982,9.93550716 1.11733256,9.99327227 L1,10 C0.44771525,10 0,9.55613518 0,9 C0,8.48716416 0.382720178,8.06449284 0.882667443,8.00672773 L1,8 Z M13.0046024,4 C13.515078,4 13.935804,4.38272018 13.9933032,4.88266744 L14,5 C14,5.55228475 13.5443356,6 13.0046024,6 L4.99539757,6 C4.44565467,6 4,5.55613518 4,5 C4,4.44771525 4.4556644,4 4.99539757,4 L13.0046024,4 Z M1,4 C1.51283584,4 1.93550716,4.38272018 1.99327227,4.88266744 L2,5 C2,5.51283584 1.61727982,5.93550716 1.11733256,5.99327227 L1,6 C0.44771525,6 0,5.55613518 0,5 C0,4.48716416 0.382720178,4.06449284 0.882667443,4.00672773 L1,4 Z M13.0046024,0 C13.515078,0 13.935804,0.382720178 13.9933032,0.882667443 L14,1 C14,1.55228475 13.5443356,2 13.0046024,2 L4.99539757,2 C4.44565467,2 4,1.55613518 4,1 C4,0.44771525 4.4556644,0 4.99539757,0 L13.0046024,0 Z M1,0 C1.51283584,0 1.93550716,0.382720178 1.99327227,0.882667443 L2,1 C2,1.51283584 1.61727982,1.93550716 1.11733256,1.99327227 L1,2 C0.44771525,2 0,1.55613518 0,1 C0,0.487164161 0.382720178,0.0644928393 0.882667443,0.00672773133 L1,0 Z"></path>
            </g>
        </g>
    </g>
</svg>