<?xml version="1.0" encoding="UTF-8"?>
<svg width="20px" height="14px" viewBox="0 0 20 14" version="1.1" xmlns="http://www.w3.org/2000/svg" xmlns:xlink="http://www.w3.org/1999/xlink">
    <title>Icon/List/24</title>
    <g id="Page-1" stroke="none" stroke-width="1" fill="none" fill-rule="evenodd">
        <g id="Icons" transform="translate(-166.000000, -652.000000)" fill="#0071C4">
            <g id="Icon/List/24" transform="translate(166.000000, 652.000000)">
                <path d="M18.9991283,12 C19.5124112,12 19.9354509,12.3827202 19.9932664,12.8826674 L20,13 C20,13.5522847 19.5553691,14 18.9991283,14 L5.00087166,14 C4.4481055,14 4,13.5561352 4,13 C4,12.4477153 4.44463086,12 5.00087166,12 L18.9991283,12 Z M1,12 C1.55228475,12 2,12.4477153 2,13 C2,13.5522847 1.55228475,14 1,14 C0.44771525,14 0,13.5522847 0,13 C0,12.4477153 0.44771525,12 1,12 Z M18.9991283,8 C19.5124112,8 19.9354509,8.38272018 19.9932664,8.88266744 L20,9 C20,9.55228475 19.5553691,10 18.9991283,10 L5.00087166,10 C4.4481055,10 4,9.55613518 4,9 C4,8.44771525 4.44463086,8 5.00087166,8 L18.9991283,8 Z M1,8 C1.55228475,8 2,8.44771525 2,9 C2,9.55228475 1.55228475,10 1,10 C0.44771525,10 0,9.55228475 0,9 C0,8.44771525 0.44771525,8 1,8 Z M18.9991283,4 C19.5124112,4 19.9354509,4.38272018 19.9932664,4.88266744 L20,5 C20,5.55228475 19.5553691,6 18.9991283,6 L5.00087166,6 C4.4481055,6 4,5.55613518 4,5 C4,4.44771525 4.44463086,4 5.00087166,4 L18.9991283,4 Z M1,4 C1.55228475,4 2,4.44771525 2,5 C2,5.55228475 1.55228475,6 1,6 C0.44771525,6 0,5.55228475 0,5 C0,4.44771525 0.44771525,4 1,4 Z M18.9991283,0 C19.5124112,0 19.9354509,0.382720178 19.9932664,0.882667443 L20,1 C20,1.55228475 19.5553691,2 18.9991283,2 L5.00087166,2 C4.4481055,2 4,1.55613518 4,1 C4,0.44771525 4.44463086,0 5.00087166,0 L18.9991283,0 Z M1,0 C1.55228475,0 2,0.44771525 2,1 C2,1.55228475 1.55228475,2 1,2 C0.44771525,2 0,1.55228475 0,1 C0,0.44771525 0.44771525,0 1,0 Z"></path>
            </g>
        </g>
    </g>
</svg>