<?xml version="1.0" encoding="UTF-8"?>
<svg width="6px" height="12px" viewBox="0 0 6 12" version="1.1" xmlns="http://www.w3.org/2000/svg" xmlns:xlink="http://www.w3.org/1999/xlink">
    <title>Icon/Video/Pause</title>
    <g id="Page-1" stroke="none" stroke-width="1" fill="none" fill-rule="evenodd">
        <g id="Icons" transform="translate(-389.000000, -947.000000)" fill="#0071C4">
            <g id="Icon/Video/Pause" transform="translate(389.000000, 947.000000)">
                <path d="M1,0 C1.55228475,0 2,0.455760956 2,1.00247329 L2,10.9975267 C2,11.5116309 1.61727982,11.9353477 1.11733256,11.9932556 L1,12 C0.44771525,12 0,11.544239 0,10.9975267 L0,1.00247329 C0,0.488369061 0.382720178,0.0646523491 0.882667443,0.00674437099 L1,0 Z M5,0 C5.55228475,0 6,0.455760956 6,1.00247329 L6,10.9975267 C6,11.5116309 5.61727982,11.9353477 5.11733256,11.9932556 L5,12 C4.44771525,12 4,11.544239 4,10.9975267 L4,1.00247329 C4,0.488369061 4.38272018,0.0646523491 4.88266744,0.00674437099 L5,0 Z"></path>
            </g>
        </g>
    </g>
</svg>