<?xml version="1.0" encoding="UTF-8"?>
<svg width="16px" height="12px" viewBox="0 0 16 12" version="1.1" xmlns="http://www.w3.org/2000/svg" xmlns:xlink="http://www.w3.org/1999/xlink">
    <title>Icon/Chat/MMS/16</title>
    <g id="Page-1" stroke="none" stroke-width="1" fill="none" fill-rule="evenodd">
        <g id="Icons" transform="translate(-213.000000, -328.000000)" fill="#0071C4" fill-rule="nonzero">
            <g id="Icon/Chat/MMS/16" transform="translate(213.000000, 328.000000)">
                <path d="M9.71466566,8 L11.0033142,8 C12.655382,8 14,6.6553241 14,5 C14,3.34618032 12.6557554,2 11.0033142,2 L4.99668583,2 C3.34461797,2 2,3.3446759 2,5 C2,6.65381968 3.34424456,8 4.99668583,8 L6.4603598,8 L8.08751273,9.62715293 L9.71466566,8 Z M10.5430928,10 L8.79232076,11.750772 C8.40306604,12.1400268 7.76465983,12.1327272 7.37955379,11.7476211 L5.63193268,10 L4.99668583,10 C2.23709245,10 0,7.75580481 0,5 C0,2.23857625 2.24157855,8.8817842e-15 4.99668583,8.8817842e-15 L11.0033142,8.8817842e-15 C13.7629076,8.8817842e-15 16,2.24419519 16,5 C16,7.76142375 13.7584215,10 11.0033142,10 L10.5430928,10 Z M5,6 C5.55228475,6 6,5.55228475 6,5 C6,4.44771525 5.55228475,4 5,4 C4.44771525,4 4,4.44771525 4,5 C4,5.55228475 4.44771525,6 5,6 Z M8,6 C8.55228475,6 9,5.55228475 9,5 C9,4.44771525 8.55228475,4 8,4 C7.44771525,4 7,4.44771525 7,5 C7,5.55228475 7.44771525,6 8,6 Z M11,6 C11.5522847,6 12,5.55228475 12,5 C12,4.44771525 11.5522847,4 11,4 C10.4477153,4 10,4.44771525 10,5 C10,5.55228475 10.4477153,6 11,6 Z"></path>
            </g>
        </g>
    </g>
</svg>