<?xml version="1.0" encoding="UTF-8"?>
<svg width="24px" height="19px" viewBox="0 0 24 19" version="1.1" xmlns="http://www.w3.org/2000/svg" xmlns:xlink="http://www.w3.org/1999/xlink">
    <title>Icon/Chat/MMS/24</title>
    <g id="Page-1" stroke="none" stroke-width="1" fill="none" fill-rule="evenodd">
        <g id="Icons" transform="translate(-251.000000, -325.000000)" fill="#0071C4" fill-rule="nonzero">
            <g id="Icon/Chat/MMS/24" transform="translate(251.000000, 325.000000)">
                <path d="M14.9688753,12.9835563 L16.4868777,12.9835563 C19.512741,12.9835563 21.9736901,10.5225012 21.9736901,7.49177815 C21.9736901,4.46362051 19.5136122,2 16.4868777,2 L7.48681235,2 C4.46094912,2 2,4.46105515 2,7.49177815 C2,10.5199358 4.4600779,12.9835563 7.48681235,12.9835563 L9.26706517,12.9835563 L12.1179702,15.8344614 L14.9688753,12.9835563 Z M12.8314309,17.9494278 C12.4373975,18.3434613 11.8057643,18.3506826 11.4110259,17.9559442 L8.43863804,14.9835563 L7.48681235,14.9835563 C3.35196007,14.9835563 -3.19744231e-14,11.6209538 -3.19744231e-14,7.49177815 C-3.19744231e-14,3.35418333 3.35868184,1.77635684e-14 7.48681235,1.77635684e-14 L16.4868777,1.77635684e-14 C20.62173,1.77635684e-14 23.9736901,3.3626025 23.9736901,7.49177815 C23.9736901,11.629373 20.6150083,14.9835563 16.4868777,14.9835563 L15.7973024,14.9835563 L12.8314309,17.9494278 Z M6.49989931,8.99979862 C7.32827082,8.99979862 7.99979862,8.32827082 7.99979862,7.49989931 C7.99979862,6.67152779 7.32827082,6 6.49989931,6 C5.67152779,6 5,6.67152779 5,7.49989931 C5,8.32827082 5.67152779,8.99979862 6.49989931,8.99979862 Z M11.9998993,8.99979862 C12.8282708,8.99979862 13.4997986,8.32827082 13.4997986,7.49989931 C13.4997986,6.67152779 12.8282708,6 11.9998993,6 C11.1715278,6 10.5,6.67152779 10.5,7.49989931 C10.5,8.32827082 11.1715278,8.99979862 11.9998993,8.99979862 Z M17.4998993,8.99979862 C18.3282708,8.99979862 18.9997986,8.32827082 18.9997986,7.49989931 C18.9997986,6.67152779 18.3282708,6 17.4998993,6 C16.6715278,6 16,6.67152779 16,7.49989931 C16,8.32827082 16.6715278,8.99979862 17.4998993,8.99979862 Z"></path>
            </g>
        </g>
    </g>
</svg>