<?xml version="1.0" encoding="UTF-8"?>
<svg width="16px" height="12px" viewBox="0 0 16 12" version="1.1" xmlns="http://www.w3.org/2000/svg" xmlns:xlink="http://www.w3.org/1999/xlink">
    <title>Icon/Mail/Closed/16</title>
    <g id="Page-1" stroke="none" stroke-width="1" fill="none" fill-rule="evenodd">
        <g id="Icons" transform="translate(-477.000000, -653.000000)" fill="#0071C4">
            <g id="Icon/Mail/Closed/16" transform="translate(477.000000, 653.000000)">
                <path d="M14.9991283,0 C15.5518945,0 16,0.455760956 16,1.00247329 L16,10.9975267 C16,11.5511774 15.5553691,12 14.9991283,12 L1.00087166,12 C0.448105505,12 0,11.544239 0,10.9975267 L0,1.00247329 C0,0.448822582 0.444630861,0 1.00087166,0 L14.9991283,0 Z M14,2.414 L8.70710678,7.70710678 C8.31658249,8.09763107 7.68341751,8.09763107 7.29289322,7.70710678 L7.29289322,7.70710678 L2,2.415 L2,10 L14,10 L14,2.414 Z M11.5854328,2.00035366 L4.1078399,1.69362633 L4.1078399,1.69362633 L7.30362879,4.88941523 C7.52947891,5.11526535 7.76160265,5.34738909 8,5.58578644 C8.11180816,5.47397828 8.22206342,5.36372302 8.3307658,5.25502064 L9.56065552,4.02513092 C9.75321401,3.83257243 9.93956094,3.6462255 10.1196963,3.46609014 L10.8883774,2.69740906 C11.049878,2.53590839 11.2051672,2.38061929 11.3542447,2.23154175 L11.5854328,2.00035366 L11.5854328,2.00035366 Z"></path>
            </g>
        </g>
    </g>
</svg>