<?xml version="1.0" encoding="UTF-8"?>
<svg width="24px" height="18px" viewBox="0 0 24 18" version="1.1" xmlns="http://www.w3.org/2000/svg" xmlns:xlink="http://www.w3.org/1999/xlink">
    <title>Icon/Mail/Closed/24</title>
    <g id="Page-1" stroke="none" stroke-width="1" fill="none" fill-rule="evenodd">
        <g id="Icons" transform="translate(-517.000000, -650.000000)" fill="#0071C4">
            <g id="Icon/Mail/Closed/24" transform="translate(517.000000, 650.000000)">
                <path d="M22.9993054,0 C23.5519738,0 24,0.444946289 24,0.993397683 L24,17.0066023 C24,17.5552407 23.5525308,18 22.9993054,18 L1.00069463,18 C0.448026248,18 0,17.5550537 0,17.0066023 L0,0.993397683 C0,0.444759292 0.44746922,0 1.00069463,0 L22.9993054,0 Z M22,3.414 L12.7071068,12.7071068 C12.3165825,13.0976311 11.6834175,13.0976311 11.2928932,12.7071068 L11.2928932,12.7071068 L2,3.415 L2,16 L22,16 L22,3.414 Z M20.584,2 L3.415,2 L12,10.5857864 L20.584,2 Z"></path>
            </g>
        </g>
    </g>
</svg>