<?xml version="1.0" encoding="UTF-8"?>
<svg width="16px" height="16px" viewBox="0 0 16 16" version="1.1" xmlns="http://www.w3.org/2000/svg" xmlns:xlink="http://www.w3.org/1999/xlink">
    <title>Icon/Shield/16</title>
    <g id="Page-1" stroke="none" stroke-width="1" fill="none" fill-rule="evenodd">
        <g id="Icons" transform="translate(-477.000000, -853.000000)" fill="#0071C4" fill-rule="nonzero">
            <g id="Icon/Shield/16" transform="translate(477.000000, 853.000000)">
                <path d="M12,3.41964041 C10.5399343,3.41964041 9.13918325,3.07361641 7.97507372,2.43884442 C6.8164477,3.06399704 5.42645784,3.40443981 3.97818299,3.40443981 C3.31361338,3.40443981 2.66124583,3.33277078 2.03780656,3.19474416 C2.25357464,6.89493927 3.32011192,9.65058413 4.98227469,11.6242304 C5.71209898,12.4908213 6.51672583,13.1486886 7.31310485,13.6009489 C7.56465948,13.7438057 7.79971148,13.8564806 7.99999994,13.935664 C8.20034743,13.8564573 8.43547141,13.7437428 8.68710116,13.6008319 C9.48361955,13.1484562 10.288357,12.4904235 11.0182478,11.62361 C12.6815344,9.64830192 13.7482588,6.88985812 13.9615968,3.20521286 C13.3317685,3.34632583 12.6721351,3.41964041 12,3.41964041 Z M8,16 C7.22612115,16 -0.702898915,13.0773831 0.0503941758,0.0683916945 C0.966016292,0.882104263 2.38509139,1.40443981 3.97818299,1.40443981 C5.6154713,1.40443981 7.06895381,0.852720206 7.9810079,-1.95399252e-14 C8.89199847,0.86135844 10.3530032,1.41964041 12,1.41964041 C13.605661,1.41964041 15.0345488,0.889029923 15.9493673,0.064277489 C16.7045706,13.0767669 8.77396043,16 8,16 Z"></path>
            </g>
        </g>
    </g>
</svg>