<?xml version="1.0" encoding="UTF-8"?>
<svg width="24px" height="24px" viewBox="0 0 24 24" version="1.1" xmlns="http://www.w3.org/2000/svg" xmlns:xlink="http://www.w3.org/1999/xlink">
    <title>Icon/Shield/24</title>
    <g id="Page-1" stroke="none" stroke-width="1" fill="none" fill-rule="evenodd">
        <g id="Icons" transform="translate(-517.000000, -849.000000)" fill="#0071C4" fill-rule="nonzero">
            <g id="Icon/Shield/24" transform="translate(517.000000, 849.000000)">
                <path d="M2.01314672,4.08486319 C2.1875728,10.1978392 3.87750918,14.7689721 6.63496985,18.0238534 C7.81008005,19.4109427 9.117177,20.4703416 10.4246709,21.2050479 C10.9135294,21.4797471 11.3729021,21.6908457 11.7601936,21.8301641 C11.8494281,21.8622639 11.9303093,21.888843 12,21.9095517 C12.0696907,21.888843 12.1505719,21.8622639 12.2398064,21.8301641 C12.6270979,21.6908457 13.0864706,21.4797471 13.5753291,21.2050479 C14.882823,20.4703416 16.1899199,19.4109427 17.3650302,18.0238534 C20.1334361,14.7560524 21.8258262,10.1615297 21.9888587,4.01199694 C20.768744,4.52587109 19.4083406,4.80370359 18,4.80370359 C15.7516887,4.80370359 13.6267026,4.09540338 12,2.85164145 C10.3732974,4.09540338 8.24831131,4.80370359 6,4.80370359 C4.59165936,4.80370359 3.23125602,4.52587109 2.01114131,4.01199694 L2.01314672,4.08486319 Z M23.9037728,0.12546569 C25.1905339,19.6314888 13.1674471,24 12,24 C10.8325529,24 -1.19053388,19.6314888 0.0962272486,0.12546569 C1.3394442,1.70025148 3.51898914,2.7444444 6,2.7444444 C8.54632514,2.7444444 10.7751029,1.64454964 12,0 C13.2248971,1.64454964 15.4536749,2.7444444 18,2.7444444 C20.4810109,2.7444444 22.6605558,1.70025148 23.9037728,0.12546569 Z"></path>
            </g>
        </g>
    </g>
</svg>