<?xml version="1.0" encoding="UTF-8"?>
<svg width="14px" height="16px" viewBox="0 0 14 16" version="1.1" xmlns="http://www.w3.org/2000/svg" xmlns:xlink="http://www.w3.org/1999/xlink">
    <title>Icon/Form/16</title>
    <g id="Page-1" stroke="none" stroke-width="1" fill="none" fill-rule="evenodd">
        <g id="Icons" transform="translate(-214.000000, -488.000000)" fill="#0071C4" fill-rule="nonzero">
            <g id="Icon/Form/16" transform="translate(214.000000, 488.000000)">
                <path d="M2,2 L2,14 L12,14 L12,2 L2,2 Z M1,0 L12.9981689,0 C13.585009,0.00652888414 13.9078968,0.383737166 13.9817451,0.808819113 C13.9937253,0.870700972 14,0.934617713 14,1 L14,15 C14,15.5522847 13.5522847,16 13,16 L1,16 C0.44771525,16 0,15.5522847 0,15 L0,1 C0,0.44771525 0.44771525,0 1,0 Z M3,4 C3,3.44771525 3.45303631,3 3.99703014,3 L10.0029699,3 C10.5536144,3 11,3.44386482 11,4 L11,4 C11,4.55228475 10.5469637,5 10.0029699,5 L3.99703014,5 C3.4463856,5 3,4.55613518 3,4 L3,4 Z M6,8 C6,7.44771525 6.44371665,7 6.99980749,7 L10.0001925,7 C10.5523709,7 11,7.44386482 11,8 L11,8 C11,8.55228475 10.5562834,9 10.0001925,9 L6.99980749,9 C6.44762906,9 6,8.55613518 6,8 L6,8 Z M6,12 C6,11.4477153 6.44371665,11 6.99980749,11 L10.0001925,11 C10.5523709,11 11,11.4438648 11,12 L11,12 C11,12.5522847 10.5562834,13 10.0001925,13 L6.99980749,13 C6.44762906,13 6,12.5561352 6,12 L6,12 Z M3,8 C3,7.44771525 3.44386482,7 4,7 L4,7 C4.55228475,7 5,7.44386482 5,8 L5,8 C5,8.55228475 4.55613518,9 4,9 L4,9 C3.44771525,9 3,8.55613518 3,8 L3,8 Z M3,12 C3,11.4477153 3.44386482,11 4,11 L4,11 C4.55228475,11 5,11.4438648 5,12 L5,12 C5,12.5522847 4.55613518,13 4,13 L4,13 C3.44771525,13 3,12.5561352 3,12 L3,12 Z"></path>
            </g>
        </g>
    </g>
</svg>