<?xml version="1.0" encoding="UTF-8"?>
<svg width="19px" height="22px" viewBox="0 0 19 22" version="1.1" xmlns="http://www.w3.org/2000/svg" xmlns:xlink="http://www.w3.org/1999/xlink">
    <title>Icon/Form/24</title>
    <g id="Page-1" stroke="none" stroke-width="1" fill="none" fill-rule="evenodd">
        <g id="Icons" transform="translate(-253.000000, -485.000000)" fill="#0071C4">
            <g id="Icon/Form/24" transform="translate(253.000000, 485.000000)">
                <path d="M17.997406,0 C18.5709642,0.00907049805 18.8895196,0.36484426 18.9743282,0.773882109 C18.9911234,0.846542864 19,0.922234812 19,1 L19,21 C19,21.5522847 18.5522847,22 18,22 L1,22 C0.44771525,22 0,21.5522847 0,21 L0,1 C0,0.44771525 0.44771525,0 1,0 L17.997406,0 Z M17,2 L2,2 L2,20 L17,20 L17,2 Z M13.9970707,16 C14.5114088,16 14.9353182,16.3827202 14.9932526,16.8826674 L15,17 C15,17.5522847 14.5621186,18 13.9970707,18 L9.00292933,18 C8.44902676,18 8,17.5561352 8,17 C8,16.4477153 8.43788135,16 9.00292933,16 L13.9970707,16 Z M5,16 C5.51283584,16 5.93550716,16.3827202 5.99327227,16.8826674 L6,17 C6,17.5128358 5.61727982,17.9355072 5.11733256,17.9932723 L5,18 C4.44771525,18 4,17.5561352 4,17 C4,16.4871642 4.38272018,16.0644928 4.88266744,16.0067277 L5,16 Z M12.0001925,12 C12.5129296,12 12.9355196,12.3827202 12.9932736,12.8826674 L13,13 C13,13.5522847 12.5562834,14 12.0001925,14 L8.99980749,14 C8.44762906,14 8,13.5561352 8,13 C8,12.4477153 8.44371665,12 8.99980749,12 L12.0001925,12 Z M5,12 C5.51283584,12 5.93550716,12.3827202 5.99327227,12.8826674 L6,13 C6,13.5128358 5.61727982,13.9355072 5.11733256,13.9932723 L5,14 C4.44771525,14 4,13.5561352 4,13 C4,12.4871642 4.38272018,12.0644928 4.88266744,12.0067277 L5,12 Z M13.9970707,8 C14.5114088,8 14.9353182,8.38272018 14.9932526,8.88266744 L15,9 C15,9.55228475 14.5621186,10 13.9970707,10 L9.00292933,10 C8.44902676,10 8,9.55613518 8,9 C8,8.44771525 8.43788135,8 9.00292933,8 L13.9970707,8 Z M5,8 C5.51283584,8 5.93550716,8.38272018 5.99327227,8.88266744 L6,9 C6,9.51283584 5.61727982,9.93550716 5.11733256,9.99327227 L5,10 C4.44771525,10 4,9.55613518 4,9 C4,8.48716416 4.38272018,8.06449284 4.88266744,8.00672773 L5,8 Z M14.0044225,4 C14.5149903,4 14.9357924,4.38272018 14.993302,4.88266744 L15,5 C15,5.55228475 14.555163,6 14.0044225,6 L4.9955775,6 C4.44573523,6 4,5.55613518 4,5 C4,4.44771525 4.44483697,4 4.9955775,4 L14.0044225,4 Z"></path>
            </g>
        </g>
    </g>
</svg>