<?xml version="1.0" encoding="UTF-8"?>
<svg width="12px" height="15px" viewBox="0 0 12 15" version="1.1" xmlns="http://www.w3.org/2000/svg" xmlns:xlink="http://www.w3.org/1999/xlink">
    <title>Icon/Notification/16</title>
    <g id="Page-1" stroke="none" stroke-width="1" fill="none" fill-rule="evenodd">
        <g id="Icons" transform="translate(-215.000000, -757.000000)" fill="#0071C4">
            <g id="Icon/Notification/16" transform="translate(215.000000, 757.000000)">
                <path d="M6,0 C6.55228475,0 7,0.442660332 7,0.998956561 L7,1.09963461 C9.28224032,1.56123811 11,3.57291137 11,6.00218626 L11.0005677,11.0000045 C11.55282,11.0016263 12,11.4448834 12,12 C12,12.5522847 11.544239,13 10.9975267,13 L10.9975267,13 L8,13 C8,14.1045695 7.1045695,15 6,15 C4.8954305,15 4,14.1045695 4,13 L4,13 L1.00247329,13 C0.448822582,13 0,12.5561352 0,12 C0,11.4477153 0.455760956,11 1.00247329,11 L1,11 L1,6.00218626 C1,3.58273837 2.72126348,1.56448187 5,1.10038828 L5,0.998956561 C5,0.447248087 5.44386482,0 6,0 Z M6,3 C4.34314575,3 3,4.34314575 3,6 L3,11 L9,11 L9,6 C9,4.34314575 7.65685425,3 6,3 Z"></path>
            </g>
        </g>
    </g>
</svg>