<?xml version="1.0" encoding="UTF-8"?>
<svg width="20px" height="24px" viewBox="0 0 20 24" version="1.1" xmlns="http://www.w3.org/2000/svg" xmlns:xlink="http://www.w3.org/1999/xlink">
    <title>Icon/Notification/24</title>
    <g id="Page-1" stroke="none" stroke-width="1" fill="none" fill-rule="evenodd">
        <g id="Icons" transform="translate(-253.000000, -752.000000)" fill="#0071C4">
            <g id="Icon/Notification/24" transform="translate(253.000000, 752.000000)">
                <path d="M12,2.24309718 C15.4504544,3.0996825 18,6.1207303 18,9.71549704 L18,18 L18.4967494,18 C19.3269718,18 20,18.6657972 20,19.5 C20,20.3284271 19.3345642,21 18.4967494,21 L13,21 C13,22.6568542 11.6568542,24 10,24 C8.34314575,24 7,22.6568542 7,21 L1.5032506,21 C0.673028218,21 0,20.3342028 0,19.5 C0,18.6715729 0.665435791,18 1.5032506,18 L2,18 L2,9.71549704 C2,6.12142845 4.55446179,3.10132794 8,2.24381811 L8,2.00591905 C8,0.898080551 8.88772964,0 10,0 C11.1045695,0 12,0.886554837 12,2.00591905 L12,2.24309718 L12,2.24309718 Z M10,4 C6.6862915,4 4,6.6862915 4,10 L4,18 L16,18 L16,10 C16,6.6862915 13.3137085,4 10,4 Z"></path>
            </g>
        </g>
    </g>
</svg>