<?xml version="1.0" encoding="UTF-8"?>
<svg width="10px" height="16px" viewBox="0 0 10 16" version="1.1" xmlns="http://www.w3.org/2000/svg" xmlns:xlink="http://www.w3.org/1999/xlink">
    <title>Icon/Attach/16</title>
    <g id="Page-1" stroke="none" stroke-width="1" fill="none" fill-rule="evenodd">
        <g id="Icons" transform="translate(-216.000000, -114.000000)" fill="#0071C4" fill-rule="nonzero">
            <g id="Icon/Attach/16" transform="translate(216.000000, 114.000000)">
                <path d="M3,13.971831 C3.55228475,13.971831 4,13.5178099 4,12.9577465 L4,6.01408451 C4,5.4540211 4.44771525,5 5,5 C5.55228475,5 6,5.4540211 6,6.01408451 L6,12.9577465 C6,14.6379367 4.65685425,16 3,16 C1.37547287,16 0.0525320466,14.690569 0.00152629916,13.0557227 C0.000513205448,13.0372772 0,13.0186985 0,13 L0,5 C0,2.23857625 2.23857625,0 5,0 C7.76142375,0 10,2.23857625 10,5 L10,15 C10,15.5522847 9.55228475,16 9,16 C8.44771525,16 8,15.5522847 8,15 L8,5 C8,3.34314575 6.65685425,2 5,2 C3.34314575,2 2,3.34314575 2,5 L2,12.9577467 C2,13.5178099 2.44771525,13.971831 3,13.971831 Z"></path>
            </g>
        </g>
    </g>
</svg>