<?xml version="1.0" encoding="UTF-8"?>
<svg width="10px" height="24px" viewBox="0 0 10 24" version="1.1" xmlns="http://www.w3.org/2000/svg" xmlns:xlink="http://www.w3.org/1999/xlink">
    <title>Icon/Attach/24</title>
    <g id="Page-1" stroke="none" stroke-width="1" fill="none" fill-rule="evenodd">
        <g id="Icons" transform="translate(-258.000000, -110.000000)" fill="#0071C4" fill-rule="nonzero">
            <g id="Icon/Attach/24" transform="translate(258.000000, 110.000000)">
                <path d="M2,20.9577465 C2,21.5178099 2.44771525,21.971831 3,21.971831 C3.55228475,21.971831 4,21.5178099 4,20.9577465 L4,7.01408451 C4,6.4540211 4.44771525,6 5,6 C5.55228475,6 6,6.4540211 6,7.01408451 L6,20.9577465 C6,22.6379367 4.65685425,24 3,24 C1.37547287,24 0.0525320466,22.690569 0.00152629916,21.0557227 C0.000513205447,21.0372772 0,21.0186985 0,21 L0,5 C0,2.23857625 2.23857625,0 5,0 C7.76142375,0 10,2.23857625 10,5 L10,19 C10,19.5522847 9.55228475,20 9,20 C8.44771525,20 8,19.5522847 8,19 L8,5 C8,3.34314575 6.65685425,2 5,2 C3.34314575,2 2,3.34314575 2,5 L2,20.9577467 L2,20.9577465 Z"></path>
            </g>
        </g>
    </g>
</svg>