<?xml version="1.0" encoding="UTF-8"?>
<svg width="16px" height="16px" viewBox="0 0 16 16" version="1.1" xmlns="http://www.w3.org/2000/svg" xmlns:xlink="http://www.w3.org/1999/xlink">
    <title>Icon/Video/Pause/Circle/Fill</title>
    <g id="Page-1" stroke="none" stroke-width="1" fill="none" fill-rule="evenodd">
        <g id="Icons" transform="translate(-430.000000, -945.000000)" fill="#0071C4">
            <g id="Icon/Video/Pause/Circle/Fill" transform="translate(430.000000, 945.000000)">
                <path d="M8,0 C12.418278,0 16,3.581722 16,8 C16,12.418278 12.418278,16 8,16 C3.581722,16 0,12.418278 0,8 C0,3.581722 3.581722,0 8,0 Z M6,5 L5.88266744,5.00666569 C5.38272018,5.06389808 5,5.48267152 5,5.99077797 L5,5.99077797 L5,10.009222 C5,10.5490248 5.44771525,11 6,11 L6,11 L6.11733256,10.9933343 C6.61727982,10.9361019 7,10.5173285 7,10.009222 L7,10.009222 L7,5.99077797 C7,5.45097518 6.55228475,5 6,5 L6,5 Z M10,5 L9.88266744,5.00666569 C9.38272018,5.06389808 9,5.48267152 9,5.99077797 L9,5.99077797 L9,10.009222 C9,10.5490248 9.44771525,11 10,11 L10,11 L10.1173326,10.9933343 C10.6172798,10.9361019 11,10.5173285 11,10.009222 L11,10.009222 L11,5.99077797 C11,5.45097518 10.5522847,5 10,5 L10,5 Z"></path>
            </g>
        </g>
    </g>
</svg>