<?xml version="1.0" encoding="UTF-8"?>
<svg width="16px" height="15px" viewBox="0 0 16 15" version="1.1" xmlns="http://www.w3.org/2000/svg" xmlns:xlink="http://www.w3.org/1999/xlink">
    <title>Icon/Warning/16</title>
    <g id="Page-1" stroke="none" stroke-width="1" fill="none" fill-rule="evenodd">
        <g id="Icons" transform="translate(-299.000000, -271.000000)" fill="#0071C4">
            <g id="Icon/Warning/16" transform="translate(299.000000, 271.000000)">
                <path d="M8.49948544,0.136029742 C8.648963,0.223083883 8.77330271,0.347423593 8.86035685,0.496901145 L15.85658,12.5098658 C16.1345241,12.9871136 15.9729565,13.5993177 15.4957086,13.8772618 C15.3429162,13.9662464 15.1692619,14.0131281 14.9924463,14.0131281 L1,14.0131281 C0.44771525,14.0131281 3.65263375e-14,13.5654128 3.64153152e-14,13.0131281 C3.64153152e-14,12.8363124 0.0468816505,12.6626581 0.135866297,12.5098658 L7.13208944,0.496901145 C7.41003353,0.0196532786 8.02223758,-0.141914351 8.49948544,0.136029742 Z M8,10 C7.44771525,10 7,10.4477153 7,11 C7,11.5522847 7.44771525,12 8,12 C8.55228475,12 9,11.5522847 9,11 C9,10.4477153 8.55228475,10 8,10 Z M9,4 L7,4 L7,9 L9,9 L9,4 Z"></path>
            </g>
        </g>
    </g>
</svg>