<?xml version="1.0" encoding="UTF-8"?>
<svg width="24px" height="21px" viewBox="0 0 24 21" version="1.1" xmlns="http://www.w3.org/2000/svg" xmlns:xlink="http://www.w3.org/1999/xlink">
    <title>Icon/Warning/24</title>
    <g id="Page-1" stroke="none" stroke-width="1" fill="none" fill-rule="evenodd">
        <g id="Icons" transform="translate(-340.000000, -268.000000)" fill="#0071C4">
            <g id="Icon/Warning/24" transform="translate(340.000000, 268.000000)">
                <path d="M12.4969312,0.145843823 C12.6335902,0.228990493 12.7483081,0.343708401 12.8314548,0.480367392 L23.8086081,18.5223011 C24.0956735,18.9941187 23.9459022,19.609315 23.4740846,19.8963804 C23.3174573,19.9916762 23.1376462,20.0420789 22.9543067,20.0420789 L1,20.0420789 C0.44771525,20.0420789 -4.42978987e-14,19.5943637 -4.4408921e-14,19.0420789 C-4.4408921e-14,18.8587394 0.0504027182,18.6789283 0.145698555,18.5223011 L11.1228519,0.480367392 C11.4099173,0.00854973184 12.0251136,-0.141221571 12.4969312,0.145843823 Z M11.9772369,15.0420789 C11.1488098,15.0420789 10.4772369,15.7136518 10.4772369,16.5420789 C10.4772369,17.3705061 11.1488098,18.0420789 11.9772369,18.0420789 C12.805664,18.0420789 13.4772369,17.3705061 13.4772369,16.5420789 C13.4772369,15.7136518 12.805664,15.0420789 11.9772369,15.0420789 Z M13.4772369,6.04207893 L10.4772369,6.04207893 L10.4772369,13.5420789 L13.4772369,13.5420789 L13.4772369,6.04207893 Z"></path>
            </g>
        </g>
    </g>
</svg>