<?xml version="1.0" encoding="UTF-8"?>
<svg width="16px" height="16px" viewBox="0 0 16 16" version="1.1" xmlns="http://www.w3.org/2000/svg" xmlns:xlink="http://www.w3.org/1999/xlink">
    <title>Icon/Dollar/Outline/16</title>
    <g id="Page-1" stroke="none" stroke-width="1" fill="none" fill-rule="evenodd">
        <g id="Icons" transform="translate(-121.000000, -220.000000)" fill="#0071C4">
            <g id="Icon/Dollar/Outline/16" transform="translate(121.000000, 220.000000)">
                <path d="M8,0 C12.418278,0 16,3.581722 16,8 C16,12.418278 12.418278,16 8,16 C3.581722,16 0,12.418278 0,8 C0,3.581722 3.581722,0 8,0 Z M8,2 C4.6862915,2 2,4.6862915 2,8 C2,11.3137085 4.6862915,14 8,14 C11.3137085,14 14,11.3137085 14,8 C14,4.6862915 11.3137085,2 8,2 Z M7.44820222,11.1144381 C7.11942405,11.0601182 6.80566003,10.9650599 6.50690074,10.8292602 C6.20814144,10.6934605 5.95584372,10.5297886 5.75,10.3382396 L6.16168539,9.74215346 C6.19599267,9.69355147 6.24244976,9.65281218 6.30105804,9.61993436 C6.35966633,9.58705655 6.42184735,9.57061788 6.48760298,9.57061788 C6.55621756,9.57061788 6.62626055,9.588486 6.69773407,9.62422275 C6.76920758,9.65995951 6.84711254,9.7035577 6.93145129,9.75501863 C7.01579004,9.80647956 7.10798949,9.85865444 7.20805241,9.91154485 C7.30811533,9.96443525 7.42247124,10.0080334 7.55112357,10.0423407 L7.70979397,8.42132951 C7.50395025,8.3641507 7.29953907,8.29696661 7.09655428,8.21977521 C6.8935695,8.14258381 6.71060005,8.03823405 6.54764044,7.90672278 C6.38468082,7.77521151 6.2524568,7.607966 6.15096441,7.40498122 C6.04947202,7.20199643 5.99872659,6.94755454 5.99872659,6.6416479 C5.99872659,6.41579159 6.04446895,6.19565647 6.13595505,5.98123592 C6.22744115,5.76681538 6.36109462,5.57383978 6.53691946,5.40230335 C6.71274431,5.23076691 6.92930581,5.0899662 7.18661046,4.97989699 C7.44391512,4.86982777 7.73838158,4.8062173 8.07001869,4.78906366 L8.11719097,4.31305243 C8.12576779,4.23300209 8.16150401,4.16081493 8.22440071,4.09648876 C8.2872974,4.0321626 8.36877599,4 8.46883891,4 L8.9577153,4 L8.87194751,4.84481272 C9.1807131,4.90199153 9.44659058,4.99419098 9.66958795,5.12141384 C9.89258532,5.2486367 10.0812726,5.38514906 10.2356554,5.53095503 L9.90973776,6.00696626 C9.86113577,6.07843977 9.81181978,6.13061466 9.76178832,6.16349247 C9.71175686,6.19637029 9.65243473,6.21280895 9.58382016,6.21280895 C9.53807711,6.21280895 9.48661695,6.20280281 9.42943814,6.18279023 C9.37225933,6.16277764 9.30936358,6.13776229 9.24074901,6.10774341 C9.17213443,6.07772453 9.09851782,6.04556194 9.01989695,6.01125465 C8.94127608,5.97694736 8.85765333,5.94692894 8.76902617,5.92119847 L8.61893254,7.44357672 C8.75616168,7.48360189 8.89338877,7.52720008 9.03061792,7.5743726 C9.16784707,7.62154512 9.30007109,7.67586418 9.42729395,7.7373314 C9.5545168,7.79879862 9.67316106,7.86955634 9.78323027,7.94960668 C9.89329948,8.02965701 9.98907256,8.12400064 10.0705524,8.23264038 C10.1520322,8.34128012 10.2156426,8.4663569 10.2613857,8.60787446 C10.3071287,8.74939201 10.3299999,8.91020501 10.3299999,9.09031827 C10.3299999,9.36191762 10.2842576,9.61707424 10.1927715,9.85579578 C10.1012854,10.0945173 9.96691717,10.305361 9.78966285,10.4883332 C9.61240854,10.6713054 9.39513231,10.8206828 9.13782766,10.9364699 C8.88052301,11.052257 8.58605654,11.1230147 8.25441943,11.1487452 L8.20295876,11.6847939 C8.19438194,11.7648442 8.15864572,11.8370314 8.09574902,11.9013575 C8.03285233,11.9656837 7.95137375,11.9978463 7.85131083,11.9978463 L7.36243443,11.9978463 L7.44820222,11.1144381 Z M9.06921343,9.28758418 C9.06921343,9.12462457 9.01703854,8.99454472 8.91268721,8.89734074 C8.80833588,8.80013676 8.67039407,8.71865818 8.49885763,8.65290254 L8.36162917,10.0680711 C8.83335437,9.98516178 9.06921343,9.72500209 9.06921343,9.28758418 Z M7.2509363,6.51299621 C7.2509363,6.68167371 7.30454064,6.81818607 7.41175091,6.9225374 C7.51896118,7.02688874 7.65976189,7.11479984 7.83415727,7.18627336 L7.96280895,5.89117974 C7.83129768,5.91119233 7.7205154,5.94049603 7.63045877,5.97909173 C7.54040214,6.01768743 7.46750025,6.06414451 7.41175091,6.11846438 C7.35600157,6.17278426 7.31526227,6.23353583 7.28953181,6.30072094 C7.26380134,6.36790604 7.2509363,6.43866376 7.2509363,6.51299621 Z"></path>
            </g>
        </g>
    </g>
</svg>