<?xml version="1.0" encoding="UTF-8"?>
<svg width="16px" height="16px" viewBox="0 0 16 16" version="1.1" xmlns="http://www.w3.org/2000/svg" xmlns:xlink="http://www.w3.org/1999/xlink">
    <title>Icon/Phone/Fill/16</title>
    <g id="Page-1" stroke="none" stroke-width="1" fill="none" fill-rule="evenodd">
        <g id="Icons" transform="translate(-384.000000, -756.000000)" fill="#0071C4" fill-rule="nonzero">
            <g id="Icon/Phone/Fill/16" transform="translate(384.000000, 756.000000)">
                <path d="M5.1968213,6.92303485 C5.45719204,7.70939289 5.92861645,8.50400822 6.67172066,9.25726646 C6.68932876,9.27507489 6.68932876,9.27507489 6.70710678,9.29289322 C6.72492511,9.31067124 6.72492511,9.31067124 6.74273354,9.32827934 C7.49599178,10.0713835 8.29060711,10.542808 9.07696515,10.8031787 C9.29198297,10.8743732 9.47945284,10.9223607 9.63267032,10.9531161 L11.2928932,9.29289322 C11.6834175,8.90236893 12.3165825,8.90236893 12.7071068,9.29289322 L15.7071068,12.2928932 C16.0976311,12.6834175 16.0976311,13.3165825 15.7071068,13.7071068 L13.7071068,15.7071068 C13.5195704,15.8946432 13.2652165,16 13,16 L12.5714286,16 C5.62842029,16 0,10.3715797 0,3.42857143 L0,3 C0,2.73478351 0.10535684,2.4804296 0.292893219,2.29289322 L2.29289322,0.292893219 C2.68341751,-0.0976310729 3.31658249,-0.0976310729 3.70710678,0.292893219 L6.70710678,3.29289322 C7.09763107,3.68341751 7.09763107,4.31658249 6.70710678,4.70710678 L5.04688388,6.36732968 C5.07763933,6.52054716 5.12562682,6.70801703 5.1968213,6.92303485 Z"></path>
            </g>
        </g>
    </g>
</svg>