<?xml version="1.0" encoding="UTF-8"?>
<svg width="24px" height="24px" viewBox="0 0 24 24" version="1.1" xmlns="http://www.w3.org/2000/svg" xmlns:xlink="http://www.w3.org/1999/xlink">
    <title>Icon/Phone/Fill/24</title>
    <g id="Page-1" stroke="none" stroke-width="1" fill="none" fill-rule="evenodd">
        <g id="Icons" transform="translate(-426.000000, -752.000000)" fill="#0071C4" fill-rule="nonzero">
            <g id="Icon/Phone/Fill/24" transform="translate(426.000000, 752.000000)">
                <path d="M7.05253936,10.4872418 C7.48849692,11.8038979 8.27453324,13.1288112 9.50591036,14.3770143 C9.5349433,14.4063776 9.5349433,14.4063776 9.56424964,14.4357504 C9.59362242,14.4650567 9.59362242,14.4650567 9.62298567,14.4940896 C10.8711888,15.7254668 12.1961021,16.5115031 13.5127582,16.9474606 C13.9654974,17.097367 14.382027,17.1932843 14.7505239,17.2462924 C14.753965,17.2467874 15.6966595,16.3099401 17.5786075,14.4357504 C17.9691318,14.0452261 18.6022968,14.0452261 18.9928211,14.4357504 L23.7071068,19.1500361 C24.0976311,19.5405604 24.0976311,20.1737253 23.7071068,20.5642496 L20.5642496,23.7071068 C20.3767133,23.8946432 20.1223593,24 19.8571429,24 L19.1836735,24 C8.58882317,24 0,15.4111768 0,4.81632653 L0,4.14285714 C0,3.87764065 0.10535684,3.62328674 0.292893219,3.43575036 L3.43575036,0.292893219 C3.82627465,-0.0976310729 4.45943963,-0.0976310729 4.84996392,0.292893219 L9.56424964,5.00717893 C9.95477393,5.39770322 9.95477393,6.0308682 9.56424964,6.4213925 L6.75151606,9.23412608 C6.80671571,9.61797296 6.90263304,10.0345026 7.05253936,10.4872418 Z"></path>
            </g>
        </g>
    </g>
</svg>