<?xml version="1.0" encoding="UTF-8"?>
<svg width="16px" height="7px" viewBox="0 0 16 7" version="1.1" xmlns="http://www.w3.org/2000/svg" xmlns:xlink="http://www.w3.org/1999/xlink">
    <title>Icon/IRA/16</title>
    <g id="Page-1" stroke="none" stroke-width="1" fill="none" fill-rule="evenodd">
        <g id="Icons" transform="translate(-121.000000, -599.000000)" fill="#0071C4">
            <g id="Icon/IRA/16" transform="translate(121.000000, 599.000000)">
                <path d="M1.40651163,7 L0,7 L0,1.42108547e-14 L1.40651163,1.42108547e-14 L1.40651163,7 Z M4.67868251,4.2648686 L4.67868251,7 L3.34883721,7 L3.34883721,1.42108547e-14 L5.52899252,1.42108547e-14 C6.0167697,1.42108547e-14 6.43450503,0.0492157365 6.78221105,0.147648686 C7.12991708,0.246081636 7.41499878,0.384047061 7.63746472,0.561549101 C7.85993067,0.739051141 8.02306991,0.951243579 8.12688735,1.19813278 C8.23070479,1.44502198 8.28261273,1.71691876 8.28261273,2.01383126 C8.28261273,2.24942488 8.2471835,2.47210591 8.17632397,2.68188105 C8.10546445,2.89165619 8.00329644,3.08206461 7.86981688,3.25311203 C7.73633731,3.42415945 7.5715502,3.57422711 7.37545059,3.7033195 C7.17935099,3.83241189 6.95606445,3.93568426 6.70558428,4.0131397 C6.87366966,4.10673168 7.01868232,4.24066303 7.14062661,4.41493776 L8.93023256,7 L7.73386615,7 C7.61851344,7 7.52046511,6.97740917 7.43971821,6.93222683 C7.35897131,6.8870445 7.29058466,6.82249927 7.2345562,6.73858921 L5.7316827,4.49723375 C5.67565424,4.41332369 5.61385907,4.35361936 5.54629534,4.31811895 C5.47873161,4.28261854 5.37903541,4.2648686 5.24720374,4.2648686 L4.67868251,4.2648686 Z M4.61395335,3.15 L5.41882409,3.15 C5.6615641,3.15 5.87315995,3.12229194 6.05361798,3.066875 C6.23407602,3.01145806 6.38259235,2.93489632 6.49917143,2.8371875 C6.61575052,2.73947868 6.70278428,2.62354234 6.76027533,2.489375 C6.81776639,2.35520766 6.84651149,2.20791747 6.84651149,2.0475 C6.84651149,1.72666506 6.73073263,1.48020919 6.49917143,1.308125 C6.26761024,1.13604081 5.91388586,1.05 5.43798768,1.05 L4.61395335,1.05 L4.61395335,3.15 Z M16,7 L14.9578231,7 C14.8409116,7 14.7448787,6.97176146 14.6697213,6.91528354 C14.5945639,6.85880562 14.5402844,6.78861268 14.5068811,6.70470263 L13.9657508,5.27662517 L10.9644817,5.27662517 L10.4233514,6.70470263 C10.3966288,6.77893075 10.3440194,6.84670324 10.2655217,6.90802213 C10.187024,6.96934102 10.0909911,7 9.97741994,7 L8.93023256,7 L11.7761772,1.42108547e-14 L13.1540553,1.42108547e-14 L16,7 Z M11.3116285,4.2 L13.5441866,4.2 L12.6918434,2.1311828 C12.6531003,2.03942606 12.6103221,1.93118342 12.5635076,1.80645161 C12.5166931,1.68171981 12.4706864,1.54623729 12.4254861,1.4 C12.3802859,1.54623729 12.3358934,1.68243665 12.2923075,1.80860215 C12.2487215,1.93476766 12.2059434,2.04516082 12.1639717,2.13978495 L11.3116285,4.2 Z"></path>
            </g>
        </g>
    </g>
</svg>