<?xml version="1.0" encoding="UTF-8"?>
<svg width="24px" height="11px" viewBox="0 0 24 11" version="1.1" xmlns="http://www.w3.org/2000/svg" xmlns:xlink="http://www.w3.org/1999/xlink">
    <title>Icon/IRA/24</title>
    <g id="Page-1" stroke="none" stroke-width="1" fill="none" fill-rule="evenodd">
        <g id="Icons" transform="translate(-164.000000, -597.000000)" fill="#0071C4">
            <g id="Icon/IRA/24" transform="translate(164.000000, 597.000000)">
                <path d="M2.10976744,11 L0,11 L0,1.42108547e-14 L2.10976744,1.42108547e-14 L2.10976744,11 Z M7.01802377,6.70193638 L7.01802377,11 L5.02325581,11 L5.02325581,1.42108547e-14 L8.29348878,1.42108547e-14 C9.02515454,1.42108547e-14 9.65175754,0.0773390145 10.1733166,0.232019364 C10.6948756,0.386699713 11.1224982,0.603502524 11.4561971,0.882434302 C11.789896,1.16136608 12.0346049,1.49481134 12.190331,1.88278008 C12.3460572,2.27074883 12.4239191,2.69801519 12.4239191,3.16459198 C12.4239191,3.53481052 12.3707752,3.88473786 12.264486,4.21438451 C12.1581967,4.54403115 12.0049447,4.84324439 11.8047253,5.1120332 C11.604506,5.380822 11.3573253,5.6166426 11.0631759,5.81950207 C10.7690265,6.02236155 10.4340967,6.18464669 10.0583764,6.30636238 C10.3105045,6.4534355 10.5280235,6.66389905 10.7109399,6.93775934 L13.3953488,11 L11.6007992,11 C11.4277702,11 11.2806977,10.9645001 11.1595773,10.8934993 C11.038457,10.8224985 10.935877,10.7210703 10.8518343,10.5892116 L8.59752405,7.0670816 C8.51348136,6.93522295 8.42078861,6.84140185 8.31944301,6.78561549 C8.21809742,6.72982914 8.06855311,6.70193638 7.87080561,6.70193638 L7.01802377,6.70193638 Z M6.92093002,4.95 L8.12823614,4.95 C8.49234615,4.95 8.80973992,4.90645877 9.08042698,4.819375 C9.35111403,4.73229123 9.57388852,4.61197993 9.74875715,4.4584375 C9.92362577,4.30489507 10.0541764,4.12270939 10.140413,3.911875 C10.2266496,3.70104061 10.2697672,3.46958459 10.2697672,3.2175 C10.2697672,2.71333081 10.0960989,2.32604302 9.74875715,2.055625 C9.40141536,1.78520698 8.87082879,1.65 8.15698152,1.65 L6.92093002,1.65 L6.92093002,4.95 Z M24,11 L22.4367346,11 C22.2613674,11 22.117318,10.9556252 22.0045819,10.8668741 C21.8918459,10.7781231 21.8104266,10.6678199 21.7603217,10.5359613 L20.9486262,8.29183956 L16.4467226,8.29183956 L15.6350271,10.5359613 C15.5949432,10.6526055 15.5160291,10.7591051 15.3982826,10.8554633 C15.2805361,10.9518216 15.1364866,11 14.9661299,11 L13.3953488,11 L17.6642658,1.42108547e-14 L19.731083,1.42108547e-14 L24,11 Z M16.9674427,6.6 L20.3162799,6.6 L19.0377651,3.34900154 C18.9796505,3.20481239 18.9154832,3.0347168 18.8452614,2.83870968 C18.7750396,2.64270255 18.7060295,2.42980146 18.6382292,2.2 C18.5704288,2.42980146 18.5038402,2.64382901 18.4384612,2.84208909 C18.3730823,3.04034917 18.3089151,3.21382414 18.2459576,3.3625192 L16.9674427,6.6 Z"></path>
            </g>
        </g>
    </g>
</svg>