<?xml version="1.0" encoding="UTF-8"?>
<svg width="16px" height="17px" viewBox="0 0 16 17" version="1.1" xmlns="http://www.w3.org/2000/svg" xmlns:xlink="http://www.w3.org/1999/xlink">
    <title>Icon/Mail/Open/16</title>
    <g id="Page-1" stroke="none" stroke-width="1" fill="none" fill-rule="evenodd">
        <g id="Icons" transform="translate(-28.000000, -703.000000)" fill="#0071C4" fill-rule="nonzero">
            <g id="Icon/Mail/Open/16" transform="translate(28.000000, 703.000000)">
                <path d="M6.42253895e-05,5.98780375 C0.0022989232,5.79037171 0.0628792048,5.5916128 0.186344201,5.41876181 C0.412975711,5.10147769 0.790901914,4.95631268 1.15167968,5.01134062 L2.00007767,5.01287267 L2.00007767,3.01287267 C2.00007767,2.46058792 2.44779292,2.01287267 3.00007767,2.01287267 L3.00007767,2.01287267 L5.20816597,2.01287267 L7.36243322,0.229669196 C7.73238077,-0.0765563987 8.26777457,-0.0765563987 8.63772213,0.229669196 L8.63772213,0.229669196 L10.7919894,2.01287267 L13.0000777,2.01287267 C13.5523624,2.01287267 14.0000777,2.46058792 14.0000777,3.01287267 L14.0000777,3.01287267 L14.0000777,5.01287267 L14.8482963,5.01136799 C15.2091282,4.95626456 15.5871421,5.10142511 15.8138111,5.41876181 C15.939578,5.59483545 16.0000935,5.79779207 16.0001553,5.998845 L16.0000777,6.00845017 L16.0000777,15.0172952 C16.0000777,15.5671374 15.5554468,16.0128727 14.999206,16.0128727 L14.999206,16.0128727 L1.00094933,16.0128727 C0.448183177,16.0128727 7.76722721e-05,15.5680357 7.76722721e-05,15.0172952 L7.76722721e-05,15.0172952 Z M8.58131587,11.8137335 C8.23361835,12.0620888 7.766537,12.0620888 7.41883948,11.8137335 L7.41883948,11.8137335 L2.08,8 L2.00007767,8 L2.00007767,14 L14.0000777,14 L14.0000777,8 L13.919,8 Z M12.0000777,4 L4.00007767,4 L4,6.914 L8.00007767,9.77109639 L12,6.913 L12.0000777,4 Z"></path>
            </g>
        </g>
    </g>
</svg>