<?xml version="1.0" encoding="UTF-8"?>
<svg width="24px" height="24px" viewBox="0 0 24 24" version="1.1" xmlns="http://www.w3.org/2000/svg" xmlns:xlink="http://www.w3.org/1999/xlink">
    <title>Icon/Mail/Open/24</title>
    <g id="Page-1" stroke="none" stroke-width="1" fill="none" fill-rule="evenodd">
        <g id="Icons" transform="translate(-73.000000, -700.000000)" fill="#0071C4">
            <g id="Icon/Mail/Open/24" transform="translate(73.000000, 700.000000)">
                <path d="M12.667361,0.255265591 L18,5.03387539 L20,5.03387539 C20.5522847,5.03387539 21,5.48159064 21,6.03387539 L21,8.07627362 L23.6454778,10.311995 C23.8703062,10.5019999 24,10.7814109 24,11.075774 L24,22.9965122 C24,23.548797 23.5522847,23.9965122 23,23.9965122 L1,23.9965122 C0.44771525,23.9965122 6.76353751e-17,23.548797 0,22.9965122 L0,10.9745398 C-1.05425365e-15,10.6721872 0.136797643,10.3860682 0.372122299,10.1962278 L3,8.07627362 L3,6.03387539 C3,5.48159064 3.44771525,5.03387539 4,5.03387539 L6,5.03387539 L11.332639,0.255265591 C11.7124536,-0.0850885304 12.2875464,-0.0850885304 12.667361,0.255265591 Z M22,12.276 L12.624695,19.7772941 C12.2594764,20.069469 11.7405236,20.069469 11.375305,19.7772941 L11.375305,19.7772941 L2,12.277 L2,21.9964253 L22,21.9964253 L22,12.276 Z M19,6.99642526 L5,6.99642526 L5,12.116 L12,17.7158004 L19,12.115 L19,6.99642526 Z M12,2.49642526 L9,4.99642526 L15,4.99642526 L12,2.49642526 Z"></path>
            </g>
        </g>
    </g>
</svg>