<?xml version="1.0" encoding="UTF-8"?>
<svg width="12px" height="16px" viewBox="0 0 12 16" version="1.1" xmlns="http://www.w3.org/2000/svg" xmlns:xlink="http://www.w3.org/1999/xlink">
    <title>Icon/Lock/Outline/16</title>
    <g id="Page-1" stroke="none" stroke-width="1" fill="none" fill-rule="evenodd">
        <g id="Icons" transform="translate(-301.000000, -651.000000)" fill="#0071C4">
            <g id="Icon/Lock/Outline/16" transform="translate(301.000000, 651.000000)">
                <path d="M6,0 C8.209139,0 10,1.79535615 10,4 L10,6 L10.9975267,6 C11.5511774,6 12,6.4556644 12,6.99539757 L12,15.0046024 C12,15.5543453 11.544239,16 10.9975267,16 L1.00247329,16 C0.448822582,16 0,15.5443356 0,15.0046024 L0,6.99539757 C0,6.44565467 0.455760956,6 1.00247329,6 L2,6 L2,4 C2,1.85780461 3.68819532,0.108921124 5.80074392,0.00489530723 L6,0 Z M10,8 L2,8 L2,14 L10,14 L10,8 Z M6,9 C6.55228475,9 7,9.44335318 7,10.0093689 L7,11.9906311 C7,12.5082716 6.61727982,12.9349029 6.11733256,12.9932092 L6,13 C5.44771525,13 5,12.5566468 5,11.9906311 L5,10.0093689 C5,9.49172835 5.38272018,9.06509707 5.88266744,9.00679076 L6,9 Z M6,2 C4.8954305,2 4,2.8954305 4,4 L4,4 L4,6 L8,6 L8,4 C8,2.8954305 7.1045695,2 6,2 Z"></path>
            </g>
        </g>
    </g>
</svg>