<?xml version="1.0" encoding="UTF-8"?>
<svg width="18px" height="24px" viewBox="0 0 18 24" version="1.1" xmlns="http://www.w3.org/2000/svg" xmlns:xlink="http://www.w3.org/1999/xlink">
    <title>Icon/Lock/Outline/24</title>
    <g id="Page-1" stroke="none" stroke-width="1" fill="none" fill-rule="evenodd">
        <g id="Icons" transform="translate(-343.000000, -647.000000)" fill="#0071C4">
            <g id="Icon/Lock/Outline/24" transform="translate(343.000000, 647.000000)">
                <path d="M9,0 C12.3137085,0 15,2.6862915 15,6 L15,6 L15,9 L17.0066023,9 C17.5552407,9 18,9.44892021 18,10.007484 L18,10.007484 L18,22.992516 C18,23.5489341 17.5550537,24 17.0066023,24 L17.0066023,24 L0.993397683,24 C0.444759292,24 0,23.5510798 0,22.992516 L0,22.992516 L0,10.007484 C0,9.45106594 0.444946289,9 0.993397683,9 L0.993397683,9 L3,9 L3,6 C3,2.6862915 5.6862915,0 9,0 Z M16,11 L2,11 L2,22 L16,22 L16,11 Z M9,13 C9.55228475,13 10,13.4509752 10,13.990778 L10,18.009222 C10,18.5173285 9.61727982,18.9361019 9.11733256,18.9933343 L9,19 C8.44771525,19 8,18.5490248 8,18.009222 L8,13.990778 C8,13.4826715 8.38272018,13.0638981 8.88266744,13.0066657 L9,13 Z M9,2 C6.790861,2 5,3.790861 5,6 L5,6 L5,9 L13,9 L13,6 C13,3.790861 11.209139,2 9,2 Z"></path>
            </g>
        </g>
    </g>
</svg>