<?xml version="1.0" encoding="UTF-8"?>
<svg width="16px" height="15px" viewBox="0 0 16 15" version="1.1" xmlns="http://www.w3.org/2000/svg" xmlns:xlink="http://www.w3.org/1999/xlink">
    <title>Icon/House/Outline/16</title>
    <g id="Page-1" stroke="none" stroke-width="1" fill="none" fill-rule="evenodd">
        <g id="Icons" transform="translate(-384.000000, -544.000000)" fill="#0071C4" fill-rule="nonzero">
            <g id="Icon/House/Outline/16" transform="translate(384.000000, 544.000000)">
                <path d="M13,8.8817842e-16 C13.5522847,8.8817842e-16 14,0.44771525 14,1 L14,3.27 L15.5067698,4.13097564 C15.9863969,4.40479362 16.1532381,5.01558155 15.8794201,5.49520865 C15.7014311,5.80697918 15.3699784,5.99941733 15.0109784,5.99941733 L15.005,5.996 L15.0055754,13.9994173 C15.0055754,14.5517021 14.5578602,14.9994173 14.0055754,14.9994173 L10.0055754,14.9994173 C9.45329067,14.9994173 9.00557542,14.5517021 9.00557542,13.9994173 L9.00557542,10.9994173 C9.00557542,10.4471326 8.55786017,9.99941733 8.00557542,9.99941733 C7.45329067,9.99941733 7.00557542,10.4471326 7.00557542,10.9994173 L7.00557542,13.9994173 C7.00557542,14.5517021 6.55786017,14.9994173 6.00557542,14.9994173 L2.00557542,14.9994173 C1.45329067,14.9994173 1.00557542,14.5517021 1.00557542,13.9994173 L1.001,5.999 L0.888873017,5.9926896 C0.390847565,5.93492449 -2.30926389e-14,5.51225317 -2.30926389e-14,4.99941733 C-2.30926389e-14,4.64041737 0.192438149,4.3089647 0.504208681,4.13097564 L7.5096979,0.131558311 C7.81695277,-0.0438527702 8.19402567,-0.0438527702 8.50128054,0.131558311 L12,2.129 L12,1 C12,0.44771525 12.4477153,8.8817842e-16 13,8.8817842e-16 Z M8.00557542,2.24941733 L3.001,4.93 L3.00557542,12.9994173 L5.00557542,12.9994173 L5.00557542,10.9994173 C5.00557542,9.34256308 6.34872117,7.99941733 8.00557542,7.99941733 C9.66242967,7.99941733 11.0055754,9.34256308 11.0055754,10.9994173 L11.0055754,12.9994173 L13.0055754,12.9994173 L13.005,4.926 L8.00557542,2.24941733 Z"></path>
            </g>
        </g>
    </g>
</svg>