<?xml version="1.0" encoding="UTF-8"?>
<svg width="24px" height="24px" viewBox="0 0 24 24" version="1.1" xmlns="http://www.w3.org/2000/svg" xmlns:xlink="http://www.w3.org/1999/xlink">
    <title>Icon/House/Outline/24</title>
    <g id="Page-1" stroke="none" stroke-width="1" fill="none" fill-rule="evenodd">
        <g id="Icons" transform="translate(-426.000000, -539.000000)" fill="#0071C4" fill-rule="nonzero">
            <g id="Icon/House/Outline/24" transform="translate(426.000000, 539.000000)">
                <path d="M4.03624406,7.25401491 L4.0321818,9.00464091 L4.00202158,22 L6.99865332,22 L6.99865332,17 C6.99865332,15.3432127 8.34166507,14 9.99850368,14 L13.9979052,14 C15.6547438,14 16.9977555,15.3432127 16.9977555,17 L16.9977555,22 L19.9969429,22 L20.0003986,7.28232664 L20,2 L18,2 L18,6.00466284 L14.9260432,4.04798168 L11.9999679,2.18543224 L4.03624406,7.25401491 Z M16,1 C16,0.68719428 16.1436234,0.4079336 16.3685234,0.224564666 C16.5407033,0.0841803577 16.760521,0 17,0 L21,0 C21.5522847,0 22,0.44771525 22,1 L22,6.17999983 L23.5351492,7.1500001 C24.3790619,7.68711582 23.9986518,9 22.9983541,9 L22,9 L21.9967081,23 C21.9967081,23.5522847 21.5490598,24 20.9968577,24 L15.9976059,24 C15.4454038,24 14.9977555,23.5522847 14.9977555,23 L14.9977555,17 C14.9977555,16.4477153 14.5501073,16 13.9979052,16 L9.99850368,16 C9.44630157,16 8.99865332,16.4477153 8.99865332,17 L8.99865332,23 C8.99865332,23.5522847 8.55100506,24 7.99880295,24 L2.99955111,24 C2.44734899,24 1.99970074,23.5522847 1.99970074,23 L2.03218718,9 L0.925551988,8.9974321 C-0.0174466013,8.93316605 -0.357312463,7.67961161 0.464850789,7.15633851 L11.4632048,0.156338512 C11.7907222,-0.0521128374 12.2092778,-0.0521128374 12.5367952,0.156338512 L14,1.08771964 L16,2.36078969 L16,1 Z"></path>
            </g>
        </g>
    </g>
</svg>