<?xml version="1.0" encoding="UTF-8"?>
<svg width="16px" height="12px" viewBox="0 0 16 12" version="1.1" xmlns="http://www.w3.org/2000/svg" xmlns:xlink="http://www.w3.org/1999/xlink">
    <title>Icon/Video/Rewind/Fill</title>
    <g id="Page-1" stroke="none" stroke-width="1" fill="none" fill-rule="evenodd">
        <g id="Icons" transform="translate(-255.000000, -993.000000)" fill="#0071C4">
            <g id="Icon/Video/Rewind/Fill" transform="translate(255.000000, 993.000000)">
                <path d="M9,0 C9.55228475,0 10,0.44771525 10,1 C10,1.36378233 9.80575091,1.68219536 9.51531779,1.85717402 L2.88679623,6 L9.51531779,10.142826 C9.80575091,10.3178046 10,10.6362177 10,11 C10,11.5522847 9.55228475,12 9,12 C8.79978297,12 8.61330893,11.9411593 8.45692691,11.839827 L0.484682211,6.85717402 C0.194249089,6.68219536 0,6.36378233 0,6 C0,5.63621767 0.194249089,5.31780464 0.484682211,5.14282598 L8.45692691,0.160173039 C8.61330892,0.0588406979 8.79978297,0 9,0 Z M14.4495326,0.249285062 C14.8026983,-0.0831647351 15.3743228,-0.0840780996 15.73182,0.252449121 C15.9085248,0.418788756 15.9967673,0.637049998 15.9977252,0.854917416 L15.9977252,0.854917416 L15.9970505,3.29000847 C15.9970153,3.3806093 15.9969796,3.47277296 15.9969438,3.56632552 L15.9960173,6.6156384 C15.995998,6.71957553 15.9959804,6.82316222 15.9959649,6.92622452 L15.9959453,8.68714284 C15.995961,8.77765091 15.9959799,8.86659099 15.9960022,8.95378914 L15.9968133,10.297658 C15.9968835,10.3576913 15.9969582,10.4149392 15.9970378,10.4692276 L15.9978881,10.873221 C15.9983281,11.0130856 15.9988541,11.0972498 15.9994787,11.1145817 C16.0076959,11.3425817 15.9187754,11.5736958 15.73182,11.7496848 C15.3767979,12.083882 14.7991299,12.0819395 14.4495326,11.7528488 L14.4495326,11.7528488 L6,6 Z"></path>
            </g>
        </g>
    </g>
</svg>