<?xml version="1.0" encoding="UTF-8"?>
<svg width="16px" height="15px" viewBox="0 0 16 15" version="1.1" xmlns="http://www.w3.org/2000/svg" xmlns:xlink="http://www.w3.org/1999/xlink">
    <title>Icon/Star/Fill/16</title>
    <g id="Page-1" stroke="none" stroke-width="1" fill="none" fill-rule="evenodd">
        <g id="Icons" transform="translate(-121.000000, -898.000000)" fill="#0071C4" fill-rule="nonzero">
            <g id="Icon/Star/Fill/16" transform="translate(121.000000, 898.000000)">
                <path d="M5.25769325,4.51032964 L7.31012368,0.430813298 C7.43140093,0.176319936 7.69471004,0 8,0 C8.30528996,0 8.56859907,0.176319936 8.68987632,0.430813298 L10.7423067,4.51032964 L15.3316807,5.16451051 C15.6158917,5.19901368 15.8682029,5.3901828 15.9625427,5.67500393 C16.0568825,5.95982506 15.9673052,6.25996589 15.7580477,6.45175461 L12.4371455,9.62721523 L12.4371455,9.62721523 L13.2211042,14.1110376 C13.275479,14.3868551 13.1681068,14.681324 12.921122,14.8573532 C12.6741372,15.0333823 12.3554664,15.0425596 12.1048609,14.9065982 L8,12.7896244 L3.89513914,14.9065982 C3.64453364,15.0425596 3.32586276,15.0333823 3.078878,14.8573532 C2.83189323,14.681324 2.72452101,14.3868551 2.77889581,14.1110376 L3.56285447,9.62721523 L0.241952282,6.45175461 C0.0326947668,6.25996589 -0.0568824518,5.95982506 0.0374573341,5.67500393 C0.13179712,5.3901828 0.384108319,5.19901368 0.668319294,5.16451051 L5.25769325,4.51032964 L5.25769325,4.51032964 Z"></path>
            </g>
        </g>
    </g>
</svg>