<?xml version="1.0" encoding="UTF-8"?>
<svg width="16px" height="16px" viewBox="0 0 16 16" version="1.1" xmlns="http://www.w3.org/2000/svg" xmlns:xlink="http://www.w3.org/1999/xlink">
    <title>Icon/Bank/Fill/16</title>
    <g id="Page-1" stroke="none" stroke-width="1" fill="none" fill-rule="evenodd">
        <g id="Icons" transform="translate(-384.000000, -271.000000)" fill="#0071C4" fill-rule="nonzero">
            <g id="Icon/Bank/Fill/16" transform="translate(384.000000, 271.000000)">
                <path d="M15.0016719,14 C15.5539566,14 16.0016719,14.4477153 16.0016719,15 C16.0016719,15.5522847 15.5539566,16 15.0016719,16 L1.00167186,16 C0.44938711,16 0.00167185976,15.5522847 0.00167185976,15 C0.00167185976,14.4477153 0.44938711,14 1.00167186,14 L15.0016719,14 Z M6.00167186,7 C6.55395661,7 7.00167186,7.44771525 7.00167186,8 L7.00167186,12 C7.00167186,12.5522847 6.55395661,13 6.00167186,13 C5.44938711,13 5.00167186,12.5522847 5.00167186,12 L5.00167186,8 C5.00167186,7.44771525 5.44938711,7 6.00167186,7 Z M10.0016719,7 C10.5539566,7 11.0016719,7.44771525 11.0016719,8 L11.0016719,12 C11.0016719,12.5522847 10.5539566,13 10.0016719,13 C9.44938711,13 9.00167186,12.5522847 9.00167186,12 L9.00167186,8 C9.00167186,7.44771525 9.44938711,7 10.0016719,7 Z M14.0016719,7 C14.5539566,7 15.0016719,7.44771525 15.0016719,8 L15.0016719,12 C15.0016719,12.5522847 14.5539566,13 14.0016719,13 C13.4493871,13 13.0016719,12.5522847 13.0016719,12 L13.0016719,8 C13.0016719,7.44771525 13.4493871,7 14.0016719,7 Z M2.00167186,7 C2.55395661,7 3.00167186,7.44771525 3.00167186,8 L3.00167186,12 C3.00167186,12.5522847 2.55395661,13 2.00167186,13 C1.44938711,13 1.00167186,12.5522847 1.00167186,12 L1.00167186,8 C1.00167186,7.44771525 1.44938711,7 2.00167186,7 Z M8.4978108,0.131756858 L15.4978108,4.13175686 C16.3881618,4.64052887 16.0271346,6 15.0016719,6 L1.00167186,6 C-0.0237909234,6 -0.384818108,4.64052887 0.505532921,4.13175686 L7.50553292,0.131756858 C7.81296559,-0.0439189526 8.19037813,-0.0439189526 8.4978108,0.131756858 Z"></path>
            </g>
        </g>
    </g>
</svg>