<?xml version="1.0" encoding="UTF-8"?>
<svg width="24px" height="24px" viewBox="0 0 24 24" version="1.1" xmlns="http://www.w3.org/2000/svg" xmlns:xlink="http://www.w3.org/1999/xlink">
    <title>Icon/Bank/Fill/24</title>
    <g id="Page-1" stroke="none" stroke-width="1" fill="none" fill-rule="evenodd">
        <g id="Icons" transform="translate(-425.000000, -267.000000)" fill="#0071C4">
            <g id="Icon/Bank/Fill/24" transform="translate(425.000000, 267.000000)">
                <path d="M23,22 C23.5522847,22 24,22.4477153 24,23 C24,23.5522847 23.5522847,24 23,24 L1,24 C0.44771525,24 -6.21724894e-14,23.5522847 -6.21724894e-14,23 C-6.21724894e-14,22.4477153 0.44771525,22 1,22 L23,22 Z M2,10 C2.55228475,10 3,10.4477153 3,11 L3,20 C3,20.5522847 2.55228475,21 2,21 C1.44771525,21 1,20.5522847 1,20 L1,11 C1,10.4477153 1.44771525,10 2,10 Z M7,10 C7.55228475,10 8,10.4477153 8,11 L8,20 C8,20.5522847 7.55228475,21 7,21 C6.44771525,21 6,20.5522847 6,20 L6,11 C6,10.4477153 6.44771525,10 7,10 Z M12,10 C12.5522847,10 13,10.4477153 13,11 L13,20 C13,20.5522847 12.5522847,21 12,21 C11.4477153,21 11,20.5522847 11,20 L11,11 C11,10.4477153 11.4477153,10 12,10 Z M17,10 C17.5522847,10 18,10.4477153 18,11 L18,20 C18,20.5522847 17.5522847,21 17,21 C16.4477153,21 16,20.5522847 16,20 L16,11 C16,10.4477153 16.4477153,10 17,10 Z M22,10 C22.5522847,10 23,10.4477153 23,11 L23,20 C23,20.5522847 22.5522847,21 22,21 C21.4477153,21 21,20.5522847 21,20 L21,11 C21,10.4477153 21.4477153,10 22,10 Z M11.4649204,0.156338512 C11.7924868,-0.0521128374 12.2111049,-0.0521128374 12.5386713,0.156338512 L12.5386713,0.156338512 L23.5386713,7.15633851 C24.3827103,7.69345424 24.0022433,9 23.0017958,9 L23.0017958,9 L1.00179585,9 C0.00134837955,9 -0.379118644,7.69345424 0.464920356,7.15633851 L0.464920356,7.15633851 Z"></path>
            </g>
        </g>
    </g>
</svg>