<?xml version="1.0" encoding="UTF-8"?>
<svg width="14px" height="16px" viewBox="0 0 14 16" version="1.1" xmlns="http://www.w3.org/2000/svg" xmlns:xlink="http://www.w3.org/1999/xlink">
    <title>Icon/Share/16</title>
    <g id="Page-1" stroke="none" stroke-width="1" fill="none" fill-rule="evenodd">
        <g id="Icons" transform="translate(-385.000000, -853.000000)" fill="#0071C4">
            <g id="Icon/Share/16" transform="translate(385.000000, 853.000000)">
                <path d="M10.7959326,3.59708324 C11.1308909,3.85001151 11.5479296,4 12,4 C13.1045695,4 14,3.1045695 14,2 C14,0.8954305 13.1045695,0 12,0 C10.8954305,0 10,0.8954305 10,2 C10,2.10576536 10.0082098,2.20961322 10.0240269,2.31094107 L3.20406742,6.40291676 C2.86910911,6.14998849 2.4520704,6 2,6 C0.8954305,6 0,6.8954305 0,8 C0,9.1045695 0.8954305,10 2,10 C2.4520704,10 2.86910911,9.85001151 3.20406742,9.59708324 L10.0240269,13.6890589 C10.0082098,13.7903868 10,13.8942346 10,14 C10,15.1045695 10.8954305,16 12,16 C13.1045695,16 14,15.1045695 14,14 C14,12.8954305 13.1045695,12 12,12 C11.5479296,12 11.1308909,12.1499885 10.7959326,12.4029168 L3.9759731,8.31094107 C3.9917902,8.20961322 4,8.10576536 4,8 C4,7.89423464 3.9917902,7.79038678 3.9759731,7.68905893 L10.7959326,3.59708324 Z"></path>
            </g>
        </g>
    </g>
</svg>