<?xml version="1.0" encoding="UTF-8"?>
<svg width="20px" height="22px" viewBox="0 0 20 22" version="1.1" xmlns="http://www.w3.org/2000/svg" xmlns:xlink="http://www.w3.org/1999/xlink">
    <title>Icon/Share/24</title>
    <g id="Page-1" stroke="none" stroke-width="1" fill="none" fill-rule="evenodd">
        <g id="Icons" transform="translate(-428.000000, -850.000000)" fill="#0071C4">
            <g id="Icon/Share/24" transform="translate(428.000000, 850.000000)">
                <path d="M17,0 C18.6568542,-3.04359188e-16 20,1.34314575 20,3 C20,4.65685425 18.6568542,6 17,6 C16.2292669,6 15.5264175,5.70935521 14.9950756,5.2316893 L5.9362513,10.3818746 C5.97803271,10.5813502 6,10.7881097 6,11 C6,11.1564115 5.98803007,11.3100272 5.96495627,11.4599812 L15.0526343,16.7178717 C15.5766883,16.2702629 16.2567825,16 17,16 C18.6568542,16 20,17.3431458 20,19 C20,20.6568542 18.6568542,22 17,22 C15.3431458,22 14,20.6568542 14,19 C14,18.8114956 14.0173859,18.6270519 14.0506417,18.448185 L5.01611725,13.2215765 C4.48347205,13.7052498 3.77615732,14 3,14 C1.34314575,14 2.02906125e-16,12.6568542 0,11 C-2.02906125e-16,9.34314575 1.34314575,8 3,8 C3.71765458,8 4.37645346,8.25199125 4.89274134,8.67231846 L14.0375357,3.47589167 C14.0128324,3.32089916 14,3.16194816 14,3 C14,1.34314575 15.3431458,3.04359188e-16 17,0 Z"></path>
            </g>
        </g>
    </g>
</svg>