<?xml version="1.0" encoding="UTF-8"?>
<svg width="16px" height="14px" viewBox="0 0 16 14" version="1.1" xmlns="http://www.w3.org/2000/svg" xmlns:xlink="http://www.w3.org/1999/xlink">
    <title>Icon/House/Fill/16</title>
    <g id="Page-1" stroke="none" stroke-width="1" fill="none" fill-rule="evenodd">
        <g id="Icons" transform="translate(-298.000000, -544.000000)" fill="#0071C4" fill-rule="nonzero">
            <g id="Icon/House/Fill/16" transform="translate(298.000000, 544.000000)">
                <path d="M2.00167186,6 L1.00167186,6 C-0.0237909234,6 -0.384818108,4.64052887 0.505532921,4.13175686 L7.50553292,0.131756858 C7.81296559,-0.0439189526 8.19037813,-0.0439189526 8.4978108,0.131756858 L12.0016719,2.13396318 L12.0016719,1 C12.0016719,0.44771525 12.4493871,0 13.0016719,0 C13.5539566,0 14.0016719,0.44771525 14.0016719,1 L14.0016719,3 C14.0016719,3.08909161 13.9900212,3.17546207 13.9681604,3.25767093 L15.4978108,4.13175686 C16.3881618,4.64052887 16.0271346,6 15.0016719,6 L14.0016719,6 L14.0016719,13 C14.0016719,13.5522847 13.5539566,14 13.0016719,14 L11.0016719,14 C10.4493871,14 10.0016719,13.5522847 10.0016719,13 L10.0016719,10 C10.0016719,9.44771525 9.55395661,9 9.00167186,9 L7.00167186,9 C6.44938711,9 6.00167186,9.44771525 6.00167186,10 L6.00167186,13 C6.00167186,13.5522847 5.55395661,14 5.00167186,14 L3.00167186,14 C2.44938711,14 2.00167186,13.5522847 2.00167186,13 L2.00167186,6 Z"></path>
            </g>
        </g>
    </g>
</svg>