<?xml version="1.0" encoding="UTF-8"?>
<svg width="24px" height="24px" viewBox="0 0 24 24" version="1.1" xmlns="http://www.w3.org/2000/svg" xmlns:xlink="http://www.w3.org/1999/xlink">
    <title>Icon/House/Fill/24</title>
    <g id="Page-1" stroke="none" stroke-width="1" fill="none" fill-rule="evenodd">
        <g id="Icons" transform="translate(-339.000000, -539.000000)" fill="#0071C4" fill-rule="nonzero">
            <g id="Icon/House/Fill/24" transform="translate(339.000000, 539.000000)">
                <path d="M18,3.63172948 L12.5386713,0.156338512 C12.2111049,-0.0521128374 11.7924868,-0.0521128374 11.4649204,0.156338512 L0.464920356,7.15633851 C-0.379118644,7.69345424 0.00134837955,9 1.00179585,9 L23.0017958,9 C24.0022433,9 24.3827103,7.69345424 23.5386713,7.15633851 L22,6.17718402 L22,1.68736402 C22,1.13507927 21.5522847,0.687364024 21,0.687364024 L19,0.687364024 C18.4477153,0.687364024 18,1.13507927 18,1.68736402 L18,3.63172948 L18,3.63172948 Z M2,9 L22,9 L22,23 C22,23.5522847 21.5522847,24 21,24 L16,24 C15.4477153,24 15,23.5522847 15,23 L15,18 C15,17.4477153 14.5522847,17 14,17 L10,17 C9.44771525,17 9,17.4477153 9,18 L9,23 C9,23.5522847 8.55228475,24 8,24 L3,24 C2.44771525,24 2,23.5522847 2,23 L2,9 Z"></path>
            </g>
        </g>
    </g>
</svg>