<?xml version="1.0" encoding="UTF-8"?>
<svg width="16px" height="12px" viewBox="0 0 16 12" version="1.1" xmlns="http://www.w3.org/2000/svg" xmlns:xlink="http://www.w3.org/1999/xlink">
    <title>Icon/Audio/16</title>
    <g id="Page-1" stroke="none" stroke-width="1" fill="none" fill-rule="evenodd">
        <g id="Icons" transform="translate(-384.000000, -115.000000)" fill="#0071C4">
            <g id="Icon/Audio/16" transform="translate(384.000000, 115.000000)">
                <path d="M12.3232402,0.263801642 C12.7298344,-0.109962485 13.3624397,-0.0833484751 13.7362039,0.323245698 C16.6998811,3.54724125 16.6998811,8.45276978 13.7362039,11.6767653 C13.3624397,12.0833595 12.7298344,12.1099735 12.3232402,11.7362094 C11.916646,11.3624453 11.890032,10.7298399 12.2637961,10.3232457 C14.524017,7.86449545 14.524017,4.13551558 12.2637961,1.67676534 C11.890032,1.27017116 11.916646,0.63756577 12.3232402,0.263801642 Z M7.77672418,0.373214046 C7.92117094,0.55134679 8,0.773716451 8,1.00305493 L8,10.9969934 C8,11.5492782 7.55228475,11.9969934 7,11.9969934 C6.77066152,11.9969934 6.54829186,11.9181644 6.37015911,11.7737176 L3,9.04087622 L1,9.04087622 C0.44771525,9.04087622 4.73434309e-14,8.59316097 6.48370246e-14,8.04087622 L6.48370246e-14,3.95917214 C4.40468861e-13,3.40688739 0.44771525,2.95917214 1,2.95917214 L3,2.95917214 L6.37015911,0.226330747 C6.79913204,-0.121520769 7.42887267,-0.0557588763 7.77672418,0.373214046 Z M9.27257392,2.82963004 C9.66309821,2.43910574 10.2962632,2.43910574 10.6867875,2.82963004 C12.4377375,4.58058007 12.4377375,7.41943097 10.6867875,9.170381 C10.2962632,9.56090529 9.66309821,9.56090529 9.27257392,9.170381 C8.88204962,8.77985671 8.88204962,8.14669173 9.27257392,7.75616744 C10.2424754,6.78626599 10.2424754,5.21374504 9.27257392,4.2438436 C8.88204962,3.85331931 8.88204962,3.22015433 9.27257392,2.82963004 Z"></path>
            </g>
        </g>
    </g>
</svg>