<?xml version="1.0" encoding="UTF-8"?>
<svg width="24px" height="18px" viewBox="0 0 24 18" version="1.1" xmlns="http://www.w3.org/2000/svg" xmlns:xlink="http://www.w3.org/1999/xlink">
    <title>Icon/Audio/24</title>
    <g id="Page-1" stroke="none" stroke-width="1" fill="none" fill-rule="evenodd">
        <g id="Icons" transform="translate(-425.000000, -112.000000)" fill="#0071C4">
            <g id="Icon/Audio/24" transform="translate(425.000000, 112.000000)">
                <path d="M10.8001992,0.400655573 C10.9299038,0.573706995 11.0000128,0.784142991 11.0000128,1.00040686 L11.0000128,16.9995899 C11.0000128,17.5518747 10.5522975,17.9995899 10.0000128,17.9995899 C9.75212338,17.9995899 9.51306947,17.9075191 9.32922293,17.7412374 L3,12.0167139 L1,12.0167139 C0.44771525,12.0167139 -1.0701528e-14,11.5689987 -1.0658141e-14,11.0167139 L-1.0658141e-14,5.9973085 C-1.0235249e-14,5.44502375 0.44771525,4.9973085 1,4.9973085 L3,4.9973085 L9.40026148,0.200220381 C9.84219227,-0.131013107 10.4689658,-0.0412752147 10.8001992,0.400655573 Z M19.3471762,0.242507129 C19.7655373,-0.118037507 20.3969651,-0.0711680029 20.7575098,0.347193097 L20.7575098,0.347193097 L21.0037391,0.632907383 C22.9699201,2.91438268 24.0187037,5.94673631 23.9997491,9.08304538 C23.9811392,12.1623198 22.934338,15.1269392 21.0037391,17.3671264 L21.0037391,17.3671264 L20.7575098,17.6528407 C20.3969651,18.0712018 19.7655373,18.1180713 19.3471762,17.7575267 C18.9288151,17.3969821 18.8819456,16.7655542 19.2424902,16.3471931 L19.2424902,16.3471931 L19.4887195,16.0614788 C21.0998044,14.1920425 21.9839692,11.6880216 21.9997856,9.07095841 C22.0158983,6.40488329 21.1297391,3.8427264 19.4887195,1.93855501 L19.4887195,1.93855501 L19.2424902,1.65284072 C18.8819456,1.23447962 18.9288151,0.603051766 19.3471762,0.242507129 Z M16.3232402,3.26381303 C16.7298344,2.89004891 17.3624397,2.91666292 17.7362039,3.32325709 L17.7362039,3.32325709 L17.9003567,3.50182852 C20.6998811,6.54725265 20.6998811,11.4527812 17.9003567,14.4982053 L17.9003567,14.4982053 L17.7362039,14.6767767 C17.3624397,15.0833709 16.7298344,15.1099849 16.3232402,14.7362208 C15.916646,14.3624567 15.890032,13.7298513 16.2637961,13.3232571 L16.2637961,13.3232571 L16.427949,13.1446857 C18.524017,10.8645068 18.524017,7.13552698 16.427949,4.85534816 L16.427949,4.85534816 L16.2637961,4.67677673 C15.890032,4.27018256 15.916646,3.63757716 16.3232402,3.26381303 Z M13.2928932,5.29291013 C13.6834175,4.90238584 14.3165825,4.90238584 14.7071068,5.29291013 C16.6006018,7.18640511 16.6005821,10.8136484 14.7071068,12.7071237 C14.3165825,13.097648 13.6834175,13.097648 13.2928932,12.7071237 C12.9023689,12.3165994 12.9023689,11.6834344 13.2928932,11.2929101 C14.4053234,10.1804799 14.4053362,7.81956666 13.2928932,6.70712369 C12.9023689,6.3165994 12.9023689,5.68343442 13.2928932,5.29291013 Z"></path>
            </g>
        </g>
    </g>
</svg>