<?xml version="1.0" encoding="UTF-8"?>
<svg width="17px" height="16px" viewBox="0 0 17 16" version="1.1" xmlns="http://www.w3.org/2000/svg" xmlns:xlink="http://www.w3.org/1999/xlink">
    <title>Icon/Map/Fill/16</title>
    <g id="Page-1" stroke="none" stroke-width="1" fill="none" fill-rule="evenodd">
        <g id="Icons" transform="translate(-120.000000, -703.000000)" fill="#0071C4">
            <g id="Icon/Map/Fill/16" transform="translate(120.000000, 703.000000)">
                <path d="M6,8.119 L7.82938516,11.7768043 L10,10.039 L10,16.007 L6.00375009,13.8753335 L6,13.876 L6,8.119 Z M-1.77635684e-15,5.586 L2.96542918,9.82250995 L5,7.38 L5,14.221 L0,15.9432919 L-1.77635684e-15,5.586 Z M13.0355709,7.61185566 L16.01,9.47 L16.0100002,13.8753335 L11,15.657 L11,9.239 L13.0355709,7.61185566 Z M6.00375009,4.08562073e-14 L10,2.131 L10,8.759 L8.17061484,10.2231957 L6,5.882 L6,0.001 L6.00375009,4.08562073e-14 Z M16.0100002,4.08562073e-14 L16.01,8.292 L12.9644291,6.38814434 L11,7.959 L11,1.781 L16.0100002,4.08562073e-14 Z M5,0.345 L5,5.818 L3.03457082,8.17749005 L-1.77635684e-15,3.842 L0,2.06795836 L5,0.345 Z"></path>
            </g>
        </g>
    </g>
</svg>