<?xml version="1.0" encoding="UTF-8"?>
<svg width="24px" height="24px" viewBox="0 0 24 24" version="1.1" xmlns="http://www.w3.org/2000/svg" xmlns:xlink="http://www.w3.org/1999/xlink">
    <title>Icon/Map/Fill/24</title>
    <g id="Page-1" stroke="none" stroke-width="1" fill="none" fill-rule="evenodd">
        <g id="Icons" transform="translate(-164.000000, -700.000000)" fill="#0071C4">
            <g id="Icon/Map/Fill/24" transform="translate(164.000000, 700.000000)">
                <path d="M9.666,11.747 L13.3182807,17.0595325 L15,15.836 L15,24 L9.666,21.155 L9.666,11.747 Z M7.666,9.567 L7.666,21.259 L0,23.9 L0,10.758 L4.46144733,13.3978194 L7.666,9.567 Z M19.0348102,12.9020565 L24,15.957 L24,20.8 L17,23.289 L17,14.381 L19.0348102,12.9020565 Z M9.666,0.355 L15,3.2 L15,13.981 L13.6817193,14.9404675 L9.666,9.1 L9.666,0.355 Z M24,0 L24,14.196 L18.9651898,11.0979435 L17,12.526 L17,2.489 L24,0 Z M7.666,0.459 L7.666,7.23 L4.12859913,11.4581376 L0,9.015 L0,3.1 L7.666,0.459 Z"></path>
            </g>
        </g>
    </g>
</svg>