<?xml version="1.0" encoding="UTF-8"?>
<svg width="16px" height="12px" viewBox="0 0 16 12" version="1.1" xmlns="http://www.w3.org/2000/svg" xmlns:xlink="http://www.w3.org/1999/xlink">
    <title>Icon/Chat/Feedback/16</title>
    <g id="Page-1" stroke="none" stroke-width="1" fill="none" fill-rule="evenodd">
        <g id="Icons" transform="translate(-28.000000, -328.000000)" fill="#0071C4" fill-rule="nonzero">
            <g id="Icon/Chat/Feedback/16" transform="translate(28.000000, 328.000000)">
                <path d="M11.7927161,7.9219496 L12.1559148,7.76984221 C13.2631358,7.30613883 14,6.22030968 14,5 C14,3.34618032 12.6557554,2 11.0033142,2 L4.99668583,2 C3.34461797,2 2,3.3446759 2,5 C2,6.65381968 3.34424456,8 4.99668583,8 L8.4603598,8 L10.0875127,9.62715293 L11.7927161,7.9219496 Z M10.7923208,11.750772 C10.403066,12.1400268 9.76465983,12.1327272 9.37955379,11.7476211 L7.63193268,10 L4.99668583,10 C2.23709245,10 0,7.75580481 0,5 C0,2.23857625 2.24157855,8.8817842e-15 4.99668583,8.8817842e-15 L11.0033142,8.8817842e-15 C13.7629076,8.8817842e-15 16,2.24419519 16,5 C16,7.07793887 14.7307318,8.85982134 12.9284965,9.61459625 L10.7923208,11.750772 Z M5,4 L7,4 C7.55228475,4 8,4.44771525 8,5 C8,5.55228475 7.55228475,6 7,6 L5,6 C4.44771525,6 4,5.55228475 4,5 C4,4.44771525 4.44771525,4 5,4 Z M10,4 L11,4 C11.5522847,4 12,4.44771525 12,5 C12,5.55228475 11.5522847,6 11,6 L10,6 C9.44771525,6 9,5.55228475 9,5 C9,4.44771525 9.44771525,4 10,4 Z"></path>
            </g>
        </g>
    </g>
</svg>