<?xml version="1.0" encoding="UTF-8"?>
<svg width="24px" height="18px" viewBox="0 0 24 18" version="1.1" xmlns="http://www.w3.org/2000/svg" xmlns:xlink="http://www.w3.org/1999/xlink">
    <title>Icon/Chat/Feedback/24</title>
    <g id="Page-1" stroke="none" stroke-width="1" fill="none" fill-rule="evenodd">
        <g id="Icons" transform="translate(-73.000000, -325.000000)" fill="#0071C4" fill-rule="nonzero">
            <g id="Icon/Chat/Feedback/24" transform="translate(73.000000, 325.000000)">
                <path d="M17.7852545,12.8497323 L18.2304635,12.7001679 C20.4468246,11.9555994 21.9736901,9.86819881 21.9736901,7.49177815 C21.9736901,4.46362051 19.5136122,2 16.4868777,2 L7.48681235,2 C4.46094912,2 2,4.46105515 2,7.49177815 C2,10.5199358 4.4600779,12.9835563 7.48681235,12.9835563 L12.8323457,12.9835563 L15.2418881,15.3930987 L17.7852545,12.8497323 Z M15.9553488,17.5080651 C15.5613153,17.9020986 14.9296822,17.9093199 14.5349437,17.5145814 L12.0039186,14.9835563 L7.48681235,14.9835563 C3.35196007,14.9835563 -3.19744231e-14,11.6209538 -3.19744231e-14,7.49177815 C-3.19744231e-14,3.35418333 3.35868184,2.13162821e-14 7.48681235,2.13162821e-14 L16.4868777,2.13162821e-14 C20.62173,2.13162821e-14 23.9736901,3.3626025 23.9736901,7.49177815 C23.9736901,10.7956688 21.8321596,13.600048 18.8673682,14.5960457 L15.9553488,17.5080651 Z M6,4.5 L16,4.5 C16.5522847,4.5 17,4.94771525 17,5.5 C17,6.05228475 16.5522847,6.5 16,6.5 L6,6.5 C5.44771525,6.5 5,6.05228475 5,5.5 C5,4.94771525 5.44771525,4.5 6,4.5 Z M6,8.5 L18,8.5 C18.5522847,8.5 19,8.94771525 19,9.5 C19,10.0522847 18.5522847,10.5 18,10.5 L6,10.5 C5.44771525,10.5 5,10.0522847 5,9.5 C5,8.94771525 5.44771525,8.5 6,8.5 Z"></path>
            </g>
        </g>
    </g>
</svg>