<?xml version="1.0" encoding="UTF-8"?>
<svg width="14px" height="14px" viewBox="0 0 14 14" version="1.1" xmlns="http://www.w3.org/2000/svg" xmlns:xlink="http://www.w3.org/1999/xlink">
    <title>Icon/SegmentedCircle/16</title>
    <g id="Page-1" stroke="none" stroke-width="1" fill="none" fill-rule="evenodd">
        <g id="Icons" transform="translate(-214.000000, -854.000000)" fill="#0071C4" fill-rule="nonzero">
            <g id="Icon/SegmentedCircle/16" transform="translate(214.000000, 854.000000)">
                <path d="M8,10.8030937 L8,13.8582223 C10.5189979,13.4979079 12.6053719,11.7964838 13.5126432,9.50042902 L10.5803141,8.71471381 C10.0688112,9.73834114 9.13124216,10.511932 8,10.8030937 L8,10.8030937 Z M8,3.05512863 L8,2.57571742e-14 C11.3922941,0.485229661 14,3.40263923 14,6.92911114 C14,7.13940646 13.9907266,7.34753586 13.9725665,7.55311274 L10.9963055,6.755626 C10.920051,4.9686812 9.67142373,3.48532336 8,3.05512863 L8,3.05512863 Z M6,10.8030937 L6,13.8582223 C2.60770586,13.3729926 0,10.4555831 0,6.92911114 C0,3.40263923 2.60770586,0.485229661 6,2.48689958e-14 L6,3.05512863 C4.27477279,3.49917142 3,5.06527171 3,6.92911114 C3,8.79295057 4.27477279,10.3590509 6,10.8030937 L6,10.8030937 Z"></path>
            </g>
        </g>
    </g>
</svg>