<?xml version="1.0" encoding="UTF-8"?>
<svg width="22px" height="22px" viewBox="0 0 22 22" version="1.1" xmlns="http://www.w3.org/2000/svg" xmlns:xlink="http://www.w3.org/1999/xlink">
    <title>Icon/SegmentedCircle/24</title>
    <g id="Page-1" stroke="none" stroke-width="1" fill="none" fill-rule="evenodd">
        <g id="Icons" transform="translate(-252.000000, -850.000000)" fill="#0071C4" fill-rule="nonzero">
            <g id="Icon/SegmentedCircle/24" transform="translate(252.000000, 850.000000)">
                <path d="M12,22 C16.3023492,21.6107075 19.8903855,18.734054 21.3268439,14.8131878 L17.4368712,13.7666062 C16.4927973,15.9782449 14.451228,17.6054183 12,17.9574742 L12,22 Z M12,0 C17.6065,0.507296844 22,5.23846977 22,11 C22,11.638397 21.9460593,12.264144 21.8425045,12.8728964 L17.9521484,11.8262117 C17.9837505,11.5552189 18,11.2795148 18,11 C18,7.4590931 15.3922941,4.52974162 12,4.04252576 L12,0 Z M10,22 C4.39349999,21.4927032 0,16.7615302 0,11 C0,5.23846977 4.39349999,0.507296844 10,4.54747351e-13 L10,4.04252576 C6.60770586,4.52974162 4,7.4590931 4,11 C4,14.5409069 6.60770586,17.4702584 10,17.9574742 L10,22 Z"></path>
            </g>
        </g>
    </g>
</svg>