<?xml version="1.0" encoding="UTF-8"?>
<svg width="15px" height="16px" viewBox="0 0 15 16" version="1.1" xmlns="http://www.w3.org/2000/svg" xmlns:xlink="http://www.w3.org/1999/xlink">
    <title>Icon/Stopwatch/16</title>
    <g id="Page-1" stroke="none" stroke-width="1" fill="none" fill-rule="evenodd">
        <g id="Icons" transform="translate(-299.000000, -897.000000)" fill="#0071C4" fill-rule="nonzero">
            <g id="Icon/Stopwatch/16" transform="translate(299.000000, 897.000000)">
                <path d="M8.25,0 L8.25056046,1.56848011 C9.04739502,1.6784768 9.80288276,1.91796934 10.4950977,2.26503171 L10.7924225,1.84163386 C10.9508113,1.61543127 11.2625841,1.5604573 11.4887867,1.71884606 L12.3079388,2.29242249 C12.5341414,2.45081125 12.5891153,2.76258414 12.4307266,2.98878673 L12.1430468,3.40011769 C13.5915704,4.72567961 14.5,6.63175225 14.5,8.75 C14.5,9.90324583 14.230734,10.9936012 13.751642,11.9616261 C12.5673286,14.3545793 10.1008186,16 7.25,16 C3.24593556,16 0,12.7540644 0,8.75 C0,5.08506241 2.71938655,2.05527159 6.2504459,1.56834126 L6.25,0 L8.25,0 Z M7.25,3 C4.07436269,3 1.5,5.57436269 1.5,8.75 C1.5,11.9256373 4.07436269,14.5 7.25,14.5 C10.4256373,14.5 13,11.9256373 13,8.75 C13,5.57436269 10.4256373,3 7.25,3 Z M7.25,4 C7.80228475,4 8.25,4.48502485 8.25,5.08333333 L8.25,9.41666667 C8.25,10.0149751 7.80228475,10.5 7.25,10.5 C6.69771525,10.5 6.25,10.0149751 6.25,9.41666667 L6.25,5.08333333 C6.25,4.48502485 6.69771525,4 7.25,4 Z"></path>
            </g>
        </g>
    </g>
</svg>