<?xml version="1.0" encoding="UTF-8"?>
<svg width="21px" height="24px" viewBox="0 0 21 24" version="1.1" xmlns="http://www.w3.org/2000/svg" xmlns:xlink="http://www.w3.org/1999/xlink">
    <title>Icon/Stopwatch/24</title>
    <g id="Page-1" stroke="none" stroke-width="1" fill="none" fill-rule="evenodd">
        <g id="Icons" transform="translate(-341.000000, -893.000000)" fill="#0071C4">
            <g id="Icon/Stopwatch/24" transform="translate(341.000000, 893.000000)">
                <path d="M12,0 C12.2454599,0 12.4496084,0.176875161 12.4919443,0.410124368 L12.5,0.5 L12.5,1.5 C12.5,1.74545989 12.3231248,1.94960837 12.0898756,1.99194433 L12,2 L11.5,2 L11.5006804,3.04706426 C12.9863276,3.18752191 14.3818469,3.6375279 15.6220451,4.3318891 L16.2340885,3.62735479 C16.4152542,3.41894749 16.7310656,3.39686382 16.9394728,3.57802951 L17.6941824,4.23408854 C17.9025897,4.41525424 17.9246734,4.73106555 17.7435077,4.93947285 L17.2757404,5.47852383 C19.5536115,7.40458991 21,10.2833839 21,13.5 C21,19.2989899 16.2989899,24 10.5,24 C4.70101013,24 0,19.2989899 0,13.5 C0,8.03818456 4.17023499,3.55037969 9.5003207,3.04696966 L9.5,2 L9,2 C8.75454011,2 8.55039163,1.82312484 8.50805567,1.58987563 L8.5,1.5 L8.5,0.5 C8.5,0.254540111 8.67687516,0.0503916296 8.91012437,0.00805566941 L9,0 L12,0 Z M10.5,5.21052632 C5.9218501,5.21052632 2.21052632,8.9218501 2.21052632,13.5 C2.21052632,18.0781499 5.9218501,21.7894737 10.5,21.7894737 C15.0781499,21.7894737 18.7894737,18.0781499 18.7894737,13.5 C18.7894737,8.9218501 15.0781499,5.21052632 10.5,5.21052632 Z M10.5,7 C11.0522847,7 11.5,7.59695367 11.5,8.33333333 L11.5010775,12.2681881 C12.0982846,12.6141507 12.5,13.2601625 12.5,14 C12.5,15.1045695 11.6045695,16 10.5,16 C9.3954305,16 8.5,15.1045695 8.5,14 C8.5,13.2597476 8.90216612,12.6134261 9.49992752,12.2676063 L9.5,8.33333333 C9.5,7.59695367 9.94771525,7 10.5,7 Z"></path>
            </g>
        </g>
    </g>
</svg>