<?xml version="1.0" encoding="UTF-8"?>
<svg width="16px" height="13px" viewBox="0 0 16 13" version="1.1" xmlns="http://www.w3.org/2000/svg" xmlns:xlink="http://www.w3.org/1999/xlink">
    <title>Icon/IDFront/16</title>
    <g id="Page-1" stroke="none" stroke-width="1" fill="none" fill-rule="evenodd">
        <g id="Icons" transform="translate(-28.000000, -596.000000)" fill="#0071C4" fill-rule="nonzero">
            <g id="Icon/IDFront/16" transform="translate(28.000000, 596.000000)">
                <path d="M2,2 L2,11 L14,11 L14,2 L2,2 Z M0,0.998502329 C0,0.44704472 0.444630861,0 1.00087166,0 L14.9991283,0 C15.5518945,0 16,0.447489426 16,0.998502329 L16,12.0014977 C16,12.5529553 15.5468037,13 15.0026177,13 L0.996678026,13 C0.446227952,13 0,12.5525106 0,12.0014977 L0,0.998502329 Z M5,6 C5.55228475,6 6,5.55228475 6,5 C6,4.44771525 5.55228475,4 5,4 C4.44771525,4 4,4.44771525 4,5 C4,5.55228475 4.44771525,6 5,6 Z M5.83074718,6 C6.28618222,6 6.68408784,6.30773502 6.79861366,6.74853532 L7.05841644,7.74849446 C7.19729655,8.28303236 6.87655254,8.82894551 6.34201465,8.96782562 C6.2598957,8.98916122 6.1753953,8.99995914 6.09054997,8.99995914 L4,8.99995914 C3.44771525,8.99995914 3,8.55224389 3,7.99995914 C3,7.91511381 3.01079792,7.83061341 3.03213352,7.74849446 L3.29193631,6.74853532 C3.40646213,6.30773502 3.80436775,6 4.25980278,6 L5.83074718,6 Z M10,4 L12,4 C12.5522847,4 13,4.44771525 13,5 C13,5.55228475 12.5522847,6 12,6 L10,6 C9.44771525,6 9,5.55228475 9,5 C9,4.44771525 9.44771525,4 10,4 Z M10,7 L12,7 C12.5522847,7 13,7.44771525 13,8 C13,8.55228475 12.5522847,9 12,9 L10,9 C9.44771525,9 9,8.55228475 9,8 C9,7.44771525 9.44771525,7 10,7 Z"></path>
            </g>
        </g>
    </g>
</svg>