<?xml version="1.0" encoding="UTF-8"?>
<svg width="24px" height="18px" viewBox="0 0 24 18" version="1.1" xmlns="http://www.w3.org/2000/svg" xmlns:xlink="http://www.w3.org/1999/xlink">
    <title>Icon/IDFront/24</title>
    <g id="Page-1" stroke="none" stroke-width="1" fill="none" fill-rule="evenodd">
        <g id="Icons" transform="translate(-73.000000, -593.000000)" fill="#0071C4">
            <g id="Icon/IDFront/24" transform="translate(73.000000, 593.000000)">
                <path d="M23.0909091,0 C23.5929861,1.58048363e-15 24,0.407013864 24,0.909090909 L24,17.0909091 C24,17.5929861 23.5929861,18 23.0909091,18 L0.909090909,18 C0.407013864,18 8.38642822e-16,17.5929861 0,17.0909091 L0,0.909090909 C-1.72509007e-16,0.407013864 0.407013864,-9.06970665e-16 0.909090909,0 L23.0909091,0 Z M22,2 L2,2 L2,16 L22,16 L22,2 Z M19,12 C19.5522847,12 20,12.4477153 20,13 C20,13.5522847 19.5522847,14 19,14 L14,14 C13.4477153,14 13,13.5522847 13,13 C13,12.4477153 13.4477153,12 14,12 L19,12 Z M8.35103615,9 C8.82201779,9 9.22915945,9.3286408 9.32852673,9.78902091 L9.97601709,12.7889188 C10.0925376,13.3287719 9.74935875,13.8608679 9.20950561,13.9773884 C9.14017649,13.9923522 9.06945213,13.9998979 8.99852652,13.9998979 L5.00126517,13.9998979 C4.44898043,13.9998979 4.00126517,13.5521826 4.00126517,12.9998979 C4.00126517,12.9289722 4.00881078,12.8582479 4.0237746,12.7889188 L4.67126496,9.78902091 C4.77063224,9.3286408 5.1777739,9 5.64875554,9 L8.35103615,9 Z M17,8 C17.5522847,8 18,8.44771525 18,9 C18,9.55228475 17.5522847,10 17,10 L14,10 C13.4477153,10 13,9.55228475 13,9 C13,8.44771525 13.4477153,8 14,8 L17,8 Z M7,4 C8.1045695,4 9,4.8954305 9,6 C9,7.1045695 8.1045695,8 7,8 C5.8954305,8 5,7.1045695 5,6 C5,4.8954305 5.8954305,4 7,4 Z M19,4 C19.5522847,4 20,4.44771525 20,5 C20,5.55228475 19.5522847,6 19,6 L14,6 C13.4477153,6 13,5.55228475 13,5 C13,4.44771525 13.4477153,4 14,4 L19,4 Z"></path>
            </g>
        </g>
    </g>
</svg>