<?xml version="1.0" encoding="UTF-8"?>
<svg width="16px" height="16px" viewBox="0 0 16 16" version="1.1" xmlns="http://www.w3.org/2000/svg" xmlns:xlink="http://www.w3.org/1999/xlink">
    <title>Icon/Percent/Outline/16</title>
    <g id="Page-1" stroke="none" stroke-width="1" fill="none" fill-rule="evenodd">
        <g id="Icons" transform="translate(-384.000000, -220.000000)" fill="#0071C4">
            <g id="Icon/Percent/Outline/16" transform="translate(384.000000, 220.000000)">
                <path d="M8,0 C12.418278,0 16,3.581722 16,8 C16,12.418278 12.418278,16 8,16 C3.581722,16 0,12.418278 0,8 C0,3.581722 3.581722,0 8,0 Z M8,2 C4.6862915,2 2,4.6862915 2,8 C2,11.3137085 4.6862915,14 8,14 C11.3137085,14 14,11.3137085 14,8 C14,4.6862915 11.3137085,2 8,2 Z M7.68098958,6.27252595 C7.68098958,6.51558272 7.6369362,6.73736869 7.54882813,6.93789053 C7.46072005,7.13841237 7.34375073,7.31082818 7.19791667,7.45514313 C7.0520826,7.59945809 6.88270496,7.71111062 6.68977865,7.79010407 C6.49685233,7.86909752 6.29557396,7.90859365 6.0859375,7.90859365 C5.85503357,7.90859365 5.64312162,7.86909752 5.45019531,7.79010407 C5.257269,7.71111062 5.09016998,7.59945809 4.94889323,7.45514313 C4.80761648,7.31082818 4.69748303,7.13841237 4.61848958,6.93789053 C4.53949613,6.73736869 4.5,6.51558272 4.5,6.27252595 C4.5,6.02035455 4.53949613,5.7917327 4.61848958,5.58665355 C4.69748303,5.3815744 4.80761648,5.20612043 4.94889323,5.06028636 C5.09016998,4.9144523 5.257269,4.80128069 5.45019531,4.72076813 C5.64312162,4.64025558 5.85503357,4.5999999 6.0859375,4.5999999 C6.31684143,4.5999999 6.53027246,4.64025558 6.72623698,4.72076813 C6.9222015,4.80128069 7.09081961,4.9144523 7.23209635,5.06028636 C7.3733731,5.20612043 7.48350655,5.3815744 7.5625,5.58665355 C7.64149345,5.7917327 7.68098958,6.02035455 7.68098958,6.27252595 Z M6.59635417,6.27252595 C6.59635417,6.11757725 6.58344197,5.98921482 6.55761719,5.8874348 C6.53179241,5.78565478 6.49609398,5.70438389 6.45052083,5.6436197 C6.40494769,5.5828555 6.35102028,5.54032121 6.28873698,5.51601553 C6.22645368,5.49170985 6.15885453,5.4795572 6.0859375,5.4795572 C6.01302047,5.4795572 5.94618086,5.49170985 5.88541667,5.51601553 C5.82465247,5.54032121 5.77300368,5.5828555 5.73046875,5.6436197 C5.68793382,5.70438389 5.65451401,5.78565478 5.63020833,5.8874348 C5.60590266,5.98921482 5.59375,6.11757725 5.59375,6.27252595 C5.59375,6.41836001 5.60590266,6.53988657 5.63020833,6.63710928 C5.65451401,6.73433199 5.68793382,6.81180517 5.73046875,6.86953115 C5.77300368,6.92725714 5.82465247,6.96827235 5.88541667,6.99257803 C5.94618086,7.01688371 6.01302047,7.02903636 6.0859375,7.02903636 C6.15885453,7.02903636 6.22645368,7.01688371 6.28873698,6.99257803 C6.35102028,6.96827235 6.40494769,6.92725714 6.45052083,6.86953115 C6.49609398,6.81180517 6.53179241,6.73433199 6.55761719,6.63710928 C6.58344197,6.53988657 6.59635417,6.41836001 6.59635417,6.27252595 Z M9.76822917,4.8734374 C9.81380231,4.82178784 9.87000835,4.77393676 9.93684896,4.72988272 C10.0036896,4.68582868 10.0963536,4.66380199 10.2148438,4.66380199 L11.2447917,4.66380199 L6.24088542,11.1032551 C6.19531227,11.1609811 6.1383467,11.2088322 6.06998698,11.2468098 C6.00162726,11.2847874 5.91883729,11.3037759 5.82161458,11.3037759 L4.76432292,11.3037759 L9.76822917,4.8734374 Z M11.5,9.7451822 C11.5,9.98823897 11.4559466,10.2107845 11.3678385,10.4128254 C11.2797305,10.6148664 11.1627611,10.7880417 11.0169271,10.9323567 C10.871093,11.0766716 10.7017154,11.1883242 10.5087891,11.2673176 C10.3158628,11.3463111 10.1145844,11.3858072 9.90494792,11.3858072 C9.67404398,11.3858072 9.46213204,11.3463111 9.26920573,11.2673176 C9.07627942,11.1883242 8.90918039,11.0766716 8.76790365,10.9323567 C8.6266269,10.7880417 8.51649345,10.6148664 8.4375,10.4128254 C8.35850655,10.2107845 8.31901042,9.98823897 8.31901042,9.7451822 C8.31901042,9.4930108 8.35850655,9.26438895 8.4375,9.0593098 C8.51649345,8.85423065 8.6266269,8.67877668 8.76790365,8.53294261 C8.90918039,8.38710855 9.07627942,8.27393694 9.26920573,8.19342438 C9.46213204,8.11291183 9.67404398,8.07265615 9.90494792,8.07265615 C10.1358518,8.07265615 10.3492829,8.11291183 10.5452474,8.19342438 C10.7412119,8.27393694 10.90983,8.38710855 11.0511068,8.53294261 C11.1923835,8.67877668 11.302517,8.85423065 11.3815104,9.0593098 C11.4605039,9.26438895 11.5,9.4930108 11.5,9.7451822 Z M10.4153646,9.7451822 C10.4153646,9.59327171 10.4024524,9.46642836 10.3766276,9.36464834 C10.3508028,9.26286832 10.3151044,9.18159743 10.2695313,9.12083324 C10.2239581,9.06006905 10.1700307,9.01753475 10.1077474,8.99322907 C10.0454641,8.96892339 9.97786495,8.95677074 9.90494792,8.95677074 C9.83203089,8.95677074 9.76519128,8.96892339 9.70442708,8.99322907 C9.64366289,9.01753475 9.5920141,9.06006905 9.54947917,9.12083324 C9.50694423,9.18159743 9.47352443,9.26286832 9.44921875,9.36464834 C9.42491307,9.46642836 9.41276042,9.59327171 9.41276042,9.7451822 C9.41276042,9.89101626 9.42491307,10.0125428 9.44921875,10.1097655 C9.47352443,10.2069882 9.50694423,10.2844614 9.54947917,10.3421874 C9.5920141,10.3999134 9.64366289,10.4409286 9.70442708,10.4652343 C9.76519128,10.48954 9.83203089,10.5016926 9.90494792,10.5016926 C9.97786495,10.5016926 10.0454641,10.48954 10.1077474,10.4652343 C10.1700307,10.4409286 10.2239581,10.3999134 10.2695313,10.3421874 C10.3151044,10.2844614 10.3508028,10.2069882 10.3766276,10.1097655 C10.4024524,10.0125428 10.4153646,9.89101626 10.4153646,9.7451822 Z"></path>
            </g>
        </g>
    </g>
</svg>