<?xml version="1.0" encoding="UTF-8"?>
<svg width="22px" height="22px" viewBox="0 0 22 22" version="1.1" xmlns="http://www.w3.org/2000/svg" xmlns:xlink="http://www.w3.org/1999/xlink">
    <title>Icon/Percent/Outline/24</title>
    <g id="Page-1" stroke="none" stroke-width="1" fill="none" fill-rule="evenodd">
        <g id="Icons" transform="translate(-427.000000, -217.000000)" fill="#0071C4">
            <g id="Icon/Percent/Outline/24" transform="translate(427.000000, 217.000000)">
                <path d="M10.8964844,8.63378906 C10.8964844,8.99837422 10.8304043,9.33105318 10.6982422,9.63183594 C10.5660801,9.93261869 10.3906261,10.1912424 10.171875,10.4077148 C9.95312391,10.6241873 9.69905744,10.7916661 9.40966797,10.9101562 C9.1202785,11.0286464 8.81836095,11.0878906 8.50390625,11.0878906 C8.15755035,11.0878906 7.83968244,11.0286464 7.55029297,10.9101562 C7.2609035,10.7916661 7.01025497,10.6241873 6.79833984,10.4077148 C6.58642472,10.1912424 6.42122455,9.93261869 6.30273437,9.63183594 C6.1842442,9.33105318 6.125,8.99837422 6.125,8.63378906 C6.125,8.25553196 6.1842442,7.91259919 6.30273437,7.60498047 C6.42122455,7.29736174 6.58642472,7.03418078 6.79833984,6.81542969 C7.01025497,6.59667859 7.2609035,6.42692118 7.55029297,6.30615234 C7.83968244,6.18538351 8.15755035,6.125 8.50390625,6.125 C8.85026215,6.125 9.17040869,6.18538351 9.46435547,6.30615234 C9.75830225,6.42692118 10.0112294,6.59667859 10.2231445,6.81542969 C10.4350597,7.03418078 10.6002598,7.29736174 10.71875,7.60498047 C10.8372402,7.91259919 10.8964844,8.25553196 10.8964844,8.63378906 Z M9.26953125,8.63378906 C9.26953125,8.40136603 9.25016295,8.20882238 9.21142578,8.05615234 C9.17268861,7.90348231 9.11914097,7.78157598 9.05078125,7.69042969 C8.98242153,7.5992834 8.90153042,7.53548195 8.80810547,7.49902344 C8.71468052,7.46256492 8.6132818,7.44433594 8.50390625,7.44433594 C8.3945307,7.44433594 8.29427129,7.46256492 8.203125,7.49902344 C8.11197871,7.53548195 8.03450553,7.5992834 7.97070312,7.69042969 C7.90690072,7.78157598 7.85677102,7.90348231 7.8203125,8.05615234 C7.78385398,8.20882238 7.765625,8.40136603 7.765625,8.63378906 C7.765625,8.85254016 7.78385398,9.03483 7.8203125,9.18066406 C7.85677102,9.32649813 7.90690072,9.4427079 7.97070312,9.52929688 C8.03450553,9.61588585 8.11197871,9.67740867 8.203125,9.71386719 C8.29427129,9.7503257 8.3945307,9.76855469 8.50390625,9.76855469 C8.6132818,9.76855469 8.71468052,9.7503257 8.80810547,9.71386719 C8.90153042,9.67740867 8.98242153,9.61588585 9.05078125,9.52929688 C9.11914097,9.4427079 9.17268861,9.32649813 9.21142578,9.18066406 C9.25016295,9.03483 9.26953125,8.85254016 9.26953125,8.63378906 Z M14.0273438,6.53515625 C14.0957035,6.4576819 14.1800125,6.38590528 14.2802734,6.31982422 C14.3805344,6.25374316 14.5195304,6.22070312 14.6972656,6.22070312 L16.2421875,6.22070312 L8.73632813,15.8798828 C8.66796841,15.9664718 8.58252004,16.0382484 8.47998047,16.0952148 C8.37744089,16.1521813 8.25325594,16.1806641 8.10742188,16.1806641 L6.52148438,16.1806641 L14.0273438,6.53515625 Z M16.625,13.8427734 C16.625,14.2073586 16.5589199,14.5411769 16.4267578,14.8442383 C16.2945957,15.1472997 16.1191417,15.4070627 15.9003906,15.6235352 C15.6816395,15.8400076 15.4275731,16.0074864 15.1381836,16.1259766 C14.8487941,16.2444667 14.5468766,16.3037109 14.2324219,16.3037109 C13.886066,16.3037109 13.5681981,16.2444667 13.2788086,16.1259766 C12.9894191,16.0074864 12.7387706,15.8400076 12.5268555,15.6235352 C12.3149403,15.4070627 12.1497402,15.1472997 12.03125,14.8442383 C11.9127598,14.5411769 11.8535156,14.2073586 11.8535156,13.8427734 C11.8535156,13.4645163 11.9127598,13.1215836 12.03125,12.8139648 C12.1497402,12.5063461 12.3149403,12.2431652 12.5268555,12.0244141 C12.7387706,11.805663 12.9894191,11.6359056 13.2788086,11.5151367 C13.5681981,11.3943679 13.886066,11.3339844 14.2324219,11.3339844 C14.5787778,11.3339844 14.8989243,11.3943679 15.1928711,11.5151367 C15.4868179,11.6359056 15.739745,11.805663 15.9516602,12.0244141 C16.1635753,12.2431652 16.3287754,12.5063461 16.4472656,12.8139648 C16.5657558,13.1215836 16.625,13.4645163 16.625,13.8427734 Z M14.9980469,13.8427734 C14.9980469,13.6149077 14.9786786,13.4246427 14.9399414,13.2719727 C14.9012042,13.1193026 14.8476566,12.9973963 14.7792969,12.90625 C14.7109372,12.8151037 14.630046,12.7513023 14.5366211,12.7148438 C14.4431961,12.6783852 14.3417974,12.6601562 14.2324219,12.6601562 C14.1230463,12.6601562 14.0227869,12.6783852 13.9316406,12.7148438 C13.8404943,12.7513023 13.7630212,12.8151037 13.6992188,12.90625 C13.6354163,12.9973963 13.5852866,13.1193026 13.5488281,13.2719727 C13.5123696,13.4246427 13.4941406,13.6149077 13.4941406,13.8427734 C13.4941406,14.0615245 13.5123696,14.2438144 13.5488281,14.3896484 C13.5852866,14.5354825 13.6354163,14.6516923 13.6992188,14.7382812 C13.7630212,14.8248702 13.8404943,14.886393 13.9316406,14.9228516 C14.0227869,14.9593101 14.1230463,14.9775391 14.2324219,14.9775391 C14.3417974,14.9775391 14.4431961,14.9593101 14.5366211,14.9228516 C14.630046,14.886393 14.7109372,14.8248702 14.7792969,14.7382812 C14.8476566,14.6516923 14.9012042,14.5354825 14.9399414,14.3896484 C14.9786786,14.2438144 14.9980469,14.0615245 14.9980469,13.8427734 Z M11,22 C17.0751322,22 22,17.0751322 22,11 C22,4.92486775 17.0751322,0 11,0 C4.92486775,0 0,4.92486775 0,11 C0,17.0751322 4.92486775,22 11,22 Z M11,20 C15.9705627,20 20,15.9705627 20,11 C20,6.02943725 15.9705627,2 11,2 C6.02943725,2 2,6.02943725 2,11 C2,15.9705627 6.02943725,20 11,20 Z"></path>
            </g>
        </g>
    </g>
</svg>