<?xml version="1.0" encoding="UTF-8"?>
<svg width="16px" height="16px" viewBox="0 0 16 16" version="1.1" xmlns="http://www.w3.org/2000/svg" xmlns:xlink="http://www.w3.org/1999/xlink">
    <title>Icon/Transfers/16</title>
    <g id="Page-1" stroke="none" stroke-width="1" fill="none" fill-rule="evenodd">
        <g id="Icons" transform="translate(-477.000000, -897.000000)" fill="#0071C4">
            <g id="Icon/Transfers/16" transform="translate(477.000000, 897.000000)">
                <path d="M15,1.65202847 C15.5522847,1.65202847 16,2.09974372 16,2.65202847 L16,2.65202847 L16,12.6520285 C16,13.2043132 15.5522847,13.6520285 15,13.6520285 L15,13.6520285 L11.6667256,13.6520285 L11.6626481,14.6562155 C11.6602365,15.2501363 10.9409626,15.5446676 10.5226882,15.1230112 L10.5226882,15.1230112 L8.53549028,13.1197458 C8.27637752,12.858538 8.27786127,12.4368001 8.53880554,12.1774219 L8.53880554,12.1774219 L10.5422235,10.1860279 C10.9637018,9.7670792 11.6812812,10.0672867 11.6788682,10.6615561 L11.6788682,10.6615561 L11.6748464,11.6520285 L14,11.6520285 L14,3.65202847 L10,3.65202847 C9.44771525,3.65202847 9,3.20431322 9,2.65202847 C9,2.09974372 9.44771525,1.65202847 10,1.65202847 L10,1.65202847 Z M5.47964554,0.195672154 L7.47595291,2.18425858 C7.73671748,2.44401461 7.7376367,2.86594836 7.4780064,3.12683811 L5.47117047,5.14340916 C5.05106567,5.56555187 4.33039677,5.26695274 4.3319598,4.67139414 L4.334,3.652 L2,3.652 L2,11.652 L6,11.6520285 C6.51283584,11.6520285 6.93550716,12.0380687 6.99327227,12.5354073 L7,12.6520285 C7,13.2043132 6.55228475,13.6520285 6,13.6520285 L6,13.6520285 L1,13.6520285 C0.44771525,13.6520285 0,13.2043132 0,12.6520285 L0,12.6520285 L0,2.65202847 L0.00672773133,2.53540734 C0.0644928393,2.03806866 0.487164161,1.65202847 1,1.65202847 L1,1.65202847 L4.339,1.652 L4.34249091,0.666236665 C4.34404836,0.0737688001 5.05989512,-0.222454835 5.47964554,0.195672154 Z"></path>
            </g>
        </g>
    </g>
</svg>