<?xml version="1.0" encoding="UTF-8"?>
<svg width="24px" height="22px" viewBox="0 0 24 22" version="1.1" xmlns="http://www.w3.org/2000/svg" xmlns:xlink="http://www.w3.org/1999/xlink">
    <title>Icon/Transfers/24</title>
    <g id="Page-1" stroke="none" stroke-width="1" fill="none" fill-rule="evenodd">
        <g id="Icons" transform="translate(-517.000000, -894.000000)" fill="#0071C4">
            <g id="Icon/Transfers/24" transform="translate(517.000000, 894.000000)">
                <path d="M23,2.00172599 C23.5522847,2.00172599 24,2.44944124 24,3.00172599 L24,3.00172599 L24,19.001726 C24,19.5540107 23.5522847,20.001726 23,20.001726 L23,20.001726 L16.9995839,20.001726 L16.9995839,20.9986671 C16.9995839,21.8889922 15.9236397,22.3354211 15.2933281,21.7066238 L15.2933281,21.7066238 L13.2926414,19.7107437 C12.9012677,19.3203102 12.9009409,18.6863956 13.2919119,18.2955589 L13.2919119,18.2955589 L15.2925985,16.2955589 C15.922613,15.6657606 16.9995839,16.1119649 16.9995839,17.002787 L16.9995839,17.002787 L16.9995839,18.001726 L22,18.001726 L22,4.00172599 L14,4.00172599 C13.4477153,4.00172599 13,3.55401074 13,3.00172599 C13,2.44944124 13.4477153,2.00172599 14,2.00172599 L14,2.00172599 Z M6.99986173,1.00237381 C6.99953522,0.111603488 8.0762357,-0.335018867 8.7065119,0.294444235 L8.7065119,0.294444235 L10.7054438,2.29079738 C11.0962233,2.68107279 11.0966283,3.31424408 10.7063482,3.705019 L10.7063482,3.705019 L8.7088812,5.705019 C8.07922462,6.33547403 7.00165318,5.88976054 7.00132657,4.99872696 L7.00132657,4.99872696 L7.00096113,4.00172599 L2,4.00172599 L2,18.001726 L10,18.001726 C10.5522847,18.001726 11,18.4494412 11,19.001726 C11,19.5540107 10.5522847,20.001726 10,20.001726 L10,20.001726 L1,20.001726 C0.44771525,20.001726 5.5067062e-14,19.5540107 5.5067062e-14,19.001726 L5.5067062e-14,19.001726 L5.5067062e-14,3.00172599 C5.5067062e-14,2.44944124 0.44771525,2.00172599 1,2.00172599 L1,2.00172599 L7.00022804,2.00172599 Z"></path>
            </g>
        </g>
    </g>
</svg>