<?xml version="1.0" encoding="UTF-8"?>
<svg width="12px" height="16px" viewBox="0 0 12 16" version="1.1" xmlns="http://www.w3.org/2000/svg" xmlns:xlink="http://www.w3.org/1999/xlink">
    <title>Icon/PageCheck/16</title>
    <g id="Page-1" stroke="none" stroke-width="1" fill="none" fill-rule="evenodd">
        <g id="Icons" transform="translate(-386.000000, -488.000000)" fill="#0071C4">
            <g id="Icon/PageCheck/16" transform="translate(386.000000, 488.000000)">
                <path d="M2,14 L10,14 L10,5 L7,5 L7,2 L2,2 L2,14 Z M0,1.00087166 C0,0.448105505 0.453036308,0 0.997030139,0 L8,0 L12,4 L12,14.9975267 C12,15.5511774 11.544239,16 10.9975267,16 L1.00247329,16 C0.448822582,16 0,15.5553691 0,14.9991283 L0,1.00087166 Z M5.18181818,9.77777778 L4.09090909,8.66666667 L3,9.77777778 L5.18181818,12 L9,8.11111111 L7.90909091,7 L5.18181818,9.77777778 Z"></path>
            </g>
        </g>
    </g>
</svg>