<?xml version="1.0" encoding="UTF-8"?>
<svg width="18px" height="24px" viewBox="0 0 18 24" version="1.1" xmlns="http://www.w3.org/2000/svg" xmlns:xlink="http://www.w3.org/1999/xlink">
    <title>Icon/PageCheck/24</title>
    <g id="Page-1" stroke="none" stroke-width="1" fill="none" fill-rule="evenodd">
        <g id="Icons" transform="translate(-429.000000, -484.000000)" fill="#0071C4">
            <g id="Icon/PageCheck/24" transform="translate(429.000000, 484.000000)">
                <path d="M12,0 L12.0360631,0.0362340759 C12.0478963,0.0481229156 12.062547,0.0628420761 12.0798742,0.0802496682 L12.3042825,0.305674642 C12.689707,0.692808789 13.3996995,1.40578096 14.190834,2.19940666 L14.5920361,2.60180552 C14.8625094,2.87303869 15.1374906,3.14869292 15.4079639,3.41968728 L16.0051183,4.01773009 C16.0697784,4.08245423 16.133734,4.14646146 16.1968445,4.2096099 L16.5642374,4.57705982 C17.392562,5.40509945 18,6.00919414 18,6 L18,23 C18,23.5522847 17.5522847,24 17,24 L1,24 C0.44771525,24 0,23.5522847 0,23 L0,1 C0,0.44771525 0.44771525,0 1,0 L12,0 Z M11,2 L2,2 L2,22 L16,22 L16,7 L11,7 L11,2 Z M7.33333333,15 L5.66666667,13.3333333 L4,15 L7.33333333,18.3333333 L14,11.6666667 L12.3333333,10 L7.33333333,15 Z"></path>
            </g>
        </g>
    </g>
</svg>