<?xml version="1.0" encoding="UTF-8"?>
<svg width="16px" height="12px" viewBox="0 0 16 12" version="1.1" xmlns="http://www.w3.org/2000/svg" xmlns:xlink="http://www.w3.org/1999/xlink">
    <title>Icon/Video/FastForward/Outline</title>
    <g id="Page-1" stroke="none" stroke-width="1" fill="none" fill-rule="evenodd">
        <g id="Icons" transform="translate(-344.000000, -947.000000)" fill="#0071C4">
            <g id="Icon/Video/FastForward/Outline" transform="translate(344.000000, 947.000000)">
                <path d="M7,0 C7.20021703,0 7.38669107,0.0588406961 7.54307309,0.160173039 L15.5153178,5.14282598 C15.8057509,5.31780464 16,5.63621767 16,6 C16,6.36378233 15.8057509,6.68219536 15.5153178,6.85717402 L7.54307309,11.839827 C7.38669108,11.9411593 7.20021703,12 7,12 C6.44771525,12 6,11.5522847 6,11 C6,10.6362177 6.19424909,10.3178046 6.48468221,10.142826 L13.1132038,6 L6.48468221,1.85717402 C6.19424909,1.68219536 6,1.36378233 6,1 C6,0.44771525 6.44771525,0 7,0 Z M1.55046745,0.24715116 L10,6 L1.55046745,11.7507149 C1.19730172,12.0831647 0.625677208,12.0840781 0.268179976,11.7475509 C0.0914752248,11.5812112 0.003232749,11.36295 0.00227475774,11.1450826 L0.00294945917,8.70999153 C0.00298474749,8.6193907 0.00302039956,8.52722704 0.00305621754,8.43367448 L0.00398267818,5.3843616 C0.00400202927,5.28042447 0.00401956777,5.17683778 0.00403509583,5.07377548 L0.00405473801,3.31285716 C0.00403901822,3.22234909 0.0040201009,3.13340901 0.0039977882,3.04621086 L0.00318672254,1.70234204 C0.00311654265,1.64230866 0.00304178028,1.58506081 0.00296223758,1.53077243 L0.00211194249,1.12677896 C0.00167192123,0.986914389 0.00114591794,0.902750221 0.000521270278,0.885418292 C-0.00769591588,0.657418255 0.0812246437,0.426304158 0.268179976,0.250315219 C0.62320206,-0.0838820397 1.20087015,-0.0819395244 1.55046745,0.24715116 Z M2,3 L2,9 L6.5,6 L2,3 Z"></path>
            </g>
        </g>
    </g>
</svg>