<?xml version="1.0" encoding="UTF-8"?>
<svg width="16px" height="10px" viewBox="0 0 16 10" version="1.1" xmlns="http://www.w3.org/2000/svg" xmlns:xlink="http://www.w3.org/1999/xlink">
    <title>Icon/Check/Front/16</title>
    <g id="Page-1" stroke="none" stroke-width="1" fill="none" fill-rule="evenodd">
        <g id="Icons" transform="translate(-213.000000, -380.000000)" fill="#0071C4" fill-rule="nonzero">
            <g id="Icon/Check/Front/16" transform="translate(213.000000, 380.000000)">
                <path d="M2,2 L2,8 L14,8 L14,2 L2,2 Z M0,0.995397568 C0,0.445654671 0.444630861,0 1.00087166,0 L14.9991283,0 C15.5518945,0 16,0.455664396 16,0.995397568 L16,9.00460243 C16,9.55434533 15.5468037,10 15.0026177,10 L0.996678026,10 C0.446227952,10 0,9.5443356 0,9.00460243 L0,0.995397568 Z M4.58823529,6.66666667 L5.38235294,6.66666667 C5.95791132,6.66666667 6.29471702,6.354153 6.57216505,5.81067454 C6.8523418,6.354153 7.1891475,6.66666667 7.76470588,6.66666667 C8.04084826,6.66666667 8.26470588,6.44280904 8.26470588,6.16666667 C8.26470588,5.89052429 8.04084826,5.66666667 7.76470588,5.66666667 C7.66195544,5.66666667 7.59012143,5.60001367 7.46554741,5.35599212 C7.44290124,5.31163173 7.35190859,5.12258852 7.32767976,5.07512792 C7.13821506,4.70399544 6.95076211,4.5 6.57352941,4.5 C6.19629671,4.5 6.00884376,4.70399544 5.81937907,5.07512792 C5.79515023,5.12258852 5.70415759,5.31163173 5.68151142,5.35599212 C5.55693739,5.60001367 5.48510339,5.66666667 5.38235294,5.66666667 L4.58823529,5.66666667 C4.63575589,5.66666667 4.46258884,5.41226076 4.26745551,4.83890602 L3.86060931,3.64348138 L2.54468582,6.54338684 C2.43057652,6.79484992 2.54192376,7.09120488 2.79338684,7.20531418 C3.04484992,7.31942348 3.34120488,7.20807624 3.45531418,6.95661316 L3.79987559,6.19730191 C4.01756897,6.50657195 4.26914896,6.66666667 4.58823529,6.66666667 Z M10,3 L12,3 C12.5522847,3 13,3.44771525 13,4 C13,4.55228475 12.5522847,5 12,5 L10,5 C9.44771525,5 9,4.55228475 9,4 C9,3.44771525 9.44771525,3 10,3 Z"></path>
            </g>
        </g>
    </g>
</svg>