<?xml version="1.0" encoding="UTF-8"?>
<svg width="24px" height="12px" viewBox="0 0 24 12" version="1.1" xmlns="http://www.w3.org/2000/svg" xmlns:xlink="http://www.w3.org/1999/xlink">
    <title>Icon/Check/Front/24</title>
    <g id="Page-1" stroke="none" stroke-width="1" fill="none" fill-rule="evenodd">
        <g id="Icons" transform="translate(-251.000000, -379.000000)" fill="#0071C4" fill-rule="nonzero">
            <g id="Icon/Check/Front/24" transform="translate(251.000000, 379.000000)">
                <path d="M2,10 L22,10 L22,2 L2,2 L2,10 Z M0.909090909,0 L23.0909091,0 C23.5929861,0 24,0.407013864 24,0.909090909 L24,11.0909091 C24,11.5929861 23.5929861,12 23.0909091,12 L0.909090909,12 C0.407013864,12 0,11.5929861 0,11.0909091 L0,0.909090909 C0,0.407013864 0.407013864,0 0.909090909,0 Z M5.85294118,6.54166667 L6.77941176,6.54166667 C7.3874426,6.54166667 7.76227099,6.24355754 8.07755826,5.71418632 C8.095969,5.68327446 8.1341956,5.61608708 8.16911765,5.5546126 C8.20403969,5.61608708 8.24226629,5.68327446 8.26067703,5.71418632 C8.5759643,6.24355754 8.9507927,6.54166667 9.55882353,6.54166667 L11,6.54166667 C11.2761424,6.54166667 11.5,6.31780904 11.5,6.04166667 C11.5,5.76552429 11.2761424,5.54166667 11,5.54166667 L9.55882353,5.54166667 C9.37549407,5.54166667 9.27357614,5.46060913 9.11983767,5.20248035 C9.09362644,5.15847137 8.98746835,4.96942816 8.95899208,4.92161615 C8.74997159,4.57066817 8.54020381,4.375 8.16911765,4.375 C7.79803149,4.375 7.5882637,4.57066817 7.37924321,4.92161615 C7.35076694,4.96942816 7.24460885,5.15847137 7.21839762,5.20248035 C7.06465916,5.46060913 6.96274123,5.54166667 6.77941176,5.54166667 L5.85294118,5.54166667 C5.87571174,5.54166667 5.8497761,5.52533682 5.78126131,5.43905893 C5.66203973,5.28892805 5.52906651,5.03775642 5.39117874,4.69048353 L4.99142036,3.68368464 L3.55810604,6.39105614 C3.42890242,6.63510743 3.52200485,6.93769033 3.76605614,7.06689396 C4.01010743,7.19609758 4.31269033,7.10299515 4.44189396,6.85894386 L4.91847288,5.95873924 C5.18392829,6.34045177 5.48386423,6.54166667 5.85294118,6.54166667 Z M4,8 L20,8 L20,9 L4,9 L4,8 Z M17,5 L20,5 L20,6 L17,6 L17,5 Z M14,3 L20,3 L20,4 L14,4 L14,3 Z"></path>
            </g>
        </g>
    </g>
</svg>