<?xml version="1.0" encoding="UTF-8"?>
<svg width="16px" height="16px" viewBox="0 0 16 16" version="1.1" xmlns="http://www.w3.org/2000/svg" xmlns:xlink="http://www.w3.org/1999/xlink">
    <title>Icon/Info/Fill/16</title>
    <g id="Page-1" stroke="none" stroke-width="1" fill="none" fill-rule="evenodd">
        <g id="Icons" transform="translate(-384.000000, -166.000000)" fill="#0071C4">
            <g id="Icon/Info/Fill/16" transform="translate(384.000000, 166.000000)">
                <path d="M8,0 C12.418278,0 16,3.581722 16,8 C16,12.418278 12.418278,16 8,16 C3.581722,16 0,12.418278 0,8 C0,3.581722 3.581722,0 8,0 Z M9,7 L7,7 L7,12 L9,12 L9,7 Z M8,4 C7.44771525,4 7,4.44771525 7,5 C7,5.55228475 7.44771525,6 8,6 C8.55228475,6 9,5.55228475 9,5 C9,4.44771525 8.55228475,4 8,4 Z"></path>
            </g>
        </g>
    </g>
</svg>