<?xml version="1.0" encoding="UTF-8"?>
<svg width="16px" height="16px" viewBox="0 0 16 16" version="1.1" xmlns="http://www.w3.org/2000/svg" xmlns:xlink="http://www.w3.org/1999/xlink">
    <title>Icon/Key/Fill/16</title>
    <g id="Page-1" stroke="none" stroke-width="1" fill="none" fill-rule="evenodd">
        <g id="Icons" transform="translate(-213.000000, -594.000000)" fill="#0071C4">
            <g id="Icon/Key/Fill/16" transform="translate(213.000000, 594.000000)">
                <path d="M10,0.295354516 L15.704633,5.99974554 C16.0984557,6.39355156 16.0984557,7.03203727 15.704633,7.42584329 L11.4261582,11.7041366 C11.0323355,12.0979426 10.3938227,12.0979426 10,11.7041366 L9.148,10.852 L4,16 L1.77635684e-15,16 L1.77635684e-15,12 L5.148,6.852 L4.29536704,5.99974554 C3.90154432,5.60593952 3.90154432,4.9674538 4.29536704,4.57364778 L8.57384176,0.295354516 C8.96766448,-0.0984515053 9.60617728,-0.0984515053 10,0.295354516 Z M6.82842712,8.32842712 L2,12.8284271 L2,14 L3.17157288,14 L8,9.5 L6.82842712,8.32842712 Z M9.28692088,3.86059891 C8.89309816,4.25440493 8.89309816,4.89289064 9.28692088,5.28669666 L10.7130791,6.71279442 C11.1069018,7.10660044 11.7454146,7.10660044 12.1392374,6.71279442 C12.5330601,6.3189884 12.5330601,5.68050268 12.1392374,5.28669666 L10.7130791,3.86059891 C10.3192564,3.46679288 9.6807436,3.46679288 9.28692088,3.86059891 Z"></path>
            </g>
        </g>
    </g>
</svg>