<?xml version="1.0" encoding="UTF-8"?>
<svg width="24px" height="25px" viewBox="0 0 24 25" version="1.1" xmlns="http://www.w3.org/2000/svg" xmlns:xlink="http://www.w3.org/1999/xlink">
    <title>Icon/Key/Fill/24</title>
    <g id="Page-1" stroke="none" stroke-width="1" fill="none" fill-rule="evenodd">
        <g id="Icons" transform="translate(-250.000000, -590.000000)" fill="#0071C4" fill-rule="nonzero">
            <g id="Icon/Key/Fill/24" transform="translate(250.000000, 590.000000)">
                <path d="M9.26315789,10.8456463 L7.05263158,13.0561726 L7.05263158,14.7403832 L2,19.7930147 L2,22.0172192 L4.22420445,22.0172192 L9.27683603,16.9645876 L10.9610466,16.9645876 L13.1715729,14.7540613 L9.26315789,10.8456463 Z M14.4345777,16.3194836 L11.7894737,18.9645876 L10.1052632,18.9645876 L5.05263158,24.0172192 L-2.48689958e-14,24.0172192 L-2.48689958e-14,18.9645876 L5.05263158,13.911956 L5.05263158,12.2277455 L7.69773559,9.5826415 L6.3266035,8.21150941 C5.89113217,7.77603808 5.89113217,7.06999956 6.3266035,6.63452823 L12.6345282,0.326603497 C13.0699996,-0.108867832 13.7760381,-0.108867832 14.2115094,0.326603497 L23.6733965,9.78849059 C24.1088678,10.2239619 24.1088678,10.9300004 23.6733965,11.3654718 L17.3654718,17.6733965 C16.9300004,18.1088678 16.2239619,18.1088678 15.7884906,17.6733965 L14.4345777,16.3194836 Z M16.2487286,4.93145388 C15.8582043,4.54092959 15.2250393,4.54092959 14.834515,4.93145388 C14.4439907,5.32197817 14.4439907,5.95514315 14.834515,6.34566744 L17.6629422,9.17409457 C18.0534664,9.56461886 18.6866314,9.56461886 19.0771557,9.17409457 C19.46768,8.78357028 19.46768,8.1504053 19.0771557,7.75988101 L16.2487286,4.93145388 Z"></path>
            </g>
        </g>
    </g>
</svg>