<?xml version="1.0" encoding="UTF-8"?>
<svg width="24px" height="24px" viewBox="0 0 24 24" version="1.1" xmlns="http://www.w3.org/2000/svg" xmlns:xlink="http://www.w3.org/1999/xlink">
    <title>Icon/Key/Outline/24</title>
    <g id="Page-1" stroke="none" stroke-width="1" fill="none" fill-rule="evenodd">
        <g id="Icons" transform="translate(-295.000000, -590.000000)" fill="#0071C4">
            <g id="Icon/Key/Outline/24" transform="translate(295.000000, 590.000000)">
                <path d="M4.49027212,14.3779883 L4.49027212,13.0950534 L7.0561419,10.5291836 L5.13173956,8.60478131 C4.77746688,8.25050862 4.77746688,7.6761191 5.13173956,7.32184642 L12.1878815,0.265704516 C12.5421542,-0.0885681719 13.1165437,-0.0885681719 13.4708164,0.265704516 L23.7342955,10.5291836 C24.0885682,10.8834563 24.0885682,11.4578458 23.7342955,11.8121185 L16.6781536,18.8682604 C16.3238809,19.2225331 15.7494914,19.2225331 15.3952187,18.8682604 L13.4708164,16.9438581 L10.9049466,19.5097279 L9.62201168,19.5097279 L5.13173956,24 L0,24 L0,18.8682604 L4.49027212,14.3779883 Z M1.82818246,22.1718175 L4.39405225,22.1718175 L8.88432437,17.6815454 L10.1672593,17.6815454 L12.1878815,15.6609232 L8.33907679,11.8121185 L6.31845458,13.8327407 L6.31845458,15.1156756 L1.82818246,19.6059478 L1.82818246,22.1718175 Z M12.8293489,2.19010685 L7.0561419,7.96331386 L16.0366861,16.9438581 L21.8098931,11.1706511 L12.8293489,2.19010685 Z M14.7537512,6.68037897 L17.319621,9.24624875 C17.6738937,9.60052144 17.6738937,10.174911 17.319621,10.5291836 C16.9653483,10.8834563 16.3909588,10.8834563 16.0366861,10.5291836 L13.4708164,7.96331386 C13.1165437,7.60904117 13.1165437,7.03465166 13.4708164,6.68037897 C13.825089,6.32610628 14.3994786,6.32610628 14.7537512,6.68037897 Z"></path>
            </g>
        </g>
    </g>
</svg>