<?xml version="1.0" encoding="UTF-8"?>
<svg width="16px" height="14px" viewBox="0 0 16 14" version="1.1" xmlns="http://www.w3.org/2000/svg" xmlns:xlink="http://www.w3.org/1999/xlink">
    <title>Icon/Devices/Printer/Outline/16</title>
    <g id="Page-1" stroke="none" stroke-width="1" fill="none" fill-rule="evenodd">
        <g id="Icons" transform="translate(-477.000000, -432.000000)" fill="#0071C4">
            <g id="Icon/Devices/Printer/Outline/16" transform="translate(477.000000, 432.000000)">
                <path d="M12.0046024,0 C12.5543453,0 13,0.437881351 13,1.00292933 L13,3 L15.0001925,3 C15.5523709,3 16,3.45303631 16,3.99703014 L16,10.0029699 C16,10.5536144 15.5553691,11 14.9991283,11 L13,11 L13,13.0001925 C13,13.5523709 12.5443356,14 12.0046024,14 L3.99539757,14 C3.44565467,14 3,13.5562834 3,13.0001925 L3,10.999 L1.00087166,11 C0.448105505,11 0,10.5469637 0,10.0029699 L0,3.99703014 C1.77635684e-15,3.4463856 0.443716645,3 0.999807492,3 L3,3 L3,1.00292933 C3,0.449026756 3.4556644,-8.8817842e-16 3.99539757,-8.8817842e-16 L12.0046024,0 Z M11,11 L5,11 L5,12 L11,12 L11,11 Z M3,5 L2,5 L2,9 L14,9 L14,5 L13,5 L13,7 L3,7 L3,5 Z M11,2 L5,2 L5,5 L11,5 L11,2 Z"></path>
            </g>
        </g>
    </g>
</svg>