<?xml version="1.0" encoding="UTF-8"?>
<svg width="24px" height="20px" viewBox="0 0 24 20" version="1.1" xmlns="http://www.w3.org/2000/svg" xmlns:xlink="http://www.w3.org/1999/xlink">
    <title>Icon/Devices/Printer/Outline/24</title>
    <g id="Page-1" stroke="none" stroke-width="1" fill="none" fill-rule="evenodd">
        <g id="Icons" transform="translate(-517.000000, -428.000000)" fill="#0071C4">
            <g id="Icon/Devices/Printer/Outline/24" transform="translate(517.000000, 428.000000)">
                <path d="M15,8 L8,8 L8,6 L15,6 L15,8 Z M16,3 L16,5 L8,5 L8,3 L16,3 Z M18.9991283,0 C19.5518945,0 20,0.444836974 20,0.995577499 L20,4 L23.009222,4 C23.5564136,4 24,4.45576096 24,5.00247329 L24,14.9975267 C24,15.5511774 23.5525308,16 22.9993054,16 L20,16 L20,19.009222 C20,19.5564136 19.5553691,20 18.9991283,20 L5.00087166,20 C4.4481055,20 4,19.5490248 4,19.009222 L4,16 L1.00069463,16 C0.448026248,16 0,15.544239 0,14.9975267 L0,5.00247329 C0,4.44882258 0.45097518,4 0.990777969,4 L4,4 L4,0.995577499 C4,0.445735229 4.44463086,0 5.00087166,0 L18.9991283,0 Z M2,14 L22,14 L22,6 L20,6 L20,11 L4,11 L4,6 L2,6 L2,14 Z M18,18 L18,16 L6,16 L6,18 L18,18 Z M18,9 L18,2 L6,2 L6,9 L18,9 Z"></path>
            </g>
        </g>
    </g>
</svg>