<?xml version="1.0" encoding="UTF-8"?>
<svg width="14px" height="14px" viewBox="0 0 14 14" version="1.1" xmlns="http://www.w3.org/2000/svg" xmlns:xlink="http://www.w3.org/1999/xlink">
    <title>Icon/NewWindow/16</title>
    <g id="Page-1" stroke="none" stroke-width="1" fill="none" fill-rule="evenodd">
        <g id="Icons" transform="translate(-122.000000, -757.000000)" fill="#0071C4">
            <g id="Icon/NewWindow/16" transform="translate(122.000000, 757.000000)">
                <path d="M5,0 C5.55228475,0 6,0.44771525 6,1 C6,1.55228475 5.55228475,2 5,2 L2,2 L2,12 L12,12 L12,9 C12,8.44771525 12.4477153,8 13,8 C13.5522847,8 14,8.44771525 14,9 L14,13 C14,13.5522847 13.5522847,14 13,14 L1,14 C0.44771525,14 6.76353751e-17,13.5522847 0,13 L0,1 C0,0.44771525 0.44771525,0 1,0 L5,0 Z M13.009222,0 C13.2813055,0 13.5277733,0.109742875 13.7068284,0.288462852 C13.8893106,0.47593315 14,0.722375058 14,0.990777969 L14,5.00922203 C14,5.55641359 13.5561352,6 13,6 C12.4477153,6 12,5.54902482 12,5.00922203 L11.9993376,3.41487599 L7.91487599,7.49933757 C7.52398585,7.89022771 6.89324696,7.89324696 6.5,7.5 C6.10947571,7.10947571 6.10435568,6.48143076 6.50066243,6.08512401 L10.585124,2.00066243 L8.99077797,2 C8.44358641,2 8,1.55613518 8,1 C8,0.44771525 8.45097518,0 8.99077797,0 L13.009222,0 Z"></path>
            </g>
        </g>
    </g>
</svg>