<?xml version="1.0" encoding="UTF-8"?>
<svg width="22px" height="22px" viewBox="0 0 22 22" version="1.1" xmlns="http://www.w3.org/2000/svg" xmlns:xlink="http://www.w3.org/1999/xlink">
    <title>Icon/NewWindow/24</title>
    <g id="Page-1" stroke="none" stroke-width="1" fill="none" fill-rule="evenodd">
        <g id="Icons" transform="translate(-165.000000, -753.000000)" fill="#0071C4" fill-rule="nonzero">
            <g id="Icon/NewWindow/24" transform="translate(165.000000, 753.000000)">
                <path d="M8,0 C8.55228475,-1.01453063e-16 9,0.44771525 9,1 C9,1.55228475 8.55228475,2 8,2 L2,2 L2,20 L20,20 L20,14 C20,13.4477153 20.4477153,13 21,13 C21.5522847,13 22,13.4477153 22,14 L22,21 C22,21.5522847 21.5522847,22 21,22 L1,22 C0.44771525,22 6.76353751e-17,21.5522847 0,21 L0,1 C-6.76353751e-17,0.44771525 0.44771525,1.01453063e-16 1,0 L8,0 Z M21,0 C21.2761424,0 21.5261424,0.111928813 21.7071068,0.292893219 C21.8880712,0.473857625 22,0.723857625 22,1 L22,1 L22,8 C22,8.55228475 21.5522847,9 21,9 C20.4477153,9 20,8.55228475 20,8 L20,8 L20,3.41421356 L10.7071068,12.7071068 C10.3165825,13.0976311 9.68341751,13.0976311 9.29289322,12.7071068 C8.90236893,12.3165825 8.90236893,11.6834175 9.29289322,11.2928932 L9.29289322,11.2928932 L18.5857864,2 L14,2 C13.4477153,2 13,1.55228475 13,1 C13,0.44771525 13.4477153,0 14,0 L14,0 Z"></path>
            </g>
        </g>
    </g>
</svg>