<?xml version="1.0" encoding="UTF-8"?>
<svg width="12px" height="16px" viewBox="0 0 12 16" version="1.1" xmlns="http://www.w3.org/2000/svg" xmlns:xlink="http://www.w3.org/1999/xlink">
    <title>Icon/Lightbulb/16</title>
    <g id="Page-1" stroke="none" stroke-width="1" fill="none" fill-rule="evenodd">
        <g id="Icons" transform="translate(-346.000000, -594.000000)" fill="#0071C4" fill-rule="nonzero">
            <g id="Icon/Lightbulb/16" transform="translate(346.000000, 594.000000)">
                <path d="M4,11 L8,11 L8,9.57818371 L8.6661724,8.98194324 C9.5105786,8.22617929 10,7.15487458 10,6 C10,3.790861 8.209139,2 6,2 C3.790861,2 2,3.790861 2,6 C2,7.15487458 2.48942144,8.22617929 3.33382757,8.98194324 L4,9.57818371 L4,11 Z M8,14 L8,15 C8,15.5522847 7.55228475,16 7,16 L5,16 C4.44771525,16 4,15.5522847 4,15 L4,14 L3,14 C2.44771525,14 2,13.5522847 2,13 L2,10.472213 C0.77250128,9.37357191 0,7.77699963 0,6 C0,2.6862915 2.6862915,0 6,0 C9.3137085,0 12,2.6862915 12,6 C12,7.77699963 11.2274987,9.37357191 10,10.472213 L10,13 C10,13.5522847 9.5522847,14 9,14 L8,14 Z"></path>
            </g>
        </g>
    </g>
</svg>