<?xml version="1.0" encoding="UTF-8"?>
<svg width="24px" height="24px" viewBox="0 0 24 24" version="1.1" xmlns="http://www.w3.org/2000/svg" xmlns:xlink="http://www.w3.org/1999/xlink">
    <title>Icon/Lightbulb/24</title>
    <g id="Page-1" stroke="none" stroke-width="1" fill="none" fill-rule="evenodd">
        <g id="Icons" transform="translate(-380.000000, -590.000000)" fill="#0071C4" fill-rule="nonzero">
            <g id="Icon/Lightbulb/24" transform="translate(380.000000, 590.000000)">
                <path d="M15,18 L15,16.0824115 L15.5715181,15.4991829 C16.4825654,14.5694682 17,13.3281174 17,12 C17,9.23857625 14.7614237,7 12,7 C9.23857625,7 7,9.23857625 7,12 C7,13.3281174 7.51743456,14.5694682 8.42848186,15.4991829 L9,16.0824115 L9,18 L15,18 Z M15,21 C15.5522847,21 16,21.4477153 16,22 C16,22.5522847 15.5522847,23 15,23 L14,23 C14,23.5522847 13.5522847,24 13,24 L11,24 C10.4477153,24 10,23.5522847 10,23 L9,23 C8.44771525,23 8,22.5522847 8,22 C8,21.4477153 8.44771525,21 9,21 L15,21 Z M12,5 C15.8659932,5 19,8.13400675 19,12 C19,13.9073051 18.237187,15.6364456 17,16.8989827 L17,19 C17,19.5522847 16.5522847,20 16,20 L8,20 C7.44771525,20 7,19.5522847 7,19 L7,16.8989827 C5.76281298,15.6364456 5,13.9073051 5,12 C5,8.13400675 8.13400675,5 12,5 Z M2,11 C2.55228475,11 3,11.4477153 3,12 C3,12.5522847 2.55228475,13 2,13 L1,13 C0.44771525,13 0,12.5522847 0,12 C0,11.4477153 0.44771525,11 1,11 L2,11 Z M23,11 C23.5522847,11 24,11.4477153 24,12 C24,12.5522847 23.5522847,13 23,13 L22,13 C21.4477153,13 21,12.5522847 21,12 C21,11.4477153 21.4477153,11 22,11 L23,11 Z M22.1213203,3.29289322 C22.5118446,3.68341751 22.5118446,4.31658249 22.1213203,4.70710678 L20.7071068,6.12132034 C20.3165825,6.51184464 19.6834175,6.51184464 19.2928932,6.12132034 C18.9023689,5.73079605 18.9023689,5.09763107 19.2928932,4.70710678 L20.7071068,3.29289322 C21.0976311,2.90236893 21.7307961,2.90236893 22.1213203,3.29289322 Z M2.70710678,3.29289322 L4.12132034,4.70710678 C4.51184464,5.09763107 4.51184464,5.73079605 4.12132034,6.12132034 C3.73079605,6.51184464 3.09763107,6.51184464 2.70710678,6.12132034 L1.29289322,4.70710678 C0.902368927,4.31658249 0.902368927,3.68341751 1.29289322,3.29289322 C1.68341751,2.90236893 2.31658249,2.90236893 2.70710678,3.29289322 Z M12,0 C12.5522847,0 13,0.44771525 13,1 L13,2 C13,2.55228475 12.5522847,3 12,3 C11.4477153,3 11,2.55228475 11,2 L11,1 C11,0.44771525 11.4477153,0 12,0 Z"></path>
            </g>
        </g>
    </g>
</svg>