<?xml version="1.0" encoding="UTF-8"?>
<svg width="16px" height="16px" viewBox="0 0 16 16" version="1.1" xmlns="http://www.w3.org/2000/svg" xmlns:xlink="http://www.w3.org/1999/xlink">
    <title>Icon/Refresh/16</title>
    <g id="Page-1" stroke="none" stroke-width="1" fill="none" fill-rule="evenodd">
        <g id="Icons" transform="translate(-384.000000, -806.000000)" fill="#0071C4" fill-rule="nonzero">
            <g id="Icon/Refresh/16" transform="translate(384.000000, 806.000000)">
                <path d="M7.92820125,14 C4.93602126,14 2.41214649,11.795712 1.98989769,8.86422292 C1.91115976,8.31757982 1.40419182,7.93826825 0.857553121,8.01700682 C0.310914418,8.09574539 -0.0683940988,8.6027174 0.010343836,9.14936051 C0.573877138,13.0617262 3.93815399,16 7.92820125,16 C10.0089493,16 11.9540587,15.1988567 13.4117077,13.8259004 L14.292907,14.7071068 C14.9228668,15.3370716 16,14.8909049 16,14 L16,11 C16,10.4477153 15.5522884,10 15,10 L12.0000322,10 C11.1091345,10 10.6629713,11.0771419 11.2929311,11.7071068 L11.9966654,12.4108467 C10.9082899,13.4157398 9.4684234,14 7.92820125,14 Z M3.93509233,3.52078164 L4.7071977,4.29289322 C5.33715749,4.92285808 4.89099429,6 4.00009661,6 L1.00012881,6 C0.44784046,6 0.000128814084,5.55228475 0.000128814084,5 L0.000128814084,2 C0.000128814084,1.10909515 1.07726206,0.662928358 1.70722185,1.29289322 L2.51918295,2.10486086 C3.96873624,0.773778058 5.88321564,0 7.92820125,0 C11.9230061,0 15.2899526,2.94514432 15.8478861,6.86339918 C15.9257424,7.41016855 15.5456168,7.91652823 14.9988519,7.99438518 C14.4520869,8.07224213 13.9457313,7.69211351 13.867875,7.14534414 C13.4498215,4.20943829 10.9239485,2 7.92820125,2 C6.4236037,2 5.0144802,2.55745534 3.93509233,3.52078164 L3.93509233,3.52078164 Z"></path>
            </g>
        </g>
    </g>
</svg>