<?xml version="1.0" encoding="UTF-8"?>
<svg width="22px" height="22px" viewBox="0 0 22 22" version="1.1" xmlns="http://www.w3.org/2000/svg" xmlns:xlink="http://www.w3.org/1999/xlink">
    <title>Icon/Refresh/24</title>
    <g id="Page-1" stroke="none" stroke-width="1" fill="none" fill-rule="evenodd">
        <g id="Icons" transform="translate(-427.000000, -802.000000)" fill="#0071C4" fill-rule="nonzero">
            <g id="Icon/Refresh/24" transform="translate(427.000000, 802.000000)">
                <path d="M1.21939562,10.7843542 C1.99542405,10.673852 2.71409911,11.2133676 2.82460129,11.9893961 C3.40771269,16.0844376 6.93090596,19.1662297 11.1094835,19.1662297 C13.3621368,19.1662297 15.4613397,18.2704057 17.0030485,16.7402006 L17.0030484,16.7402007 L17.0475157,16.6957334 C17.158504,16.5839107 17.2665417,16.468767 17.3714748,16.3504019 L17.3714748,16.3504019 L16.4176738,15.3966009 C15.8003915,14.7793186 16.2313334,13.7301045 17.1006514,13.7337555 L17.1006514,13.7337555 L21.0037305,13.7501476 C21.5426333,13.7524109 21.981335,14.1911127 21.9835983,14.7300154 L21.9835983,14.7300154 L22,18.6330945 C22.0036415,19.5024125 20.9544273,19.9333544 20.3371451,19.3160721 L20.3371451,19.3160721 L19.3813751,18.3603022 C17.2899744,20.6484975 14.3140997,22.0048249 11.1094835,22.0048249 C5.51293449,22.0048249 0.795998052,17.878847 0.014353751,12.3895599 C-0.09614843,11.6135314 0.443367192,10.8948564 1.21939562,10.7843542 Z M10.8905165,-3.55271368e-15 C16.4870655,-3.55271368e-15 21.2040019,4.12597787 21.9856462,9.61526498 C22.0961484,10.3912934 21.5566328,11.1099685 20.7806044,11.2204707 C20.004576,11.3309728 19.2859009,10.7914572 19.1753987,10.0154288 C18.5922873,5.92038723 15.069094,2.83859512 10.8905165,2.83859512 C8.63786324,2.83859512 6.53866028,3.73441913 4.99695153,5.26462424 L4.99695157,5.2646242 L4.95248431,5.30909146 C4.84149595,5.42091413 4.73345826,5.53605784 4.62852519,5.65442296 L4.62852519,5.65442296 L5.58232618,6.60822395 C6.19960847,7.22550624 5.76866658,8.27472036 4.89934856,8.27106939 L4.89934856,8.27106939 L0.996269481,8.25467722 C0.457366718,8.25241394 0.0186649557,7.81371218 0.0164016697,7.27480941 L0.0164016697,7.27480941 L0,3.37173034 C-0.00364146227,2.50241232 1.04557265,2.07147042 1.66285494,2.68875271 L1.66285494,2.68875271 L2.6186249,3.64452267 C4.71002563,1.35632738 7.68590028,-3.55271368e-15 10.8905165,-3.55271368e-15 Z"></path>
            </g>
        </g>
    </g>
</svg>