<?xml version="1.0" encoding="UTF-8"?>
<svg width="16px" height="12px" viewBox="0 0 16 12" version="1.1" xmlns="http://www.w3.org/2000/svg" xmlns:xlink="http://www.w3.org/1999/xlink">
    <title>Icon/IDBack/16</title>
    <g id="Page-1" stroke="none" stroke-width="1" fill="none" fill-rule="evenodd">
        <g id="Icons" transform="translate(-477.000000, -545.000000)" fill="#0071C4" fill-rule="nonzero">
            <g id="Icon/IDBack/16" transform="translate(477.000000, 545.000000)">
                <path d="M2,2 L2,10 L14,10 L14,2 L2,2 Z M0,1.00247329 C0,0.448822582 0.444630861,0 1.00087166,0 L14.9991283,0 C15.5518945,0 16,0.455760956 16,1.00247329 L16,10.9975267 C16,11.5511774 15.5468037,12 15.0026177,12 L0.996678026,12 C0.446227952,12 0,11.544239 0,10.9975267 L0,1.00247329 Z M1,3 L15,3 L15,5 L1,5 L1,3 Z M4,7 C4.55228475,7 5,7.44771525 5,8 C5,8.55228475 4.55228475,9 4,9 C3.44771525,9 3,8.55228475 3,8 C3,7.44771525 3.44771525,7 4,7 Z M11,7 C11.5522847,7 12,7.44771525 12,8 C12,8.55228475 11.5522847,9 11,9 C10.4477153,9 10,8.55228475 10,8 C10,7.44771525 10.4477153,7 11,7 Z M7,7 L8,7 C8.55228475,7 9,7.44771525 9,8 C9,8.55228475 8.55228475,9 8,9 L7,9 C6.44771525,9 6,8.55228475 6,8 C6,7.44771525 6.44771525,7 7,7 Z"></path>
            </g>
        </g>
    </g>
</svg>