<?xml version="1.0" encoding="UTF-8"?>
<svg width="24px" height="18px" viewBox="0 0 24 18" version="1.1" xmlns="http://www.w3.org/2000/svg" xmlns:xlink="http://www.w3.org/1999/xlink">
    <title>Icon/IDBack/24</title>
    <g id="Page-1" stroke="none" stroke-width="1" fill="none" fill-rule="evenodd">
        <g id="Icons" transform="translate(-517.000000, -542.000000)" fill="#0071C4" fill-rule="nonzero">
            <g id="Icon/IDBack/24" transform="translate(517.000000, 542.000000)">
                <path d="M2,2 L2,16 L22,16 L22,2 L2,2 Z M0.909090909,0 L23.0909091,0 C23.5929861,0 24,0.407013864 24,0.909090909 L24,17.0909091 C24,17.5929861 23.5929861,18 23.0909091,18 L0.909090909,18 C0.407013864,18 0,17.5929861 0,17.0909091 L0,0.909090909 C0,0.407013864 0.407013864,0 0.909090909,0 Z M1,4 L23,4 L23,6 L1,6 L1,4 Z M4,10 L5,10 L5,14 L4,14 L4,10 Z M17,10 L18,10 L18,14 L17,14 L17,10 Z M19,10 L20,10 L20,14 L19,14 L19,10 Z M9,10 L11,10 L11,14 L9,14 L9,10 Z M14,10 L16,10 L16,14 L14,14 L14,10 Z M6,10 L8,10 L8,14 L6,14 L6,10 Z M12,10 L13,10 L13,14 L12,14 L12,10 Z"></path>
            </g>
        </g>
    </g>
</svg>