<?xml version="1.0" encoding="UTF-8"?>
<svg width="14px" height="14px" viewBox="0 0 14 14" version="1.1" xmlns="http://www.w3.org/2000/svg" xmlns:xlink="http://www.w3.org/1999/xlink">
    <title>Icon/SearchTransaction/16</title>
    <g id="Page-1" stroke="none" stroke-width="1" fill="none" fill-rule="evenodd">
        <g id="Icons" transform="translate(-122.000000, -854.000000)" fill="#0071C4">
            <g id="Icon/SearchTransaction/16" transform="translate(122.000000, 854.000000)">
                <path d="M6,0 C9.3137085,0 12,2.6862915 12,6 C12,7.29583043 11.589209,8.49571549 10.8907479,9.47653436 L10.8907479,9.47653436 L13.7071068,12.2928932 C14.0976311,12.6834175 14.0976311,13.3165825 13.7071068,13.7071068 C13.3165825,14.0976311 12.6834175,14.0976311 12.2928932,13.7071068 L12.2928932,13.7071068 L9.47653436,10.8907479 C8.49571549,11.589209 7.29583043,12 6,12 C2.6862915,12 0,9.3137085 0,6 C0,2.6862915 2.6862915,0 6,0 Z M6,2 C3.790861,2 2,3.790861 2,6 C2,8.209139 3.790861,10 6,10 C8.209139,10 10,8.209139 10,6 C10,3.790861 8.209139,2 6,2 Z M6.65643432,3 L6.59209115,3.63378016 C6.8237277,3.67667582 7.02318951,3.74584403 7.19048257,3.84128686 C7.35777564,3.9367297 7.49932918,4.03914154 7.61514745,4.14852547 L7.37064343,4.50563003 C7.33418212,4.5592496 7.29718517,4.5983913 7.25965147,4.6230563 C7.22211777,4.6477213 7.1776142,4.66005362 7.12613941,4.66005362 C7.09182288,4.66005362 7.05321737,4.65254699 7.01032172,4.63753351 C6.96742606,4.62252003 6.92024154,4.60375346 6.86876676,4.58123324 C6.81729197,4.55871302 6.76206464,4.53458458 6.70308311,4.50884718 C6.64410158,4.48310979 6.58136762,4.46058991 6.51487936,4.44128686 L6.40227882,5.58337802 C6.5052284,5.61340498 6.60817643,5.64611242 6.71112601,5.68150134 C6.81407558,5.71689026 6.9132703,5.75764052 7.00871314,5.80375335 C7.10415597,5.84986618 7.19316313,5.90294876 7.27573727,5.96300268 C7.3583114,6.0230566 7.43016055,6.09383337 7.49128686,6.17533512 C7.55241317,6.25683687 7.60013388,6.35066971 7.6344504,6.45683646 C7.66876693,6.56300321 7.68592493,6.68364544 7.68592493,6.81876676 C7.68592493,7.02252113 7.65160892,7.21394012 7.58297587,7.39302949 C7.51434282,7.57211886 7.41353954,7.73029422 7.280563,7.86756032 C7.14758647,8.00482642 6.98458542,8.11688965 6.79155496,8.20375335 C6.5985245,8.29061706 6.37761518,8.34369964 6.12882038,8.36300268 L6.09021448,8.76514745 C6.08378013,8.82520137 6.05697075,8.87935633 6.00978552,8.92761394 C5.9626003,8.97587155 5.90147491,9 5.82640751,9 L5.45965147,9 L5.52399464,8.33726542 C5.27734461,8.29651454 5.04195823,8.22520158 4.81782842,8.1233244 C4.59369861,8.02144721 4.40442436,7.89866024 4.25,7.75495979 L4.55884718,7.3077748 C4.58458458,7.27131349 4.61943678,7.24075079 4.66340483,7.21608579 C4.70737287,7.19142079 4.7540212,7.17908847 4.80335121,7.17908847 C4.85482599,7.17908847 4.90737239,7.19249316 4.96099196,7.21930295 C5.01461153,7.24611273 5.07305598,7.27882018 5.13632708,7.31742627 C5.19959817,7.35603236 5.26876638,7.39517406 5.34383378,7.43485255 C5.41890118,7.47453103 5.50469121,7.50723848 5.60120643,7.53297587 L5.72024129,6.31689008 C5.56581692,6.27399442 5.41246725,6.22359278 5.26018767,6.16568365 C5.10790809,6.10777451 4.97064404,6.02949111 4.84839142,5.9308311 C4.7261388,5.83217109 4.62694408,5.70670317 4.55080429,5.55442359 C4.4746645,5.40214401 4.43659517,5.2112612 4.43659517,4.98176944 C4.43659517,4.81233159 4.47091118,4.64718579 4.53954424,4.48632708 C4.60817729,4.32546836 4.70844438,4.18069769 4.84034853,4.05201072 C4.97225267,3.92332375 5.13471753,3.81769478 5.32774799,3.73512064 C5.52077845,3.6525465 5.74168776,3.6048258 5.99048257,3.5919571 L6.02587131,3.23485255 C6.03230566,3.17479863 6.05911505,3.12064367 6.10630027,3.07238606 C6.15348549,3.02412845 6.21461088,3 6.28967828,3 L6.65643432,3 Z M6.31219839,6.49061662 L6.20924933,7.55227882 C6.5631385,7.49008012 6.74008043,7.29490781 6.74008043,6.96675603 C6.74008043,6.84450341 6.70093873,6.74691725 6.62265416,6.67399464 C6.54436958,6.60107202 6.44088536,6.53994663 6.31219839,6.49061662 Z M5.91005362,4.41876676 C5.81139361,4.43378024 5.72828452,4.45576393 5.66072386,4.4847185 C5.5931632,4.51367307 5.53847206,4.54852527 5.49664879,4.58927614 C5.45482553,4.63002701 5.42426283,4.67560297 5.40495979,4.72600536 C5.38565674,4.77640776 5.37600536,4.82949034 5.37600536,4.88525469 C5.37600536,5.01179688 5.41621944,5.11420872 5.49664879,5.1924933 C5.57707815,5.27077787 5.68270712,5.33672895 5.81353887,5.39034853 L5.91005362,4.41876676 Z"></path>
            </g>
        </g>
    </g>
</svg>