<?xml version="1.0" encoding="UTF-8"?>
<svg width="22px" height="22px" viewBox="0 0 22 22" version="1.1" xmlns="http://www.w3.org/2000/svg" xmlns:xlink="http://www.w3.org/1999/xlink">
    <title>Icon/SearchTransaction/24</title>
    <g id="Page-1" stroke="none" stroke-width="1" fill="none" fill-rule="evenodd">
        <g id="Icons" transform="translate(-165.000000, -850.000000)" fill="#0071C4" fill-rule="nonzero">
            <g id="Icon/SearchTransaction/24" transform="translate(165.000000, 850.000000)">
                <path d="M9.5,4.79616347e-14 C14.7467051,4.79616347e-14 19,4.25329488 19,9.5 C19,11.7631465 18.2086338,13.8414595 16.8875269,15.4733134 L21.7071068,20.2928932 C22.0976311,20.6834175 22.0976311,21.3165825 21.7071068,21.7071068 C21.3165825,22.0976311 20.6834175,22.0976311 20.2928932,21.7071068 L15.4733134,16.8875269 C13.8414595,18.2086338 11.7631465,19 9.5,19 C4.25329488,19 -5.32907052e-15,14.7467051 -5.32907052e-15,9.5 C-5.32907052e-15,4.25329488 4.25329488,4.79616347e-14 9.5,4.79616347e-14 Z M9.5,2 C5.35786438,2 2,5.35786438 2,9.5 C2,13.6421356 5.35786438,17 9.5,17 C13.6421356,17 17,13.6421356 17,9.5 C17,5.35786438 13.6421356,2 9.5,2 Z M10.8128686,3.5 L10.6841823,4.76756032 C11.1474554,4.85335164 11.546379,4.99168805 11.8809651,5.18257373 C12.2155513,5.3734594 12.4986584,5.57828309 12.7302949,5.79705094 L12.2412869,6.51126005 C12.1683642,6.6184992 12.0943703,6.6967826 12.0193029,6.7461126 C11.9442355,6.79544261 11.8552284,6.82010724 11.7522788,6.82010724 C11.6836458,6.82010724 11.6064347,6.80509398 11.5206434,6.77506702 C11.4348521,6.74504006 11.3404831,6.70750693 11.2375335,6.66246649 C11.1345839,6.61742605 11.0241293,6.56916916 10.9061662,6.51769437 C10.7882032,6.46621958 10.6627352,6.42117982 10.5297587,6.38257373 L10.3045576,8.66675603 C10.5104568,8.72680995 10.7163529,8.79222485 10.922252,8.86300268 C11.1281512,8.93378051 11.3265406,9.01528104 11.5174263,9.1075067 C11.7083119,9.19973236 11.8863263,9.30589752 12.0514745,9.42600536 C12.2166228,9.5461132 12.3603211,9.68766675 12.4825737,9.85067024 C12.6048263,10.0136737 12.7002678,10.2013394 12.7689008,10.4136729 C12.8375339,10.6260064 12.8718499,10.8672909 12.8718499,11.1375335 C12.8718499,11.5450423 12.8032178,11.9278802 12.6659517,12.286059 C12.5286856,12.6442377 12.3270791,12.9605884 12.061126,13.2351206 C11.7951729,13.5096528 11.4691708,13.7337793 11.0831099,13.9075067 C10.697049,14.0812341 10.2552304,14.1873993 9.75764075,14.2260054 L9.68042895,15.0302949 C9.66756026,15.1504027 9.61394149,15.2587127 9.51957105,15.3552279 C9.4252006,15.4517431 9.30294981,15.5 9.15281501,15.5 L8.41930295,15.5 L8.54798928,14.1745308 C8.05468922,14.0930291 7.58391645,13.9504032 7.13565684,13.7466488 C6.68739722,13.5428944 6.30884873,13.2973205 6,13.0099196 L6.61769437,12.1155496 C6.66916916,12.042627 6.73887355,11.9815016 6.82680965,11.9321716 C6.91474575,11.8828416 7.0080424,11.8581769 7.10670241,11.8581769 C7.20965199,11.8581769 7.31474477,11.8849863 7.42198391,11.9386059 C7.52922306,11.9922255 7.64611197,12.0576404 7.77265416,12.1348525 C7.89919634,12.2120647 8.03753276,12.2903481 8.18766756,12.3697051 C8.33780236,12.4490621 8.50938241,12.514477 8.70241287,12.5659517 L8.94048257,10.1337802 C8.63163384,10.0479888 8.3249345,9.94718557 8.02037534,9.83136729 C7.71581617,9.71554902 7.44128809,9.55898222 7.19678284,9.3616622 C6.9522776,9.16434218 6.75388816,8.91340635 6.60160858,8.60884718 C6.449329,8.30428802 6.37319035,7.9225224 6.37319035,7.46353887 C6.37319035,7.12466318 6.44182237,6.79437158 6.57908847,6.47265416 C6.71635457,6.15093673 6.91688876,5.86139539 7.18069705,5.60402145 C7.44450534,5.34664751 7.76943507,5.13538957 8.15549598,4.97024129 C8.54155689,4.80509301 8.98337553,4.7096516 9.48096515,4.68391421 L9.55174263,3.96970509 C9.56461132,3.84959725 9.61823009,3.74128735 9.71260054,3.64477212 C9.80697098,3.54825689 9.92922177,3.5 10.0793566,3.5 L10.8128686,3.5 Z M10.1243968,10.4812332 L9.91849866,12.6045576 C10.626277,12.4801602 10.9801609,12.0898156 10.9801609,11.4335121 C10.9801609,11.1890068 10.9018775,10.9938345 10.7453083,10.8479893 C10.5887392,10.702144 10.3817707,10.5798933 10.1243968,10.4812332 Z M9.32010724,6.33753351 C9.12278722,6.36756047 8.95656904,6.41152786 8.82144772,6.469437 C8.6863264,6.52734613 8.57694412,6.59705053 8.49329759,6.67855228 C8.40965106,6.76005403 8.34852566,6.85120593 8.30991957,6.95201072 C8.27131348,7.05281552 8.25201072,7.15898068 8.25201072,7.27050938 C8.25201072,7.52359376 8.33243887,7.72841745 8.49329759,7.8849866 C8.6541563,8.04155574 8.86541424,8.17345791 9.12707775,8.28069705 L9.32010724,6.33753351 Z"></path>
            </g>
        </g>
    </g>
</svg>