<?xml version="1.0" encoding="UTF-8"?>
<svg width="16px" height="16px" viewBox="0 0 16 16" version="1.1" xmlns="http://www.w3.org/2000/svg" xmlns:xlink="http://www.w3.org/1999/xlink">
    <title>Icon/Truthmark/16</title>
    <g id="Page-1" stroke="none" stroke-width="1" fill="none" fill-rule="evenodd">
        <g id="Icons" transform="translate(-121.000000, -945.000000)" fill="#0071C4" fill-rule="nonzero">
            <g id="Icon/Truthmark/16" transform="translate(121.000000, 945.000000)">
                <path d="M8.00082149,0 C3.58187137,0 0,3.59175397 0,8.02289625 C0,12.1676242 3.1337583,15.5769263 7.15544357,16 L11.408326,11.4412386 L11.408326,15.7083474 L16,15.7083474 L16,8.02289625 C16,3.59175397 12.4180865,0 8.00082149,0 L8.00082149,0 Z M11.4082839,11.4412386 L7.99496573,11.4412386 C6.11059066,11.4412386 4.5833748,9.9081193 4.5833748,8.01791146 C4.5833748,6.12829503 6.11059066,4.59602062 7.99496573,4.59602062 C9.88022549,4.59602062 11.4082839,6.12829503 11.4082839,8.01791146 L11.4082839,11.4412386 Z"></path>
            </g>
        </g>
    </g>
</svg>