<?xml version="1.0" encoding="UTF-8"?>
<svg width="24px" height="24px" viewBox="0 0 24 24" version="1.1" xmlns="http://www.w3.org/2000/svg" xmlns:xlink="http://www.w3.org/1999/xlink">
    <title>Icon/Truthmark/24</title>
    <g id="Page-1" stroke="none" stroke-width="1" fill="none" fill-rule="evenodd">
        <g id="Icons" transform="translate(-164.000000, -941.000000)" fill="#0071C4" fill-rule="nonzero">
            <g id="Icon/Truthmark/24" transform="translate(164.000000, 941.000000)">
                <path d="M11.9948211,-1.95399252e-14 C5.36993684,-1.95399252e-14 0,5.36993684 0,11.9948211 C0,18.1914947 4.69812632,23.2886526 10.7274316,23.9211789 L17.1033474,17.1054947 L17.1033474,23.4851368 L23.9871789,23.4851368 L23.9871789,11.9948211 C23.9871789,5.36993684 18.6171789,-1.95399252e-14 11.9948211,-1.95399252e-14 L11.9948211,-1.95399252e-14 Z M17.1032842,17.1054947 L11.9860421,17.1054947 C9.16098947,17.1054947 6.87138947,14.8133684 6.87138947,11.9873684 C6.87138947,9.16225263 9.16098947,6.87138947 11.9860421,6.87138947 C14.8124211,6.87138947 17.1032842,9.16225263 17.1032842,11.9873684 L17.1032842,17.1054947 Z"></path>
            </g>
        </g>
    </g>
</svg>