<?xml version="1.0" encoding="UTF-8"?>
<svg width="14px" height="16px" viewBox="0 0 14 16" version="1.1" xmlns="http://www.w3.org/2000/svg" xmlns:xlink="http://www.w3.org/1999/xlink">
    <title>Icon/MoneyStack/16</title>
    <g id="Page-1" stroke="none" stroke-width="1" fill="none" fill-rule="evenodd">
        <g id="Icons" transform="translate(-29.000000, -756.000000)" fill="#0071C4" fill-rule="nonzero">
            <g id="Icon/MoneyStack/16" transform="translate(29.000000, 756.000000)">
                <path d="M2,2 L2,6 L12,6 L12,2 L2,2 Z M12.9931545,0 C13.5492199,0 14,0.453036308 14,0.997030139 L14,7.00296986 C14,7.5536144 13.5500512,8 12.9931545,8 L1.00684547,8 C0.450780073,8 0,7.54696369 0,7.00296986 L0,0.997030139 C0,0.446385598 0.449948758,0 1.00684547,0 L12.9931545,0 Z M7,2 C5.8954305,2 5,2.8954305 5,4 C5,5.1045695 5.8954305,6 7,6 C8.1045695,6 9,5.1045695 9,4 C9,2.8954305 8.1045695,2 7,2 Z M12.9931545,14 C13.509501,14 13.9350657,14.3827202 13.9932262,14.8826674 L14,15 C14,15.5522847 13.5500512,16 12.9931545,16 L1.00684547,16 C0.450780073,16 0,15.5561352 0,15 C0,14.4477153 0.449948758,14 1.00684547,14 L12.9931545,14 Z M12.9931545,10 C13.509501,10 13.9350657,10.3827202 13.9932262,10.8826674 L14,11 C14,11.5522847 13.5500512,12 12.9931545,12 L1.00684547,12 C0.450780073,12 0,11.5561352 0,11 C0,10.4477153 0.449948758,10 1.00684547,10 L12.9931545,10 Z M7,0 C9.209139,0 11,1.790861 11,4 C11,6.209139 9.209139,8 7,8 C4.790861,8 3,6.209139 3,4 C3,1.790861 4.790861,0 7,0 Z"></path>
            </g>
        </g>
    </g>
</svg>