<?xml version="1.0" encoding="UTF-8"?>
<svg width="22px" height="20px" viewBox="0 0 22 20" version="1.1" xmlns="http://www.w3.org/2000/svg" xmlns:xlink="http://www.w3.org/1999/xlink">
    <title>Icon/MoneyStack/24</title>
    <g id="Page-1" stroke="none" stroke-width="1" fill="none" fill-rule="evenodd">
        <g id="Icons" transform="translate(-74.000000, -754.000000)" fill="#0071C4" fill-rule="nonzero">
            <g id="Icon/MoneyStack/24" transform="translate(74.000000, 754.000000)">
                <path d="M20.9975383,18 C21.5116366,18 21.9353484,18.3827202 21.9932557,18.8826674 L22,19 C22,19.5522847 21.5605417,20 20.9975383,20 L1.00246167,20 C0.448817378,20 0,19.5561352 0,19 C0,18.4477153 0.43945834,18 1.00246167,18 L20.9975383,18 Z M20.9975383,14 C21.5116366,14 21.9353484,14.3827202 21.9932557,14.8826674 L22,15 C22,15.5522847 21.5605417,16 20.9975383,16 L1.00246167,16 C0.448817378,16 0,15.5561352 0,15 C0,14.4477153 0.43945834,14 1.00246167,14 L20.9975383,14 Z M20.9975383,0 C21.5511826,0 22,0.455760956 22,1.00247329 L22,10.9975267 C22,11.5511774 21.5605417,12 20.9975383,12 L1.00246167,12 C0.448817378,12 0,11.544239 0,10.9975267 L0,1.00247329 C0,0.448822582 0.43945834,0 1.00246167,0 L20.9975383,0 Z M18,2 L4,2 L4,3 C4,3.55228475 3.55228475,4 3,4 L2,4 L2,8 L3,8 C3.55228475,8 4,8.44771525 4,9 L4,10 L11,10 L11,10 C8.790861,10 7,8.209139 7,6 C7,3.790861 8.790861,2 11,2 C13.209139,2 15,3.790861 15,6 C15,8.209139 13.209139,10 11,10 L18,10 L18,9 C18,8.44771525 18.4477153,8 19,8 L20,8 L20,4 L19,4 C18.4477153,4 18,3.55228475 18,3 L18,2 Z M11,4 C9.8954305,4 9,4.8954305 9,6 C9,7.1045695 9.8954305,8 11,8 C12.1045695,8 13,7.1045695 13,6 C13,4.8954305 12.1045695,4 11,4 Z"></path>
            </g>
        </g>
    </g>
</svg>