<?xml version="1.0" encoding="UTF-8"?>
<svg width="14px" height="12px" viewBox="0 0 14 12" version="1.1" xmlns="http://www.w3.org/2000/svg" xmlns:xlink="http://www.w3.org/1999/xlink">
    <title>Icon/Quote/Right/16</title>
    <g id="Page-1" stroke="none" stroke-width="1" fill="none" fill-rule="evenodd">
        <g id="Icons" transform="translate(-300.000000, -807.000000)" fill="#0071C4">
            <g id="Icon/Quote/Right/16" transform="translate(300.000000, 807.000000)">
                <path d="M5.76595134,12 L5.76595134,6.24299065 L3.08764227,6.24299065 C3.08764227,5.32086766 3.27701576,4.54205925 3.65576843,3.90654206 C4.03452111,3.27102486 4.73790837,2.79127888 5.76595134,2.46728972 L5.76595134,0 C4.92728471,0.099688972 4.14950071,0.330216262 3.43257601,0.691588785 C2.71565131,1.05296131 2.10018745,1.50778542 1.58616597,2.05607477 C1.07214449,2.60436411 0.673107481,3.23987178 0.389042977,3.96261682 C0.104978474,4.68536187 -0.0235249695,5.45793981 0.00352879279,6.28037383 L0.00352879279,12 L5.76595134,12 Z M14,12 L14,6.24299065 L11.3216909,6.24299065 C11.3216909,5.32086766 11.5110644,4.54205925 11.8898171,3.90654206 C12.2685698,3.27102486 12.971957,2.79127888 14,2.46728972 L14,0 C13.1613334,0.099688972 12.3835494,0.330216262 11.6666247,0.691588785 C10.9497,1.05296131 10.3342361,1.50778542 9.82021463,2.05607477 C9.30619315,2.60436411 8.90715614,3.23987178 8.62309164,3.96261682 C8.33902714,4.68536187 8.21052369,5.45793981 8.23757745,6.28037383 L8.23757745,12 L14,12 Z" transform="translate(7.000000, 6.000000) rotate(-180.000000) translate(-7.000000, -6.000000) "></path>
            </g>
        </g>
    </g>
</svg>