<?xml version="1.0" encoding="UTF-8"?>
<svg width="22px" height="20px" viewBox="0 0 22 20" version="1.1" xmlns="http://www.w3.org/2000/svg" xmlns:xlink="http://www.w3.org/1999/xlink">
    <title>Icon/Quote/Right/24</title>
    <g id="Page-1" stroke="none" stroke-width="1" fill="none" fill-rule="evenodd">
        <g id="Icons" transform="translate(-341.000000, -803.000000)" fill="#0071C4">
            <g id="Icon/Quote/Right/24" transform="translate(341.000000, 803.000000)">
                <path d="M9,20 L9,10.4049844 L4.81946149,10.4049844 C4.81946149,8.86811277 5.11505216,7.57009875 5.70624238,6.51090343 C6.2974326,5.4517081 7.39534083,4.65213146 9,4.11214953 L9,0 C7.69093594,0.166148287 6.47690281,0.550360436 5.35786417,1.15264798 C4.23882554,1.75493551 3.27815584,2.5129757 2.47582626,3.42679128 C1.67349668,4.34060685 1.05064489,5.39978629 0.607252228,6.60436137 C0.163859562,7.80893645 -0.0367198252,9.09656636 0.00550804771,10.4672897 L0.00550804771,20 L9,20 Z M22,20 L22,10.4049844 L17.8194615,10.4049844 C17.8194615,8.86811277 18.1150522,7.57009875 18.7062424,6.51090343 C19.2974326,5.4517081 20.3953408,4.65213146 22,4.11214953 L22,0 C20.6909359,0.166148287 19.4769028,0.550360436 18.3578642,1.15264798 C17.2388255,1.75493551 16.2781558,2.5129757 15.4758263,3.42679128 C14.6734967,4.34060685 14.0506449,5.39978629 13.6072522,6.60436137 C13.1638596,7.80893645 12.9632802,9.09656636 13.005508,10.4672897 L13.005508,20 L22,20 Z" transform="translate(11.000000, 10.000000) rotate(-180.000000) translate(-11.000000, -10.000000) "></path>
            </g>
        </g>
    </g>
</svg>