<?xml version="1.0" encoding="UTF-8"?>
<svg width="22px" height="24px" viewBox="0 0 22 24" version="1.1" xmlns="http://www.w3.org/2000/svg" xmlns:xlink="http://www.w3.org/1999/xlink">
    <title>Icon/LightbulbInsights/24</title>
    <g id="Page-1" stroke="none" stroke-width="1" fill="none" fill-rule="evenodd">
        <g id="Icons" transform="translate(-427.000000, -590.000000)" fill="#0071C4" fill-rule="nonzero">
            <g id="Icon/LightbulbInsights/24" transform="translate(427.000000, 590.000000)">
                <path d="M11,5 C14.8666096,5 18,8.14201639 18,12.0165176 C18,13.8350874 17.3054014,15.5463356 16.0846859,16.8389253 L15.1606463,18.3740409 C15.1191643,22.1321391 14.2152199,23.9828606 11.0052857,23.999986 C7.78135526,24.0170269 6.71831767,21.9811898 6.67361816,18.3256891 L5.89198412,16.8141022 C4.6857525,15.5244677 4,13.82347 4,12.0165176 C4,8.14201639 7.1333904,5 11,5 Z M8.70272758,19.1228724 L8.7138173,19.2853642 C8.86888257,21.2338447 9.48317648,22.0080131 10.9946649,22.0000754 C12.5157786,21.991907 13.0291536,21.2920842 13.1382941,19.1667423 C11.7085239,19.3605164 10.2271208,19.3291946 8.70272758,19.1228724 Z M11,7 C8.2391926,7 6,9.24535693 6,12.0165176 C6,13.3487063 6.51852674,14.5961018 7.42948781,15.5282878 L7.53392291,15.6351562 L8.25561976,17.0308005 C10.0620438,17.3415095 11.7844548,17.3949315 13.3863449,17.1036074 L13.749,17.03 L13.619,17.056 L14.4890572,15.6116406 L14.5705122,15.5282878 C15.4814733,14.5961018 16,13.3487063 16,12.0165176 C16,9.24535693 13.7608074,7 11,7 Z M3,12.004 C3,12.6889237 3.08708193,13.3575083 3.25083885,13.9953469 L1.41396353,13.9987656 L0.00173025032,14 L0,12.0374479 L1.41223328,12.0362135 L3,12.033 L3,12.004 Z M21.9982697,12 L22,13.9625521 L20.9016232,13.9637865 L18.7563173,13.9672609 C18.9151399,13.3391328 18.9996661,12.6814193 18.999999,12.0040173 L20.899893,12.0012344 L21.9982697,12 Z M2.48750029,2.82112835 L5.68572595,6.0200452 C5.18556905,6.46484652 4.74159132,6.97144721 4.36577103,7.52786903 L1.07328673,4.23534191 L2.48750029,2.82112835 Z M19.2232371,2.98722195 L20.6374507,4.40143551 L17.5843441,7.45488269 C17.2027594,6.90314172 16.7536125,6.40169592 16.2488634,5.96250509 L18.6989232,3.5115358 L19.2232371,2.98722195 Z M12,1.42108547e-14 L12.0009551,4.06201291 C11.6730544,4.02108425 11.3389895,4 11,4 C10.6613564,4 10.3276273,4.02104125 10.0000487,4.06188768 L10,1.42108547e-14 L12,1.42108547e-14 Z"></path>
            </g>
        </g>
    </g>
</svg>