<?xml version="1.0" encoding="UTF-8"?>
<svg width="16px" height="16px" viewBox="0 0 16 16" version="1.1" xmlns="http://www.w3.org/2000/svg" xmlns:xlink="http://www.w3.org/1999/xlink">
    <title>Icon/Wheel/16</title>
    <g id="Page-1" stroke="none" stroke-width="1" fill="none" fill-rule="evenodd">
        <g id="Icons" transform="translate(-430.000000, -991.000000)" fill="#0071C4" fill-rule="nonzero">
            <g id="Icon/Wheel/16" transform="translate(430.000000, 991.000000)">
                <path d="M8,14 C11.3137085,14 14,11.3137085 14,8 C14,4.6862915 11.3137085,2 8,2 C4.6862915,2 2,4.6862915 2,8 C2,11.3137085 4.6862915,14 8,14 Z M8,16 C3.581722,16 0,12.418278 0,8 C0,3.581722 3.581722,0 8,0 C12.418278,0 16,3.581722 16,8 C16,12.418278 12.418278,16 8,16 Z M7,5.17070571 L7,1 L9,1 L9,5.17070571 C9.1003638,5.20617922 9.1982764,5.24684177 9.29341545,5.29237099 L12.2426407,2.34314575 L13.6568542,3.75735931 L10.707629,6.70658455 C10.7531582,6.8017236 10.7938208,6.8996362 10.8292943,7 L15,7 L15,9 L10.8292943,9 C10.7938208,9.1003638 10.7531582,9.1982764 10.707629,9.29341545 L13.6568542,12.2426407 L12.2426407,13.6568542 L9.29341545,10.707629 C9.1982764,10.7531582 9.1003638,10.7938208 9,10.8292943 L9,15 L7,15 L7,10.8292943 C6.8996362,10.7938208 6.8017236,10.7531582 6.70658455,10.707629 L3.75735931,13.6568542 L2.34314575,12.2426407 L5.29237099,9.29341545 C5.24684177,9.1982764 5.20617922,9.1003638 5.17070571,9 L1,9 L1,7 L5.17070571,7 C5.20617922,6.8996362 5.24684177,6.8017236 5.29237099,6.70658455 L2.34314575,3.75735931 L3.75735931,2.34314575 L6.70658455,5.29237099 C6.8017236,5.24684177 6.8996362,5.20617922 7,5.17070571 L7,5.17070571 Z M8,9 C8.55228475,9 9,8.55228475 9,8 C9,7.44771525 8.55228475,7 8,7 C7.44771525,7 7,7.44771525 7,8 C7,8.55228475 7.44771525,9 8,9 Z"></path>
            </g>
        </g>
    </g>
</svg>