<?xml version="1.0" encoding="UTF-8"?>
<svg width="22px" height="22px" viewBox="0 0 22 22" version="1.1" xmlns="http://www.w3.org/2000/svg" xmlns:xlink="http://www.w3.org/1999/xlink">
    <title>Icon/Wheel/24</title>
    <g id="Page-1" stroke="none" stroke-width="1" fill="none" fill-rule="evenodd">
        <g id="Icons" transform="translate(-474.000000, -988.000000)" fill="#0071C4" fill-rule="nonzero">
            <g id="Icon/Wheel/24" transform="translate(474.000000, 988.000000)">
                <path d="M11,18 C14.8659932,18 18,14.8659932 18,11 C18,7.13400675 14.8659932,4 11,4 C7.13400675,4 4,7.13400675 4,11 C4,14.8659932 7.13400675,18 11,18 Z M11,22 C4.92486775,22 0,17.0751322 0,11 C0,4.92486775 4.92486775,0 11,0 C17.0751322,0 22,4.92486775 22,11 C22,17.0751322 17.0751322,22 11,22 Z M12,2 L12,7.12601749 C12.437713,7.23867701 12.84643,7.42356383 13.2126886,7.66721548 L16.5389971,4.34090697 L17.9532107,5.75512054 L14.5511467,9.15718446 C14.688923,9.42214183 14.7979162,9.70446161 14.8739825,10 L20.3529412,10 L20.3529412,12 L14.8739825,12 C14.7979162,12.2955384 14.688923,12.5778582 14.5511467,12.8428155 L17.9532107,16.2448795 L16.5389971,17.659093 L13.2126886,14.3327845 C12.84643,14.5764362 12.437713,14.761323 12,14.8739825 L12,20 L10,20 L10,14.8739825 C9.56228705,14.761323 9.15357003,14.5764362 8.78731139,14.3327845 L5.46100289,17.659093 L4.04678933,16.2448795 L7.44885325,12.8428155 C7.311077,12.5778582 7.20208381,12.2955384 7.12601749,12 L2,12 L2,10 L7.12601749,10 C7.20208381,9.70446161 7.311077,9.42214183 7.44885325,9.15718446 L4.04678933,5.75512054 L5.46100289,4.34090697 L8.78731139,7.66721548 C9.15357003,7.42356383 9.56228705,7.23867701 10,7.12601749 L10,2 L12,2 Z M11,9 C9.8954305,9 9,9.8954305 9,11 C9,12.1045695 9.8954305,13 11,13 C12.1045695,13 13,12.1045695 13,11 C13,9.8954305 12.1045695,9 11,9 Z"></path>
            </g>
        </g>
    </g>
</svg>