<?xml version="1.0" encoding="UTF-8"?>
<svg width="14px" height="14px" viewBox="0 0 14 14" version="1.1" xmlns="http://www.w3.org/2000/svg" xmlns:xlink="http://www.w3.org/1999/xlink">
    <title>Icon/Upload/16</title>
    <g id="Page-1" stroke="none" stroke-width="1" fill="none" fill-rule="evenodd">
        <g id="Icons" transform="translate(-214.000000, -946.000000)" fill="#0071C4">
            <g id="Icon/Upload/16" transform="translate(214.000000, 946.000000)">
                <path d="M13,9.00293637 C13.5522847,9.00293637 14,9.45065162 14,10.0029364 L14,13.0029364 C14,13.5552211 13.5522847,14.0029364 13,14.0029364 L1.00684547,14.0029364 C0.44771525,14.0029364 0,13.5592197 0,13.0031289 L0,10.0027439 C0,9.45056543 0.443864822,9.00293637 1,9.00293637 C1.55228475,9.00293637 2,9.44665301 2,10.0027439 L2,12.0029364 L2,12.0029364 L12,12.0029364 L12,10.0029364 C12,9.45065162 12.4477153,9.00293637 13,9.00293637 Z M7.29140314,0.0442951686 L7.38517056,0.078717164 C7.49771146,0.125314354 7.60281172,0.193349879 7.69385778,0.282645558 C7.69816095,0.286964375 7.70264892,0.291371726 7.70710678,0.295829586 L7.714,0.303 L10.5420549,3.13077767 C10.9289777,3.51770054 10.9287809,4.14522332 10.5355339,4.53847027 C10.1450096,4.92899456 9.50953952,4.92668945 9.1278413,4.54499123 L8,3.417 L8,9.0075388 C8,9.5572817 7.55613518,10.0029364 7,10.0029364 C6.44771525,10.0029364 6,9.54727197 6,9.0075388 L6,3.416 L4.8721587,4.54499123 C4.48523583,4.9319141 3.85771305,4.93171723 3.46446609,4.53847027 C3.0739418,4.14794598 3.07624692,3.51247588 3.45794513,3.13077767 L6.26339117,0.323644668 C6.30165493,0.282224244 6.34342628,0.244054556 6.38825682,0.209597482 L6.29941418,0.289308625 C6.33536588,0.25335692 6.37339483,0.220747438 6.41312005,0.191484937 C6.43346167,0.176425641 6.45485257,0.162217532 6.47681208,0.148829746 C6.50084368,0.133356308 6.52520053,0.119628756 6.54998149,0.107014635 C6.55397621,0.106341387 6.55770436,0.104508868 6.56144582,0.102698855 C6.59212475,0.0861439917 6.62379946,0.072569072 6.65597469,0.0607247999 C6.6590982,0.061716295 6.6621097,0.0606427462 6.66512802,0.0595831493 C6.86620044,-0.0144033527 7.08643778,-0.0189400294 7.29140314,0.0442951686 Z"></path>
            </g>
        </g>
    </g>
</svg>