<?xml version="1.0" encoding="UTF-8"?>
<svg width="22px" height="22px" viewBox="0 0 22 22" version="1.1" xmlns="http://www.w3.org/2000/svg" xmlns:xlink="http://www.w3.org/1999/xlink">
    <title>Icon/Upload/24</title>
    <g id="Page-1" stroke="none" stroke-width="1" fill="none" fill-rule="evenodd">
        <g id="Icons" transform="translate(-252.000000, -942.000000)" fill="#0071C4">
            <g id="Icon/Upload/24" transform="translate(252.000000, 942.000000)">
                <path d="M21,16.0000003 C21.5522847,16.0000003 22,16.4509755 22,16.9907783 L22,21.0092224 C22,21.5564139 21.5561352,22.0000003 21,22.0000003 L1.00246167,22.0000003 C0.44771525,22.0000003 0,21.5490252 0,21.0092224 L0,16.9907783 C0,16.4435867 0.443864822,16.0000003 1,16.0000003 C1.55228475,16.0000003 2,16.4509755 2,16.9907783 L2,20.0000003 L20,20.0000003 L20,16.9907783 C20,16.4435867 20.4438648,16.0000003 21,16.0000003 Z M11.0325379,0.000526543931 L11.0666948,0.00221319674 L11.0666948,0.00221319674 L11.1120695,0.00630189025 L11.1120695,0.00630189025 C11.3293391,0.0305808679 11.5403452,0.126131964 11.7071068,0.292893559 L17.7071068,6.29289356 C18.0976311,6.68341785 18.0976311,7.31658283 17.7071068,7.70710712 C17.3165825,8.09763141 16.6834175,8.09763141 16.2928932,7.70710712 L12,3.4142139 L12,16.0000401 C12,16.5523029 11.5561352,17 11,17 C10.4477153,17 10,16.5452914 10,16.0000401 L10,3.4142139 L5.70710678,7.70710712 C5.31658249,8.09763141 4.68341751,8.09763141 4.29289322,7.70710712 C3.90236893,7.31658283 3.90236893,6.68341785 4.29289322,6.29289356 L10.2610153,0.3247715 C10.4419155,0.126656276 10.7020247,0.00187450619 10.9934153,1.10134124e-13 L11.0325379,0.000526543931 L11.0325379,0.000526543931 Z"></path>
            </g>
        </g>
    </g>
</svg>