<?xml version="1.0" encoding="UTF-8"?>
<svg width="16px" height="14px" viewBox="0 0 16 14" version="1.1" xmlns="http://www.w3.org/2000/svg" xmlns:xlink="http://www.w3.org/1999/xlink">
    <title>Icon/Devices/Printer/Fill/16</title>
    <g id="Page-1" stroke="none" stroke-width="1" fill="none" fill-rule="evenodd">
        <g id="Icons" transform="translate(-384.000000, -433.000000)" fill="#0071C4">
            <g id="Icon/Devices/Printer/Fill/16" transform="translate(384.000000, 433.000000)">
                <path d="M12.0046024,0 C12.5543453,0 13,0.443716645 13,0.999807492 L13,3 L14.9991283,3 C15.5518945,3 16,3.45303631 16,3.99703014 L16,10.0029699 C16,10.5536144 15.5553691,11 14.9991283,11 L13,11 L13,12.9970707 C13,13.5509732 12.5443356,14 12.0046024,14 L3.99539757,14 C3.44565467,14 3,13.5621186 3,12.9970707 L3,11 L1.00087166,11 C0.448105505,11 0,10.5469637 0,10.0029699 L0,3.99703014 C0,3.4463856 0.444630861,3 1.00087166,3 L3,3 L3,0.999807492 C3,0.447629061 3.4556644,0 3.99539757,0 L12.0046024,0 Z M11,9 L5,9 L5,12 L11,12 L11,9 Z M11,2 L5,2 L5,3 L11,3 L11,2 Z"></path>
            </g>
        </g>
    </g>
</svg>