<?xml version="1.0" encoding="UTF-8"?>
<svg width="24px" height="20px" viewBox="0 0 24 20" version="1.1" xmlns="http://www.w3.org/2000/svg" xmlns:xlink="http://www.w3.org/1999/xlink">
    <title>Icon/Devices/Printer/Fill/24</title>
    <g id="Page-1" stroke="none" stroke-width="1" fill="none" fill-rule="evenodd">
        <g id="Icons" transform="translate(-426.000000, -429.000000)" fill="#0071C4">
            <g id="Icon/Devices/Printer/Fill/24" transform="translate(426.000000, 429.000000)">
                <path d="M18.9991283,0 C19.5518945,0 20,0.446311399 20,0.997544646 L20,4 L22.9993054,4 C23.5519738,4 24,4.45576096 24,5.00247329 L24,14.9975267 C24,15.5511774 23.5525308,16 22.9993054,16 L20,16 L20,19.0044225 C20,19.5542648 19.5553691,20 18.9991283,20 L5.00087166,20 C4.4481055,20 4,19.555163 4,19.0044225 L4,16 L1.00069463,16 C0.448026248,16 0,15.544239 0,14.9975267 L0,5.00247329 C0,4.44882258 0.44746922,4 1.00069463,4 L4,4 L4,0.997544646 C4,0.446615951 4.44463086,0 5.00087166,0 L18.9991283,0 Z M18,9 L6,9 L6,18 L18,18 L18,9 Z M16,14 L16,16 L8,16 L8,14 L16,14 Z M15,11 L15,13 L8,13 L8,11 L15,11 Z M21,6 C20.4477153,6 20,6.44771525 20,7 C20,7.55228475 20.4477153,8 21,8 C21.5522847,8 22,7.55228475 22,7 C22,6.44771525 21.5522847,6 21,6 Z M18,2 L6,2 L6,4 L18,4 L18,2 Z"></path>
            </g>
        </g>
    </g>
</svg>