<?xml version="1.0" encoding="UTF-8"?>
<svg width="16px" height="14px" viewBox="0 0 16 14" version="1.1" xmlns="http://www.w3.org/2000/svg" xmlns:xlink="http://www.w3.org/1999/xlink">
    <title>Icon/Devices/Camera/16</title>
    <g id="Page-1" stroke="none" stroke-width="1" fill="none" fill-rule="evenodd">
        <g id="Icons" transform="translate(-477.000000, -378.000000)" fill="#0071C4" fill-rule="nonzero">
            <g id="Icon/Devices/Camera/16" transform="translate(477.000000, 378.000000)">
                <path d="M2,4 L2,12.0001377 L14,12.0001377 L14,4 L11.0956207,4 L10.0809757,2 L5.88346428,2 L4.90075931,4 L2,4 Z M3.65507718,2 L4.34497953,0.595911561 C4.50668996,0.266798694 4.94176518,1.77635684e-15 5.3018322,1.77635684e-15 L10.6449363,1.77635684e-15 C11.011681,1.77635684e-15 11.4416774,0.261551579 11.6113057,0.595911561 L12.3236314,2 L14.6633689,2 C15.4015699,2 16,2.5950887 16,3.33007479 L16,12.6700629 C16,13.404643 15.411576,14.0001377 14.6633689,14.0001377 L1.33663106,14.0001377 C0.598430109,14.0001377 0,13.405049 0,12.6700629 L0,3.33007479 C0,2.59549477 0.588423967,2 1.33663106,2 L3.65507718,2 Z M8,10.5 C6.34314575,10.5 5,9.15685425 5,7.5 C5,5.84314575 6.34314575,4.5 8,4.5 C9.65685425,4.5 11,5.84314575 11,7.5 C11,9.15685425 9.65685425,10.5 8,10.5 Z M8,8.5 C8.55228475,8.5 9,8.05228475 9,7.5 C9,6.94771525 8.55228475,6.5 8,6.5 C7.44771525,6.5 7,6.94771525 7,7.5 C7,8.05228475 7.44771525,8.5 8,8.5 Z"></path>
            </g>
        </g>
    </g>
</svg>