<?xml version="1.0" encoding="UTF-8"?>
<svg width="24px" height="20px" viewBox="0 0 24 20" version="1.1" xmlns="http://www.w3.org/2000/svg" xmlns:xlink="http://www.w3.org/1999/xlink">
    <title>Icon/Devices/Camera/24</title>
    <g id="Page-1" stroke="none" stroke-width="1" fill="none" fill-rule="evenodd">
        <g id="Icons" transform="translate(-517.000000, -375.000000)" fill="#0071C4" fill-rule="nonzero">
            <g id="Icon/Devices/Camera/24" transform="translate(517.000000, 375.000000)">
                <path d="M2,4.99975586 L2,17.9997559 L22,17.9997559 L22,4.99975586 L16.7146826,4.99975586 L15.3465523,2 L8.61018015,2 L7.32083765,4.99975586 L2,4.99975586 Z M6.00355252,2.99975586 L6.89874004,0.917032285 C7.11642583,0.410569339 7.74336748,0 8.29240501,0 L15.6330709,0 C16.185085,0 16.8191867,0.409151006 17.0508215,0.917032285 L18.0007112,2.99975586 L22.9993054,2.99975586 C23.5519738,2.99975586 24,3.45446479 24,3.99971606 L24,18.9997957 C24,19.5520584 23.5525308,19.9997559 22.9993054,19.9997559 L1.00069463,19.9997559 C0.448026248,19.9997559 0,19.5450469 0,18.9997957 L0,3.99971606 C0,3.44745329 0.44746922,2.99975586 1.00069463,2.99975586 L6.00355252,2.99975586 Z M12,16 C9.23857625,16 7,13.7614237 7,11 C7,8.23857625 9.23857625,6 12,6 C14.7614237,6 17,8.23857625 17,11 C17,13.7614237 14.7614237,16 12,16 Z M12,14 C13.6568542,14 15,12.6568542 15,11 C15,9.34314575 13.6568542,8 12,8 C10.3431458,8 9,9.34314575 9,11 C9,12.6568542 10.3431458,14 12,14 Z M5,9 C5.55228475,9 6,8.55228475 6,8 C6,7.44771525 5.55228475,7 5,7 C4.44771525,7 4,7.44771525 4,8 C4,8.55228475 4.44771525,9 5,9 Z"></path>
            </g>
        </g>
    </g>
</svg>