<?xml version="1.0" encoding="UTF-8"?>
<svg width="16px" height="14px" viewBox="0 0 16 14" version="1.1" xmlns="http://www.w3.org/2000/svg" xmlns:xlink="http://www.w3.org/1999/xlink">
    <title>Icon/PiggyBank/16</title>
    <g id="Page-1" stroke="none" stroke-width="1" fill="none" fill-rule="evenodd">
        <g id="Icons" transform="translate(-28.000000, -807.000000)" fill="#0071C4">
            <g id="Icon/PiggyBank/16" transform="translate(28.000000, 807.000000)">
                <path d="M11.7365006,0.263499449 C11.9052164,0.432215313 12,0.661043131 12,0.899643394 L12,3.09959719 C12.910305,3.6010187 13.659962,4.25080469 14.1822142,5 L15.3333333,5 C15.7015232,5 16,5.29847683 16,5.66666667 L16,8.33333333 C16,8.70152317 15.7015232,9 15.3333333,9 L14.717683,9 C14.3643198,9.91619433 13.6953122,10.7352023 12.8022546,11.3898544 L12.3333333,13.5 C12.3333333,13.7761424 12.0348565,14 11.6666667,14 L9.66666667,14 C9.29847683,14 9,13.7761424 9,13.5 L9,12.2029405 C8.51533509,12.2750872 8.01369876,12.3129605 7.5,12.3129605 C6.62341144,12.3129605 5.78194731,12.2026777 5,12 L5,13.2857143 C5,13.6802034 4.70152317,14 4.33333333,14 L2.33333333,14 C1.9651435,14 1.66666667,13.6802034 1.66666667,13.2857143 L1.12854326,10.4029103 C0.413213858,9.5603632 0,8.56556907 0,7.5 C0,6.67581584 0.247206677,5.89397304 0.690211468,5.1921712 L0.292893219,4.79289322 C-0.0976310729,4.40236893 -0.0976310729,3.76920395 0.292893219,3.37867966 L0.378679656,3.29289322 C0.769203948,2.90236893 1.40236893,2.90236893 1.79289322,3.29289322 L2.27859859,3.77866142 C3.62497976,2.75245874 5.41226223,2 7.5,2 C7.89524917,2 8.28335732,2.02242115 8.66208843,2.06562368 L10.4642127,0.263499449 C10.8155453,-0.0878331498 11.385168,-0.0878331498 11.7365006,0.263499449 Z M8.50952148,4 L5.49047852,4 C5.21505737,4 5,4.22385763 5,4.5 C5,4.76806641 5.21959471,5 5.49047852,5 L5.49047852,5 L8.50952148,5 C8.78494263,5 9,4.77614237 9,4.5 L9,4.5 L8.99209773,4.41225137 C8.95056798,4.18325617 8.75030709,4 8.50952148,4 L8.50952148,4 Z"></path>
            </g>
        </g>
    </g>
</svg>