<?xml version="1.0" encoding="UTF-8"?>
<svg width="23px" height="22px" viewBox="0 0 23 22" version="1.1" xmlns="http://www.w3.org/2000/svg" xmlns:xlink="http://www.w3.org/1999/xlink">
    <title>Icon/PiggyBank/24</title>
    <g id="Page-1" stroke="none" stroke-width="1" fill="none" fill-rule="evenodd">
        <g id="Icons" transform="translate(-74.000000, -803.000000)" fill="#0071C4" fill-rule="nonzero">
            <g id="Icon/PiggyBank/24" transform="translate(74.000000, 803.000000)">
                <path d="M3.63923837,7.62314293 L3.18567163,8.20663973 C2.40744591,9.2077983 2,10.3344895 2,11.5 C2,12.8524718 2.55046595,14.1554185 3.58588605,15.2617077 L3.97512553,15.6775886 L4.83960781,20 L7,20 L8,17.6689706 L9.23004949,17.9271954 C9.6475294,17.9755368 10.0715603,18 10.5,18 C10.9284397,18 11.3524706,17.9755368 11.7699505,17.9271954 L13,17.6689706 L14,20 L16.1390792,20 L16.8297558,15.85594 L17.2767389,15.4044091 C17.9102968,14.7644052 18.3813839,14.047113 18.6686643,13.2902619 L19.1584131,12 L21,12 L21,10 L18.8979858,10 L18.3255352,8.97571673 C18.1050701,8.58123949 17.8325109,8.202163 17.511638,7.84468488 L17,7.2746792 L17,2.41802706 L13.6333,5.41064927 L12.6547069,5.21294724 C11.9576319,5.07211943 11.2356151,5 10.5,5 C8.08013755,5 5.84002043,5.78440924 4.24071073,7.12061816 L3.63923837,7.62314293 Z M11,19.9139207 L9,19.9139207 L8.80562792,21.5925331 C8.6235599,21.8396645 8.33050413,22 8,22 L4,22 C3.44771525,22 3,21.5522847 3,21 L2.12567539,16.628377 C0.791537216,15.202924 0,13.4262917 0,11.5 C0,9.83865246 0.588773452,8.28862691 1.60662089,6.97920389 L0.284271247,5.65685425 C-0.0947570825,5.27782592 -0.0947570825,4.66329958 0.284271247,4.28427125 C0.663299577,3.90524292 1.27782592,3.90524292 1.65685425,4.28427125 L2.95838853,5.58580553 C4.86701471,3.99116547 7.54052262,3 10.5,3 C11.379714,3 12.2341598,3.08757882 13.0507589,3.25255371 L16.2355828,0.421599119 C16.8679815,-0.14053304 17.8933023,-0.14053304 18.525701,0.421599119 C18.8293895,0.691544501 19,1.05766901 19,1.43942943 L19,6.50872888 C19.4163931,6.97262414 19.7762508,7.47192514 20.0713808,8 L22,8 C22.5522847,8 23,8.44771525 23,9 L23,13 C23,13.5522847 22.5522847,14 22,14 L20.5384963,14 C20.1455265,15.0352939 19.5148773,15.9863514 18.6980922,16.8114467 L18,21 C18,21.5522847 17.5522847,22 17,22 L13,22 C12.6694959,22 12.3764401,21.8396645 12.1943721,21.5925331 L12,19.9139207 L10,19.9139207 L11,19.9139207 Z M7.5,8 C7.5,7.44771525 7.95097518,7 8.49077797,7 L12.509222,7 C13.0564136,7 13.5,7.44386482 13.5,8 L13.5,8 C13.5,8.55228475 13.0490248,9 12.509222,9 L8.49077797,9 C7.94358641,9 7.5,8.55613518 7.5,8 L7.5,8 Z"></path>
            </g>
        </g>
    </g>
</svg>