<?xml version="1.0" encoding="UTF-8"?>
<svg width="24px" height="23px" viewBox="0 0 24 23" version="1.1" xmlns="http://www.w3.org/2000/svg" xmlns:xlink="http://www.w3.org/1999/xlink">
    <title>Icon/Star/Outline/24</title>
    <g id="Page-1" stroke="none" stroke-width="1" fill="none" fill-rule="evenodd">
        <g id="Icons" transform="translate(-251.000000, -894.000000)" fill="#0071C4" fill-rule="nonzero">
            <g id="Icon/Star/Outline/24" transform="translate(251.000000, 894.000000)">
                <path d="M9.2162755,8.74320277 L8.17491488,8.89493955 L2.97778941,9.65187171 L7.49252644,14.0648158 L7.31565342,15.0989148 L6.42787397,20.2873888 L12,17.3498522 L12.9326957,17.8415546 L17.5718247,20.2876104 L16.5074736,14.0648158 L17.2577204,13.3314846 L21.0223256,9.65223008 L14.7837245,8.74320277 L14.3190203,7.79900682 L12.0001863,3.0867929 L9.2162755,8.74320277 Z M10.9651855,0.66058039 C11.1471014,0.270357236 11.5420651,0 12,0 C12.4579349,0 12.8528986,0.270357236 13.0348145,0.66058039 L16.1134601,6.91583878 L22.9975211,7.91891611 C23.4238375,7.97182098 23.8023043,8.26494696 23.943814,8.70167269 C24.0853237,9.13839842 23.9509578,9.59861436 23.6370716,9.8926904 L18.6557183,14.76173 L19.8316563,21.6369243 C19.9132185,22.0598445 19.7521602,22.5113635 19.381683,22.7812749 C19.0112059,23.0511862 18.5331995,23.0652581 18.1572913,22.8567839 L12,19.6107575 L5.84270871,22.8567839 C5.46680046,23.0652581 4.98879414,23.0511862 4.61831699,22.7812749 C4.24783984,22.5113635 4.08678152,22.0598445 4.16834372,21.6369243 L5.34428171,14.76173 L0.362928423,9.8926904 C0.0490421503,9.59861436 -0.0853236777,9.13839842 0.0561860011,8.70167269 C0.19769568,8.26494696 0.576162479,7.97182098 1.00247894,7.91891611 L7.88653988,6.91583878 L10.9651855,0.66058039 Z"></path>
            </g>
        </g>
    </g>
</svg>