<?xml version="1.0" encoding="UTF-8"?>
<svg width="14px" height="15px" viewBox="0 0 14 15" version="1.1" xmlns="http://www.w3.org/2000/svg" xmlns:xlink="http://www.w3.org/1999/xlink">
    <title>Icon/Map/Outline/16</title>
    <g id="Page-1" stroke="none" stroke-width="1" fill="none" fill-rule="evenodd">
        <g id="Icons" transform="translate(-214.000000, -704.000000)" fill="#0071C4">
            <g id="Icon/Map/Outline/16" transform="translate(214.000000, 704.000000)">
                <path d="M9,3.37507799e-14 C9.09887796,3.37507799e-14 9.19694301,0.0146632105 9.29104772,0.0432913788 C9.33860629,0.0577783603 9.38485889,0.0756966546 9.42959932,0.0969499909 L13.4228855,1.96048353 C13.7749599,2.12478493 14,2.47814207 14,2.86666667 L14,13.4203226 C14,13.9726074 13.5522847,14.4203226 13,14.4203226 C12.8875093,14.4203226 12.7758249,14.4013423 12.6696496,14.364181 L9.14285714,13.1298036 L5.42288547,14.8657904 C5.1285742,15.0031357 4.80155723,14.9848831 4.53458362,14.8447597 L0.574491198,12.9827273 C0.22384205,12.8178524 9.76996262e-15,12.4652502 9.76996262e-15,12.077773 L9.76996262e-15,1.43023157 C9.76996262e-15,0.877946821 0.44771525,0.430231571 1,0.430231571 C1.11328245,0.430231571 1.2257414,0.449479953 1.33257543,0.487154914 L4.97884446,1.77300956 L8.55796421,0.102753679 C8.62518225,0.0695750375 8.69666662,0.0437274803 8.77137313,0.0262551875 C8.77537543,0.0253350924 8.77937185,0.0244185685 8.78337024,0.0235275535 C8.85312421,0.00812199654 8.92561361,3.37507799e-14 9,3.37507799e-14 Z M4,6.595 L3,7.92980364 L2,6.597 L2,11.4298036 L4,12.4298036 L4,6.595 Z M10.8293852,7.20660794 L10,7.869 L10,11.4298036 L12,12.4298036 L12,9.549 L10.8293852,7.20660794 Z M6,7.188 L6,12.4298036 L8,11.4298036 L8,9.47 L7.52256086,9.85206737 L6,7.188 Z M8,2.42980364 L6,3.42980364 L6,5.173 L7.81077247,8.34087324 L8,8.188 L8,2.42980364 Z M10,2.42980364 L10,6.588 L11.1706148,5.65299934 L12,7.312 L12,3.42980364 L10,2.42980364 Z M2,2.42980364 L2,4.931 L3,6.26313698 L4,4.929 L4,3.42980364 L2,2.42980364 Z"></path>
            </g>
        </g>
    </g>
</svg>