<?xml version="1.0" encoding="UTF-8"?>
<svg width="20px" height="22px" viewBox="0 0 20 22" version="1.1" xmlns="http://www.w3.org/2000/svg" xmlns:xlink="http://www.w3.org/1999/xlink">
    <title>Icon/Map/Outline/24</title>
    <g id="Page-1" stroke="none" stroke-width="1" fill="none" fill-rule="evenodd">
        <g id="Icons" transform="translate(-253.000000, -701.000000)" fill="#0071C4" fill-rule="nonzero">
            <g id="Icon/Map/Outline/24" transform="translate(253.000000, 701.000000)">
                <path d="M1,0.825185536 C1.11991195,0.825185536 1.23884638,0.846752462 1.35112344,0.888856358 L7.35112344,3.13885636 C7.74142717,3.28522026 8,3.65834098 8,4.07518554 L8,20.7641511 C8,21.3164358 7.55228475,21.7641511 7,21.7641511 C6.8447549,21.7641511 6.69164184,21.728006 6.5527864,21.6585783 L0.552786405,18.6585783 C0.214002376,18.4891863 0,18.1429231 0,17.7641511 L0,1.82518554 C0,1.27290079 0.44771525,0.825185536 1,0.825185536 Z M2,3.268186 L2,17.1461171 L6,19.1461171 L6,4.768186 L2,3.268186 Z M13.8944272,0.553005461 C13.9638549,0.691860896 14,0.844973961 14,1.00021906 L14,17.7641511 C14,18.1429231 13.7859976,18.4891863 13.4472136,18.6585783 L7.4472136,21.6585783 C6.9532351,21.9055675 6.35256206,21.7053432 6.10557281,21.2113647 C6.03614509,21.0725092 6,20.9193962 6,20.7641511 L6,4.00021906 C6,3.621447 6.21400238,3.27518388 6.5527864,3.10579187 L12.5527864,0.105791866 C13.0467649,-0.141197383 13.6474379,0.0590269636 13.8944272,0.553005461 Z M12,2.61825305 L8,4.61825305 L8,19.1461171 L12,17.1461171 L12,2.61825305 Z M13,0.000219056558 C13.1552451,0.000219056558 13.3083582,0.0363641483 13.4472136,0.105791866 L19.4472136,3.10579187 C19.7859976,3.27518388 20,3.621447 20,4.00021906 L20,19.9391846 C20,20.4914693 19.5522847,20.9391846 19,20.9391846 C18.880088,20.9391846 18.7611536,20.9176177 18.6488766,20.8755138 L12.6488766,18.6255138 C12.2585728,18.4791499 12,18.1060292 12,17.6891846 L12,13.221 L10.8558942,14.1377821 L6.94342198,7.29095576 L4,11.2155184 L0.6,6.68218507 L1.4,6.08218507 L4,9.54885173 L7.05657802,5.47341438 L11.1441058,12.626588 L12,11.941 L12,1.00021906 C12,0.447934307 12.4477153,0.000219056558 13,0.000219056558 Z M15.8293852,10.1589894 L14,11.621 L14,16.9961841 L18,18.4961841 L18,14.501 L15.8293852,10.1589894 Z M14,2.61825305 L14,10.341 L16.1706148,8.60538077 L18,12.264 L18,4.61825305 L14,2.61825305 Z"></path>
            </g>
        </g>
    </g>
</svg>