<?xml version="1.0" encoding="UTF-8"?>
<svg width="16px" height="16px" viewBox="0 0 16 16" version="1.1" xmlns="http://www.w3.org/2000/svg" xmlns:xlink="http://www.w3.org/1999/xlink">
    <title>Icon/Profile/16</title>
    <g id="Page-1" stroke="none" stroke-width="1" fill="none" fill-rule="evenodd">
        <g id="Icons" transform="translate(-121.000000, -806.000000)" fill="#0071C4">
            <g id="Icon/Profile/16" transform="translate(121.000000, 806.000000)">
                <path d="M8,0 C12.418278,0 16,3.581722 16,8 C16,12.418278 12.418278,16 8,16 C3.581722,16 0,12.418278 0,8 C0,3.581722 3.581722,0 8,0 Z M8,2 C4.6862915,2 2,4.6862915 2,8 C2,9.77706308 2.77255645,11.3736859 4.0001315,12.4723307 L4,11.637486 C4,10.5329165 4.8954305,9.63748605 6,9.63748605 L10,9.63748605 C11.1045695,9.63748605 12,10.5329165 12,11.637486 L12.0008689,12.4714352 C13.2278632,11.3728184 14,9.77658031 14,8 C14,4.6862915 11.3137085,2 8,2 Z M8,4.59371512 C9.26236514,4.59371512 10.2857143,5.59734764 10.2857143,6.83539109 C10.2857143,8.07343454 9.26236514,9.07706706 8,9.07706706 C6.73763486,9.07706706 5.71428571,8.07343454 5.71428571,6.83539109 C5.71428571,5.59734764 6.73763486,4.59371512 8,4.59371512 Z"></path>
            </g>
        </g>
    </g>
</svg>