<?xml version="1.0" encoding="UTF-8"?>
<svg width="24px" height="24px" viewBox="0 0 24 24" version="1.1" xmlns="http://www.w3.org/2000/svg" xmlns:xlink="http://www.w3.org/1999/xlink">
    <title>Icon/Profile/24</title>
    <g id="Page-1" stroke="none" stroke-width="1" fill="none" fill-rule="evenodd">
        <g id="Icons" transform="translate(-164.000000, -802.000000)" fill="#0071C4">
            <g id="Icon/Profile/24" transform="translate(164.000000, 802.000000)">
                <path d="M12,0 C18.627417,0 24,5.372583 24,12 C24,18.627417 18.627417,24 12,24 C5.372583,24 0,18.627417 0,12 C0,5.372583 5.372583,0 12,0 Z M12,3 C7.02943725,3 3,7.02943725 3,12 C3,14.1531319 3.75609185,16.1296691 5.0172509,17.678587 C5.17770225,16.172584 6.45191529,15 8,15 L16,15 C17.5480847,15 18.8222977,16.172584 18.9829256,17.6780386 C20.2439081,16.1296691 21,14.1531319 21,12 C21,7.02943725 16.9705627,3 12,3 Z M12,6 C14.209139,6 16,7.790861 16,10 C16,12.209139 14.209139,14 12,14 C9.790861,14 8,12.209139 8,10 C8,7.790861 9.790861,6 12,6 Z"></path>
            </g>
        </g>
    </g>
</svg>