<?xml version="1.0" encoding="UTF-8"?>
<svg width="16px" height="16px" viewBox="0 0 16 16" version="1.1" xmlns="http://www.w3.org/2000/svg" xmlns:xlink="http://www.w3.org/1999/xlink">
    <title>Icon/Video/Play/Circle/Fill</title>
    <g id="Page-1" stroke="none" stroke-width="1" fill="none" fill-rule="evenodd">
        <g id="Icons" transform="translate(-521.000000, -945.000000)" fill="#0071C4">
            <g id="Icon/Video/Play/Circle/Fill" transform="translate(521.000000, 945.000000)">
                <path d="M8,0 C12.418278,0 16,3.581722 16,8 C16,12.418278 12.418278,16 8,16 C3.581722,16 0,12.418278 0,8 C0,3.581722 3.581722,0 8,0 Z M6.14364101,5.12515761 C6.04350507,5.21315208 5.99587796,5.32870913 6.0002792,5.44270915 L6.0009842,5.52481666 C6.00108595,5.54824449 6.00118011,5.57630646 6.00126712,5.60864635 L6.00199578,6.17926734 C6.00203253,6.24013112 6.00206386,6.30384794 6.00209021,6.37006159 L6.00206019,8.00539913 C6.00203807,8.08911367 6.00201401,8.17283151 6.00198844,8.25619642 L6.00121839,10.5725413 L6.00121839,10.5725413 C6.00173151,10.681475 6.04899543,10.7906056 6.14364101,10.8737754 C6.33512161,11.042039 6.64129182,11.0415824 6.8304524,10.8753575 L10.5048945,8.54083275 C10.9750256,8.24213907 10.9702844,7.75475767 10.5048945,7.45896657 L6.8304524,5.12357558 C6.64320312,4.95903024 6.33379588,4.95805898 6.14364101,5.12515761 Z"></path>
            </g>
        </g>
    </g>
</svg>