<?xml version="1.0" encoding="UTF-8"?>
<svg width="16px" height="16px" viewBox="0 0 16 16" version="1.1" xmlns="http://www.w3.org/2000/svg" xmlns:xlink="http://www.w3.org/1999/xlink">
    <title>Icon/Video/Play/Circle/Outline</title>
    <g id="Page-1" stroke="none" stroke-width="1" fill="none" fill-rule="evenodd">
        <g id="Icons" transform="translate(-28.000000, -991.000000)" fill="#0071C4">
            <g id="Icon/Video/Play/Circle/Outline" transform="translate(28.000000, 991.000000)">
                <path d="M8,0 C12.418278,0 16,3.581722 16,8 C16,12.418278 12.418278,16 8,16 C3.581722,16 0,12.418278 0,8 C0,3.581722 3.581722,0 8,0 Z M8,2 C4.6862915,2 2,4.6862915 2,8 C2,11.3137085 4.6862915,14 8,14 C11.3137085,14 14,11.3137085 14,8 C14,4.6862915 11.3137085,2 8,2 Z M6.14524695,5.12515761 C6.3375278,4.95805898 6.65039428,4.95903024 6.83973705,5.12357558 L6.83973705,5.12357558 L10.5766633,7.47241943 C11.0415282,7.76461012 11.04023,8.23611825 10.5766633,8.52738488 L10.5766633,8.52738488 L6.83973705,10.8753575 C6.64846161,11.0415824 6.33886834,11.042039 6.14524695,10.8737754 C6.04954321,10.7906056 6.00175086,10.681475 6.00123201,10.5725413 L6.00123201,10.5725413 L6.00192896,8.5048762 C6.00195743,8.42257334 6.00198481,8.33956134 6.00201067,8.25619642 L6.0020181,6.17926734 C6.00198094,6.11840357 6.00193831,6.06039284 6.00188976,6.00559138 L6.00128129,5.60864635 C6.0011933,5.57630646 6.00109809,5.54824449 6.0009952,5.52481666 L6.00028232,5.44270915 C5.99583187,5.32870913 6.04399147,5.21315208 6.14524695,5.12515761 Z"></path>
            </g>
        </g>
    </g>
</svg>