<?xml version="1.0" encoding="UTF-8"?>
<svg width="12px" height="16px" viewBox="0 0 12 16" version="1.1" xmlns="http://www.w3.org/2000/svg" xmlns:xlink="http://www.w3.org/1999/xlink">
    <title>Icon/MapPin/Outline/16</title>
    <g id="Page-1" stroke="none" stroke-width="1" fill="none" fill-rule="evenodd">
        <g id="Icons" transform="translate(-386.000000, -703.000000)" fill="#0071C4" fill-rule="nonzero">
            <g id="Icon/MapPin/Outline/16" transform="translate(386.000000, 703.000000)">
                <path d="M6.33447144,13.164477 C6.87043682,12.4303306 7.40646898,11.6467547 7.90392594,10.8508871 C8.36957297,10.1059114 8.77658781,9.38894275 9.10776995,8.71927556 C9.69226778,7.53739112 10,6.57278829 10,6 C10,3.790861 8.209139,2 6,2 C3.790861,2 2,3.790861 2,6 C2,6.57278829 2.30773222,7.53739112 2.89223005,8.71927556 C3.22341219,9.38894275 3.63042703,10.1059114 4.09607406,10.8508871 C4.59353102,11.6467547 5.12956318,12.4303306 5.66552856,13.164477 C5.78285777,13.3251904 5.89473861,13.476032 6,13.6159144 C6.10526139,13.476032 6.21714223,13.3251904 6.33447144,13.164477 Z M4.80023101,15.3366104 C4.80023101,15.3366104 0,9.3137085 0,6 C0,2.6862915 2.6862915,1.0658141e-14 6,1.0658141e-14 C9.3137085,1.0658141e-14 12,2.6862915 12,6 C12,9.3137085 7.19976899,15.3366104 7.19976899,15.3366104 C6.54304227,16.2285996 5.46284513,16.2221383 4.80023101,15.3366104 Z M6,8 C7.1045695,8 8,7.1045695 8,6 C8,4.8954305 7.1045695,4 6,4 C4.8954305,4 4,4.8954305 4,6 C4,7.1045695 4.8954305,8 6,8 Z"></path>
            </g>
        </g>
    </g>
</svg>