<?xml version="1.0" encoding="UTF-8"?>
<svg width="18px" height="24px" viewBox="0 0 18 24" version="1.1" xmlns="http://www.w3.org/2000/svg" xmlns:xlink="http://www.w3.org/1999/xlink">
    <title>Icon/MapPin/Outline/24</title>
    <g id="Page-1" stroke="none" stroke-width="1" fill="none" fill-rule="evenodd">
        <g id="Icons" transform="translate(-429.000000, -700.000000)" fill="#0071C4" fill-rule="nonzero">
            <g id="Icon/MapPin/Outline/24" transform="translate(429.000000, 700.000000)">
                <path d="M9.85314066,20.5935697 C10.7367155,19.4268808 11.6202826,18.1850554 12.4419163,16.9254562 C13.1642454,15.8180952 13.8036607,14.7494379 14.3373874,13.7427812 C15.4174037,11.7057729 16,10.0296384 16,8.96937047 C16,5.12182261 12.8675167,2 9,2 C5.13248334,2 2,5.12182261 2,8.96937047 C2,10.0294883 2.58280315,11.7055513 3.66321239,13.7424904 C4.19714785,14.7491405 4.83681503,15.8177936 5.55942933,16.9251514 C6.38138924,18.1847496 7.26530782,19.4265751 8.14923456,20.5932645 C8.45839978,21.0013297 8.74499693,21.3702363 9.0013575,21.6931894 C9.25770565,21.3704249 9.54414711,21.0015706 9.85314066,20.5935697 Z M7.7690039,23.3516693 C7.7690039,23.3516693 0,13.923017 0,8.96937047 C0,4.01572394 4.02943725,0 9,0 C13.9705627,0 18,4.01572394 18,8.96937047 C18,13.923017 10.2340851,23.3516693 10.2340851,23.3516693 C9.56466797,24.2144551 8.44985265,24.2177638 7.7690039,23.3516693 Z M9,12 C10.6568542,12 12,10.6568542 12,9 C12,7.34314575 10.6568542,6 9,6 C7.34314575,6 6,7.34314575 6,9 C6,10.6568542 7.34314575,12 9,12 Z"></path>
            </g>
        </g>
    </g>
</svg>