<?xml version="1.0" encoding="UTF-8"?>
<svg width="16px" height="16px" viewBox="0 0 16 16" version="1.1" xmlns="http://www.w3.org/2000/svg" xmlns:xlink="http://www.w3.org/1999/xlink">
    <title>Icon/Settings/16</title>
    <g id="Page-1" stroke="none" stroke-width="1" fill="none" fill-rule="evenodd">
        <g id="Icons" transform="translate(-299.000000, -853.000000)" fill="#0071C4">
            <g id="Icon/Settings/16" transform="translate(299.000000, 853.000000)">
                <path d="M10.009222,0 C10.5564136,0 11,0.444630861 11,1.00087166 L11,2.983 L12.524541,2.12904576 C12.9993798,1.86293751 13.6079771,2.02325079 13.8756962,2.47335456 L15.8686724,5.82405379 C16.140056,6.28031854 15.9781077,6.86424481 15.5002841,7.1320258 L13.952,7.999 L15.5024154,8.867671 C15.9773892,9.13368629 16.1387036,9.72523957 15.8709084,10.1751861 L13.8773659,13.5247149 C13.6059052,13.9808202 13.0037861,14.1365908 12.5258267,13.8689034 L11,13.014 L11,14.9991283 C11,15.5518945 10.5490248,16 10.009222,16 L5.99077797,16 C5.44358641,16 5,15.5553691 5,14.9991283 L5,13.015 L3.47545905,13.8709542 C3.00062019,14.1370625 2.39202285,13.9767492 2.12430378,13.5266454 L0.131327586,10.1759462 C-0.140056,9.71968146 0.0218922896,9.13575519 0.49971595,8.8679742 L2.047,8 L0.497584603,7.132329 C0.0226108073,6.86631371 -0.138703593,6.27476043 0.129091555,5.82481389 L2.12263409,2.47528513 C2.3940948,2.01917977 2.99621387,1.86340916 3.47417331,2.13109661 L5,2.986 L5,1.00087166 C5,0.448105505 5.45097518,0 5.99077797,0 L10.009222,0 Z M9,2 L7,2 L6.99981203,3.10005628 C5.91816249,3.31966298 4.96331772,3.88844168 4.25805775,4.68361235 L3.30384758,4.1339746 L2.30384758,5.8660254 L3.25570318,6.41721259 C3.08983182,6.9146322 3,7.44682543 3,8 C3,8.55354534 3.08995228,9.08608119 3.25603681,9.58378753 L2.30384758,10.1339746 L3.30384758,11.8660254 L4.25805775,11.3163876 C4.96331772,12.1115583 5.91816249,12.680337 6.99981203,12.8999437 L7,14 L9,14 L9.0011864,12.8997409 C10.0824251,12.679987 11.0368993,12.1113137 11.7419423,11.3163876 L12.6961524,11.8660254 L13.6961524,10.1339746 L12.7439632,9.58378753 C12.9100477,9.08608119 13,8.55354534 13,8 C13,7.44645466 12.9100477,6.91391881 12.7439632,6.41621247 L13.6961524,5.8660254 L12.6961524,4.1339746 L11.7419423,4.68361235 C11.0368993,3.88868635 10.0824251,3.32001302 9.0011864,3.10025909 L9,2 Z M8,9 C8.55228475,9 9,8.55228475 9,8 C9,7.44771525 8.55228475,7 8,7 C7.44771525,7 7,7.44771525 7,8 C7,8.55228475 7.44771525,9 8,9 Z M8,11 C6.34314575,11 5,9.65685425 5,8 C5,6.34314575 6.34314575,5 8,5 C9.65685425,5 11,6.34314575 11,8 C11,9.65685425 9.65685425,11 8,11 Z"></path>
            </g>
        </g>
    </g>
</svg>