<?xml version="1.0" encoding="UTF-8"?>
<svg width="24px" height="24px" viewBox="0 0 24 24" version="1.1" xmlns="http://www.w3.org/2000/svg" xmlns:xlink="http://www.w3.org/1999/xlink">
    <title>Icon/Settings/24</title>
    <g id="Page-1" stroke="none" stroke-width="1" fill="none" fill-rule="evenodd">
        <g id="Icons" transform="translate(-340.000000, -849.000000)" fill="#0071C4" fill-rule="nonzero">
            <g id="Icon/Settings/24" transform="translate(340.000000, 849.000000)">
                <path d="M2.37787151,15.2435447 L4.35604452,18.6409357 L6.15100238,17.613359 L7.2033447,18.4032434 C7.69818814,18.7746712 8.23414174,19.0876482 8.8007432,19.3352069 L10,19.8591845 L10,22 L14,22 L14,19.8591845 L15.1992568,19.3352069 C15.7662438,19.0874797 16.3025404,18.7742456 16.7976629,18.402487 L17.8499211,17.6124078 L19.6451475,18.6398473 L21.6234164,15.2432538 L19.8050843,14.2025905 L19.9503796,12.8976488 C19.9833625,12.6014197 20,12.3019393 20,12 C20,11.6978258 19.9833366,11.3981145 19.9503027,11.1016603 L19.8048999,9.79678154 L21.6221285,8.75645527 L19.6439555,5.35906434 L17.8489976,6.38664105 L16.7966553,5.59675656 C16.3018119,5.2253288 15.7658583,4.91235182 15.1992568,4.66479311 L14,4.14081552 L14,2 L10,2 L10,4.14081552 L8.8007432,4.66479311 C8.23375615,4.91252029 7.69745955,5.22575445 7.20233711,5.59751298 L6.1500789,6.38759222 L4.35485247,5.36015274 L2.37658365,8.75674625 L4.19491574,9.79740949 L4.04962038,11.1023512 C4.01663752,11.3985803 4,11.6980607 4,12 C4,12.3021742 4.01666341,12.6018855 4.04969734,12.8983397 L4.19510014,14.2032185 L2.37787151,15.2435447 Z M0.498889762,9.98649399 C0.0212851165,9.7131525 -0.139854629,9.10347355 0.131562509,8.63746323 L3.12813137,3.49249699 C3.40286678,3.02078936 4.01227752,2.85970633 4.49036354,3.13332332 L6.00147583,3.9981593 C6.61653115,3.53635018 7.28656504,3.14380036 8,2.83208737 L8,1.00069463 C8,0.448026248 8.45303631,0 8.99703014,0 L15.0029699,0 C15.5536144,0 16,0.44746922 16,1.00069463 L16,2.83208737 C16.7129485,3.14358781 17.382555,3.53581485 17.9972659,3.99721467 L19.5086484,3.13197905 C19.9861902,2.85859612 20.5993199,3.0251262 20.8707013,3.49120717 L23.8668759,8.63695344 C24.1415752,9.10873258 23.9776201,9.71253025 23.499597,9.98618872 L21.9380004,10.8801709 C21.9789651,11.2477976 22,11.6214423 22,12 C22,12.3782614 21.978998,12.7516176 21.9380966,13.118966 L23.5011102,14.013506 C23.9787149,14.2868475 24.1398546,14.8965265 23.8684375,15.3625368 L20.8718686,20.507503 C20.5971332,20.9792106 19.9877225,21.1402937 19.5096365,20.8666767 L17.9985242,20.0018407 C17.3834688,20.4636498 16.713435,20.8561996 16,21.1679126 L16,22.9993054 C16,23.5519738 15.5469637,24 15.0029699,24 L8.99703014,24 C8.4463856,24 8,23.5525308 8,22.9993054 L8,21.1679126 C7.28705154,20.8564122 6.61744496,20.4641851 6.00273412,20.0027853 L4.4913516,20.8680209 C4.0138098,21.1414039 3.4006801,20.9748738 3.12929867,20.5087928 L0.133124079,15.3630466 C-0.141575178,14.8912674 0.022379887,14.2874697 0.500403001,14.0138113 L2.06199957,13.1198291 C2.02103488,12.7522024 2,12.3785577 2,12 C2,11.6217386 2.02100196,11.2483824 2.06190342,10.881034 L0.498889762,9.98649399 Z M12,6 C15.3137085,6 18,8.6862915 18,12 C18,15.3137085 15.3137085,18 12,18 C8.6862915,18 6,15.3137085 6,12 C6,8.6862915 8.6862915,6 12,6 Z M12,8 C9.790861,8 8,9.790861 8,12 C8,14.209139 9.790861,16 12,16 C14.209139,16 16,14.209139 16,12 C16,9.790861 14.209139,8 12,8 Z"></path>
            </g>
        </g>
    </g>
</svg>