<?xml version="1.0" encoding="UTF-8"?>
<svg width="16px" height="12px" viewBox="0 0 16 12" version="1.1" xmlns="http://www.w3.org/2000/svg" xmlns:xlink="http://www.w3.org/1999/xlink">
    <title>Icon/CreditCard/16</title>
    <g id="Page-1" stroke="none" stroke-width="1" fill="none" fill-rule="evenodd">
        <g id="Icons" transform="translate(-299.000000, -434.000000)" fill="#0071C4" fill-rule="nonzero">
            <g id="Icon/CreditCard/16" transform="translate(299.000000, 434.000000)">
                <path d="M14.9991283,0 C15.5518945,0 16,0.455760956 16,1.00247329 L16,10.9975267 C16,11.5511774 15.5468037,12 15.0026177,12 L0.996678026,12 C0.446227952,12 0,11.544239 0,10.9975267 L0,1.00247329 C0,0.448822582 0.444630861,0 1.00087166,0 L14.9991283,0 Z M14,5 L2,5 L2,10 L14,10 L14,5 Z M14,2 L2,2 L2,3 L14,3 L14,2 Z"></path>
            </g>
        </g>
    </g>
</svg>