<?xml version="1.0" encoding="UTF-8"?>
<svg width="16px" height="16px" viewBox="0 0 16 16" version="1.1" xmlns="http://www.w3.org/2000/svg" xmlns:xlink="http://www.w3.org/1999/xlink">
    <title>Icon/Phone/Outline/16</title>
    <g id="Page-1" stroke="none" stroke-width="1" fill="none" fill-rule="evenodd">
        <g id="Icons" transform="translate(-477.000000, -756.000000)" fill="#0071C4" fill-rule="nonzero">
            <g id="Icon/Phone/Outline/16" transform="translate(477.000000, 756.000000)">
                <path d="M5.21114808,4.10854211 L3.54435013,2.44174416 L2.00281564,3.98327865 C1.86702042,9.31736295 6.68263705,14.1329796 12.0167214,13.9971843 L13.5582558,12.4556499 L11.8918665,10.7892605 L10.7845039,11.8966231 L9.94278124,11.8870541 C9.59505981,11.883101 9.12414102,11.8141953 8.56899952,11.6330749 C7.71104192,11.3531578 6.86739215,10.8653822 6.09966112,10.1313984 C6.04113484,10.0750254 6.04113484,10.0750254 5.98283642,10.0171636 C5.19589905,9.23022621 4.67304237,8.36515316 4.37719063,7.48403201 C4.18142197,6.90098356 4.11068977,6.40081883 4.11284594,6.02350345 C4.11287285,6.01947195 4.11599843,5.74354744 4.12222266,5.19572993 L4.69973259,4.61914134 L5.21114808,4.10854211 Z M9.96551655,9.8871833 L11.2497498,8.60295002 C11.624331,8.22836884 12.1788016,8.24776849 12.5339831,8.60295002 L15.7435699,11.8125368 C16.0987515,12.1677184 16.0830249,12.7593079 15.7084437,13.1338891 L13.1479769,15.6943559 C12.9680967,15.8742362 12.7278275,15.9789926 12.4800259,15.98558 L12.0795957,15.9962249 C5.59248518,16.1686751 -0.168675083,10.4075148 0.00377511169,3.92040431 L0.0144199537,3.51997411 C0.0210073915,3.27217249 0.125763834,3.03190334 0.30564406,2.85202311 L2.86611091,0.291556256 C3.24069209,-0.0830249226 3.83228165,-0.098751452 4.18746317,0.25643007 L7.39704998,3.46601688 C7.75223151,3.82119841 7.73650498,4.41278796 7.3619238,4.78736914 L6.1128167,6.03448345 C6.1128167,6.03448345 6.09838127,7.3042813 7.39704998,8.60295002 C8.66651572,9.87241575 9.96551655,9.8871833 9.96551655,9.8871833 Z"></path>
            </g>
        </g>
    </g>
</svg>