<?xml version="1.0" encoding="UTF-8"?>
<svg width="24px" height="24px" viewBox="0 0 24 24" version="1.1" xmlns="http://www.w3.org/2000/svg" xmlns:xlink="http://www.w3.org/1999/xlink">
    <title>Icon/Phone/Outline/24</title>
    <g id="Page-1" stroke="none" stroke-width="1" fill="none" fill-rule="evenodd">
        <g id="Icons" transform="translate(-517.000000, -752.000000)" fill="#0071C4" fill-rule="nonzero">
            <g id="Icon/Phone/Outline/24" transform="translate(517.000000, 752.000000)">
                <path d="M9.23150049,6.16337797 L5.3165252,2.24840268 L2.01516419,5.54976369 L2.00495636,5.93375472 C1.77674347,14.5185073 9.48149269,22.2232565 18.0662453,21.9950436 L18.4502363,21.9848358 L21.7515973,18.6834748 L17.8377997,14.7696772 L15.7672621,16.8402148 L14.9255395,16.8306457 C14.5002002,16.8258103 13.8934502,16.7370295 13.1636685,16.498931 C12.0146439,16.1240504 10.8799271,15.4679877 9.84053354,14.4742829 C9.78711359,14.4232112 9.73405365,14.3713308 9.68136141,14.3186386 C8.61299284,13.25027 7.90951369,12.0863548 7.51377473,10.9077443 C7.25738311,10.1441454 7.16661625,9.50231065 7.16925259,9.04096959 C7.16928035,9.0368135 7.17240649,8.76081419 7.17863101,8.21297165 L7.75614094,7.63638307 L9.23150049,6.16337797 Z M14.9482748,14.8307749 L16.8746247,12.904425 C17.4364965,12.3425533 18.2682024,12.3716527 18.8009747,12.904425 L23.6153549,17.7188052 C24.1481272,18.2515775 24.1245374,19.1389619 23.5626656,19.7008336 L19.7219653,23.5415339 C19.452145,23.8113542 19.0917413,23.9684889 18.7200388,23.9783701 L18.1193935,23.9943373 C8.38872776,24.2530126 -0.253012624,15.6112722 0.00566266753,5.88060647 L0.0216299305,5.27996116 C0.0315110873,4.90825874 0.188645751,4.547855 0.45846609,4.27803466 L4.29916637,0.437334384 C4.86103814,-0.124537384 5.74842247,-0.148127178 6.28119476,0.384645105 L11.095575,5.19902533 C11.6283473,5.73179761 11.6047575,6.61918194 11.0428857,7.18105371 L9.16922505,9.05172517 C9.16922505,9.05172517 9.14757191,10.956422 11.095575,12.904425 C12.9997736,14.8086236 14.9482748,14.8307749 14.9482748,14.8307749 Z"></path>
            </g>
        </g>
    </g>
</svg>