<?xml version="1.0" encoding="UTF-8"?>
<svg width="22px" height="22px" viewBox="0 0 22 22" version="1.1" xmlns="http://www.w3.org/2000/svg" xmlns:xlink="http://www.w3.org/1999/xlink">
    <title>Icon/Search/24</title>
    <g id="Page-1" stroke="none" stroke-width="1" fill="none" fill-rule="evenodd">
        <g id="Icons" transform="translate(-74.000000, -850.000000)" fill="#0071C4" fill-rule="nonzero">
            <g id="Icon/Search/24" transform="translate(74.000000, 850.000000)">
                <path d="M9.5,4.79616347e-14 C14.7467051,4.79616347e-14 19,4.25329488 19,9.5 C19,11.7631465 18.2086338,13.8414595 16.8875269,15.4733134 L21.7071068,20.2928932 C22.0976311,20.6834175 22.0976311,21.3165825 21.7071068,21.7071068 C21.3165825,22.0976311 20.6834175,22.0976311 20.2928932,21.7071068 L15.4733134,16.8875269 C13.8414595,18.2086338 11.7631465,19 9.5,19 C4.25329488,19 -5.32907052e-15,14.7467051 -5.32907052e-15,9.5 C-5.32907052e-15,4.25329488 4.25329488,4.79616347e-14 9.5,4.79616347e-14 Z M9.5,2 C5.35786438,2 2,5.35786438 2,9.5 C2,13.6421356 5.35786438,17 9.5,17 C13.6421356,17 17,13.6421356 17,9.5 C17,5.35786438 13.6421356,2 9.5,2 Z"></path>
            </g>
        </g>
    </g>
</svg>