<?xml version="1.0" encoding="UTF-8"?>
<svg width="16px" height="16px" viewBox="0 0 16 16" version="1.1" xmlns="http://www.w3.org/2000/svg" xmlns:xlink="http://www.w3.org/1999/xlink">
    <title>Icon/Target/16</title>
    <g id="Page-1" stroke="none" stroke-width="1" fill="none" fill-rule="evenodd">
        <g id="Icons" transform="translate(-384.000000, -897.000000)" fill="#0071C4" fill-rule="nonzero">
            <g id="Icon/Target/16" transform="translate(384.000000, 897.000000)">
                <path d="M15.6893844,2.33089328 L14.1913901,1.85295995 C14.1796829,1.83766893 14.1685078,1.8220223 14.1546719,1.80779809 C14.1452707,1.79873016 14.1349825,1.79179586 14.1252265,1.78379474 L13.7385328,0.331503274 C13.6977349,0.177348438 13.5774696,0.0567982885 13.4236791,0.0151924849 C13.269179,-0.0260577136 13.1052777,0.0180373262 12.9926398,0.131119767 L11.7287903,1.39867436 C11.6165072,1.511579 11.5725164,1.67551297 11.6134917,1.82966781 L11.9883007,3.24070908 C11.9820923,3.25493329 11.9744649,3.26844628 11.9696756,3.28373731 C11.9588552,3.31734199 11.9537111,3.35112448 11.9510504,3.38472917 L8.02132075,7.32323411 C7.68039178,7.10133649 7.28340997,6.98149756 6.86762563,6.98149756 C6.29982458,6.98149756 5.76590356,7.20303957 5.36360028,7.60558461 C4.53557924,8.43752288 4.53593401,9.78935589 5.36395504,10.6196939 C5.76590356,11.022239 6.29964719,11.243781 6.86762563,11.243781 C7.43507192,11.243781 7.96899294,11.0218834 8.37058669,10.6193383 C9.09093661,9.89763766 9.18406237,8.78121527 8.65156041,7.95532228 L9.61297301,6.9916323 C10.0803756,7.59687228 10.3366932,8.33421958 10.3366932,9.11263927 C10.337048,10.0420134 9.97607478,10.915024 9.3208242,11.5712933 C8.66539624,12.2282739 7.79391652,12.5899243 6.86709348,12.5901021 C6.86673872,12.5901021 6.86673872,12.5901021 6.86673872,12.5901021 C5.93991569,12.5901021 5.06932288,12.2286295 4.41460445,11.5718268 C3.75917648,10.9152018 3.3982033,10.0418356 3.3982033,9.11246147 C3.3982033,8.18326519 3.75917648,7.30954331 4.41460445,6.65256278 C5.42107217,5.64335534 6.97245863,5.35407054 8.27409067,5.93264014 C8.49865678,6.03238739 8.76224703,5.93086211 8.86193594,5.70523064 C8.96180223,5.47977697 8.86016211,5.21591794 8.63541861,5.11599289 C6.99871122,4.38878034 5.04927867,4.75238661 3.78436479,6.02100802 C2.96042355,6.846901 2.50667937,7.94483193 2.50667937,9.11263927 C2.50667937,10.2804466 2.96060093,11.3785553 3.78401002,12.2037371 C4.60724173,13.0292745 5.70204589,13.4837379 6.86673872,13.4837379 L6.86709348,13.4837379 C8.03178631,13.4833823 9.12712262,13.0287411 9.95088648,12.2033815 C10.774473,11.3778441 11.2278624,10.2806244 11.2278624,9.11263927 C11.2278624,8.09489731 10.8832084,7.13085172 10.2494211,6.35332104 L11.3972626,5.20311615 C12.334019,6.29037893 12.8464767,7.66177023 12.8464767,9.11317268 C12.8464767,10.7141071 12.2245741,12.2188503 11.0955351,13.3505638 C8.76419823,15.6874231 4.97052088,15.6877787 2.6393614,13.3505638 C0.307669779,11.0144157 0.307669779,7.21139629 2.6393614,4.87347017 C4.54586742,2.96315926 7.50762133,2.56825973 9.84215107,3.91298064 C10.0555421,4.03584222 10.3281788,3.96223195 10.4509275,3.74833545 C10.5736761,3.53443894 10.4997076,3.26115638 10.2863166,3.13811699 C7.6035852,1.59283477 4.19979436,2.04623135 2.00876698,4.24173761 C-0.669707236,6.92833458 -0.669707236,11.297833 2.00947651,13.9822963 C3.30720613,15.2834556 5.03260472,16 6.86780301,16 C8.70264654,16 10.4280451,15.2836334 11.7261295,13.9822963 C13.0235044,12.6820261 13.7381781,10.9527182 13.7381781,9.11281708 C13.7381781,7.42280356 13.1336589,5.8268476 12.0290987,4.56960556 L12.5990283,3.99868148 C12.6157022,3.99619224 12.6323762,3.99654785 12.6488728,3.99210278 C12.66058,3.98890234 12.6706908,3.98339046 12.6818659,3.9796566 L14.1553815,4.44994443 C14.1997271,4.46381303 14.2454917,4.47074733 14.2905469,4.47074733 C14.4069097,4.47074733 14.5209666,4.42487426 14.6057554,4.33988463 L15.869605,3.07233004 C15.9794047,2.96227024 16.024105,2.80242572 15.9873869,2.65076012 C15.9506687,2.49927233 15.8376761,2.37801097 15.6893844,2.33089328 Z M13.104995,1.10344828 L13.2413793,1.67220612 C13.2362924,1.68473316 13.2303806,1.69664911 13.2266685,1.70978722 C13.2185569,1.7386605 13.2142949,1.76768656 13.2122327,1.79655984 L12.843225,2.20689655 L12.6896552,1.56542081 L13.104995,1.10344828 Z M7.62298866,9.88365382 C7.41444598,10.0919623 7.13686519,10.2068966 6.84214391,10.2068966 C6.54710522,10.2068966 6.26936573,10.0919623 6.06066434,9.88365382 C5.63040618,9.45387891 5.63040618,8.75349323 6.06034692,8.32292567 C6.26920702,8.11461721 6.54694651,8 6.84214391,8 C6.99831286,8 7.14908573,8.03281572 7.28763806,8.09416684 L6.55980188,8.82134409 C6.40395035,8.97670352 6.40395035,9.22908332 6.55980188,9.38460128 C6.63756894,9.46259806 6.73961836,9.50127939 6.84150908,9.50127939 C6.9433998,9.50127939 7.04576664,9.46259806 7.1235337,9.38460128 L7.85073504,8.65821669 C8.02912315,9.06278532 7.95421284,9.55296018 7.62298866,9.88365382 Z M13.901034,3.31034483 L13.2413793,3.12973394 L13.6566281,2.77266413 C13.6705454,2.7709545 13.6843208,2.77009968 13.6985222,2.76692464 C13.707469,2.76472653 13.7151378,2.76118514 13.7240847,2.75862069 L14.3448276,2.92848529 L13.901034,3.31034483 Z"></path>
            </g>
        </g>
    </g>
</svg>