<?xml version="1.0" encoding="UTF-8"?>
<svg width="22px" height="22px" viewBox="0 0 22 22" version="1.1" xmlns="http://www.w3.org/2000/svg" xmlns:xlink="http://www.w3.org/1999/xlink">
    <title>Icon/Target/24</title>
    <g id="Page-1" stroke="none" stroke-width="1" fill="none" fill-rule="evenodd">
        <g id="Icons" transform="translate(-427.000000, -894.000000)" fill="#0071C4" fill-rule="nonzero">
            <g id="Icon/Target/24" transform="translate(427.000000, 894.000000)">
                <path d="M21.5729036,3.20497826 L19.5131614,2.54781993 C19.4970639,2.52679477 19.4816982,2.50528066 19.4626739,2.48572238 C19.4497472,2.47325397 19.4356009,2.46371931 19.4221864,2.45271777 L18.8904826,0.455817002 C18.8343855,0.243854102 18.6690207,0.0780976467 18.4575587,0.0208896667 C18.2451211,-0.0358293562 18.0197568,0.0248013235 17.8648798,0.180289679 L16.1270866,1.92317724 C15.9726974,2.07842112 15.91221,2.30383034 15.9685511,2.51579324 L16.4839135,4.45597499 C16.4753769,4.47553327 16.4648892,4.49411364 16.4583039,4.5151388 C16.4434259,4.56134524 16.4363528,4.60779617 16.4326943,4.65400261 L11.029316,10.0694469 C10.5605387,9.76433768 10.0146887,9.59955914 9.44298524,9.59955914 C8.66225879,9.59955914 7.92811739,9.90417941 7.37495038,10.4576788 C6.23642146,11.601594 6.23690926,13.4603644 7.37543818,14.6020792 C7.92811739,15.1555786 8.66201489,15.4601989 9.44298524,15.4601989 C10.2232239,15.4601989 10.9573653,15.1550896 11.5095567,14.6015902 C12.5000378,13.6092518 12.6280858,12.074171 11.8958956,10.9385681 L13.2178379,9.61349442 C13.8605165,10.4456994 14.2129531,11.4595519 14.2129531,12.529879 C14.2134409,13.8077684 13.7171028,15.008158 12.8161333,15.9105284 C11.9149198,16.8138766 10.7166352,17.3111459 9.44225354,17.3113904 C8.16738407,17.3113904 6.97031896,16.8143655 6.07008111,15.9112618 C5.16886767,15.0084025 4.67252954,13.8075239 4.67252954,12.5296345 C4.67252954,11.2519896 5.16886767,10.0506221 6.07008111,9.14727383 C7.45397424,7.75961359 9.58713062,7.361847 11.3768747,8.15738019 C11.6856531,8.29453265 12.0480897,8.1549354 12.1851619,7.84469213 C12.3224781,7.53469333 12.1827229,7.17188717 11.8737006,7.03449022 C9.62322793,6.03457297 6.94275817,6.53453159 5.20350158,8.27888603 C4.07058237,9.41448888 3.44668413,10.9241439 3.44668413,12.529879 C3.44668413,14.1356141 4.07082628,15.6455136 5.20301378,16.7801385 C6.33495738,17.9152524 7.8403131,18.5401396 9.44176574,18.5401396 C11.0437062,18.5396506 12.5497936,17.914519 13.6824689,16.7796496 C14.8149003,15.6445357 15.4383108,14.1358586 15.4383108,12.529879 C15.4383108,11.1304838 14.9644115,9.80492112 14.092954,8.73581643 L15.671236,7.15428471 C16.9592761,8.64927103 17.6639055,10.5349341 17.6639055,12.5306124 C17.6639055,14.7318973 16.8087893,16.8009192 15.2563608,18.3570252 C12.0507726,21.5702067 6.83446621,21.5706957 3.62912193,18.3570252 C0.423045946,15.1448215 0.423045946,9.9156699 3.62912193,6.70102149 C6.2505677,4.07434398 10.3229793,3.53135712 13.5329577,5.38034837 C13.8263704,5.54928305 14.2012459,5.44806893 14.3700253,5.15396124 C14.5388046,4.85985355 14.437098,4.48409002 14.1436853,4.31491087 C10.4549297,2.19014781 5.77471725,2.81356811 2.7620546,5.83238921 C-0.920847449,9.52646005 -0.920847449,15.5345203 2.7630302,19.2256574 C4.54740843,21.0147515 6.91983149,22 9.44322914,22 C11.966139,22 14.3385621,21.0149959 16.1234281,19.2256574 C17.9073185,17.4377858 18.8899948,15.0599875 18.8899948,12.5301235 C18.8899948,10.2063549 18.0587809,8.01191545 16.5400107,6.28320765 L17.3236639,5.49818703 C17.3465906,5.49476433 17.3695173,5.49525329 17.3922,5.48914133 C17.4082975,5.48474071 17.4221998,5.47716188 17.4375656,5.47202783 L19.4636495,6.11867359 C19.5246247,6.13774291 19.5875511,6.14727758 19.6495019,6.14727758 C19.8095008,6.14727758 19.9663291,6.08420211 20.0829136,5.96734137 L21.8207068,4.2244538 C21.9716814,4.07312158 22.0331444,3.85333537 21.982657,3.64479517 C21.9321695,3.43649945 21.7768047,3.26976508 21.5729036,3.20497826 Z M18.1067364,0.916666667 L18.3333333,1.86163413 C18.3248816,1.88244727 18.3150594,1.90224514 18.3088919,1.92407356 C18.2954149,1.97204532 18.2883337,2.02027089 18.2849074,2.06824265 L17.6718166,2.75 L17.4166667,1.68421478 L18.1067364,0.916666667 Z M10.5625002,13.5605919 C10.2790125,13.8437612 9.90167612,14 9.50103938,14 C9.09997116,14 8.72241903,13.8437612 8.43871558,13.5605919 C7.85383341,12.9763666 7.85383341,12.0242799 8.43828409,11.4389771 C8.72220329,11.1558078 9.09975541,11 9.50103938,11 C9.71333155,11 9.91828841,11.0446089 10.106633,11.128008 L9.11723068,12.1165146 C8.90537001,12.3277063 8.90537001,12.6707851 9.11723068,12.8821924 C9.22294528,12.9882192 9.36166871,13.0408017 9.50017641,13.0408017 C9.6386841,13.0408017 9.77783903,12.9882192 9.88355362,12.8821924 L10.8720929,11.8947633 C11.1145893,12.4447238 11.0127581,13.1110552 10.5625002,13.5605919 Z M19.4293222,4.58333333 L18.3333333,4.28325587 L19.0232518,3.68999926 C19.0463749,3.68715877 19.0692621,3.68573853 19.0928571,3.68046333 C19.107722,3.67681127 19.1204633,3.6709274 19.1353282,3.66666667 L20.1666667,3.94888963 L19.4293222,4.58333333 Z"></path>
            </g>
        </g>
    </g>
</svg>