<?xml version="1.0" encoding="UTF-8"?>
<svg width="16px" height="8px" viewBox="0 0 16 8" version="1.1" xmlns="http://www.w3.org/2000/svg" xmlns:xlink="http://www.w3.org/1999/xlink">
    <title>Icon/Link/16</title>
    <g id="Page-1" stroke="none" stroke-width="1" fill="none" fill-rule="evenodd">
        <g id="Icons" transform="translate(-28.000000, -655.000000)" fill="#0071C4" fill-rule="nonzero">
            <g id="Icon/Link/16" transform="translate(28.000000, 655.000000)">
                <path d="M5.99998946,0 C6.55228475,0 7,0.44771525 7,1 C7,1.55228475 6.55228475,2 6,2 L3.99965217,2 C2.89527477,2 2,2.89527477 2,3.99965217 C2,5.10402957 2.89527477,5.99930434 3.99965217,5.99930434 L5.99998946,5.99930434 C6.55228475,6 7,6.44771525 7,7 C7,7.55228475 6.55228475,8 6,8 L5.98113272,7.99982558 L5.98113272,7.99982558 L3.99965217,7.99930434 C1.79070527,7.99930434 0,6.20859907 0,3.99965217 C0,1.79070527 1.79070527,0 3.99965217,0 L5.99998946,0 Z M12.0003478,0.000695657851 C14.2092947,0.000695657851 16,1.79140093 16,4.00034783 C16,6.20929473 14.2092947,8 12.0003478,8 L10.0000105,8 C9.44771525,8 9,7.55228475 9,7 C9,6.44771525 9.44771525,6 10,6 L12.0003478,6 C13.1047252,6 14,5.10472523 14,4.00034783 C14,2.89597043 13.1047252,2.00069566 12.0003478,2.00069566 L10.0000105,2.00069566 C9.44771525,2 9,1.55228475 9,1 C9,0.44771525 9.44771525,0 10,0 L12.0003478,0.000695657851 Z M11.0029699,3 C11.5142826,3 11.9356987,3.38272018 11.9932922,3.88266744 L12,4 C12,4.55228475 11.5469637,5 11.0029699,5 L4.99703014,5 C4.4463856,5 4,4.55613518 4,4 C4,3.44771525 4.45303631,3 4.99703014,3 L11.0029699,3 Z"></path>
            </g>
        </g>
    </g>
</svg>