<?xml version="1.0" encoding="UTF-8"?>
<svg width="22px" height="10px" viewBox="0 0 22 10" version="1.1" xmlns="http://www.w3.org/2000/svg" xmlns:xlink="http://www.w3.org/1999/xlink">
    <title>Icon/Link/24</title>
    <g id="Page-1" stroke="none" stroke-width="1" fill="none" fill-rule="evenodd">
        <g id="Icons" transform="translate(-74.000000, -654.000000)" fill="#0071C4">
            <g id="Icon/Link/24" transform="translate(74.000000, 654.000000)">
                <path d="M13,8 L9,8 C9.55228475,8 10,8.44771525 10,9 C10,9.55228475 9.55228475,10 9,10 L4.99214053,10 C2.23505745,10 0,7.75580481 0,5 C0,2.23857625 2.23054698,0 4.99214053,0 L9,0 C9.55228475,0 10,0.44771525 10,1 C10,1.55228475 9.55228475,2 9,2 L5,2 C3.34314575,2 2,3.34314575 2,5 C2,6.65685425 3.34314575,8 5,8 L17,8 C18.6568542,8 20,6.65685425 20,5 C20,3.34314575 18.6568542,2 17,2 L13,2 C12.4477153,2 12,1.55228475 12,1 C12,0.44771525 12.4477153,0 13,0 L17.0078595,0 C19.7649426,0 22,2.24419519 22,5 C22,7.76142375 19.769453,10 17.0078595,10 L13,10 C12.4477153,10 12,9.55228475 12,9 C12,8.44771525 12.4477153,8 13,8 Z M5,4 L17,4 C17.5522847,4 18,4.44771525 18,5 C18,5.55228475 17.5522847,6 17,6 L5,6 C4.44771525,6 4,5.55228475 4,5 C4,4.44771525 4.44771525,4 5,4 Z"></path>
            </g>
        </g>
    </g>
</svg>