<?xml version="1.0" encoding="UTF-8"?>
<svg width="14px" height="14px" viewBox="0 0 14 14" version="1.1" xmlns="http://www.w3.org/2000/svg" xmlns:xlink="http://www.w3.org/1999/xlink">
    <title>Icon/Calculator/16</title>
    <g id="Page-1" stroke="none" stroke-width="1" fill="none" fill-rule="evenodd">
        <g id="Icons" transform="translate(-385.000000, -327.000000)" fill="#0071C4">
            <g id="Icon/Calculator/16" transform="translate(385.000000, 327.000000)">
                <path d="M0,1.00684547 C0,0.450780073 0.449948758,0 1.00684547,0 L12.9931545,0 C13.5492199,0 14,0.449948758 14,1.00684547 L14,12.9931545 C14,13.5492199 13.5500512,14 12.9931545,14 L1.00684547,14 C0.450780073,14 0,13.5500512 0,12.9931545 L0,1.00684547 Z M2,2 L2,12 L12,12 L12,2 L2,2 Z M6,8 L8,8 L8,10 L6,10 L6,12 L4,12 L4,10 L2,10 L2,8 L4,8 L4,6 L6,6 L6,8 Z M8,6 L10,6 L10,12 L8,12 L8,6 Z M2,4 L12,4 L12,6 L2,6 L2,4 Z"></path>
            </g>
        </g>
    </g>
</svg>