<?xml version="1.0" encoding="UTF-8"?>
<svg width="20px" height="24px" viewBox="0 0 20 24" version="1.1" xmlns="http://www.w3.org/2000/svg" xmlns:xlink="http://www.w3.org/1999/xlink">
    <title>Icon/Calculator/24</title>
    <g id="Page-1" stroke="none" stroke-width="1" fill="none" fill-rule="evenodd">
        <g id="Icons" transform="translate(-428.000000, -322.000000)" fill="#0071C4">
            <g id="Icon/Calculator/24" transform="translate(428.000000, 322.000000)">
                <path d="M20,22.9993054 C20,23.5519738 19.5446944,24 19.0081969,24 L0.99180311,24 C0.444045377,24 0,23.5525308 0,22.9993054 L0,1.00069463 C0,0.448026248 0.455305576,0 0.99180311,0 L19.0081969,0 C19.5559546,0 20,0.44746922 20,1.00069463 L20,22.9993054 Z M2,22 L4,22 L4,20 L2,20 L2,22 Z M8,20 L6,20 L6,22 L8,22 L8,20 Z M12,20 L10,20 L10,22 L12,22 L12,20 Z M18,16 L14,16 L14,22 L18,22 L18,16 Z M2,18 L4,18 L4,16 L2,16 L2,18 Z M12,16 L10,16 L10,18 L12,18 L12,16 Z M18,14 L18,12 L14,12 L14,14 L18,14 Z M2,14 L4,14 L4,12 L2,12 L2,14 Z M18,10 L18,8 L14,8 L14,10 L18,10 Z M2,10 L4,10 L4,8 L2,8 L2,10 Z M18,2 L2,2 L2,6 L18,6 L18,2 Z M6,18 L8,18 L8,16 L6,16 L6,18 Z M6,14 L8,14 L8,12 L6,12 L6,14 L6,14 Z M12,14 L12,12 L10,12 L10,14 L12,14 L12,14 Z M6,10 L8,10 L8,8 L6,8 L6,10 Z M12,10 L12,8 L10,8 L10,10 L12,10 Z"></path>
            </g>
        </g>
    </g>
</svg>