<?xml version="1.0" encoding="UTF-8"?>
<svg width="22px" height="22px" viewBox="0 0 22 22" version="1.1" xmlns="http://www.w3.org/2000/svg" xmlns:xlink="http://www.w3.org/1999/xlink">
    <title>Icon/Dollar/Fill/24</title>
    <g id="Page-1" stroke="none" stroke-width="1" fill="none" fill-rule="evenodd">
        <g id="Icons" transform="translate(-74.000000, -217.000000)" fill="#0071C4">
            <g id="Icon/Dollar/Fill/24" transform="translate(74.000000, 217.000000)">
                <path d="M11,0 C17.0751322,0 22,4.92486775 22,11 C22,17.0751322 17.0751322,22 11,22 C4.92486775,22 0,17.0751322 0,11 C0,4.92486775 4.92486775,0 11,0 Z M12.436573,5 L11.7032584,5 C11.553164,5 11.4309461,5.0482439 11.3366011,5.14473314 C11.242256,5.24122239 11.1886517,5.34950314 11.1757865,5.46957864 L11.1757865,5.46957864 L11.105028,6.18359549 C10.6075724,6.20932595 10.1658727,6.30474166 9.77991569,6.46984548 C9.39395871,6.6349493 9.06911646,6.84615037 8.80537919,7.10345502 C8.54164192,7.36075967 8.34116172,7.65022307 8.20393257,7.97185388 C8.06670343,8.2934847 7.99808988,8.62368738 7.99808988,8.96247184 C7.99808988,9.42133181 8.07420803,9.80299465 8.22644662,10.1074718 C8.37868521,10.411949 8.57702123,10.6628173 8.82146065,10.8600842 C9.06590007,11.0573511 9.34035425,11.2138757 9.64483143,11.3296628 C9.9493086,11.4454499 10.2559254,11.5462261 10.564691,11.6319943 L10.564691,11.6319943 L10.3266853,14.0635111 C10.1337069,14.0120502 9.962173,13.9466529 9.81207862,13.8673173 C9.66198423,13.7879817 9.52368506,13.7097193 9.39717694,13.6325279 C9.27066882,13.5553366 9.15381137,13.4899393 9.0466011,13.4363341 C8.93939083,13.382729 8.83432634,13.3559268 8.73140448,13.3559268 C8.63277103,13.3559268 8.53949949,13.3805848 8.45158706,13.4299015 C8.36367464,13.4792183 8.29398901,13.5403272 8.24252808,13.6132302 L8.24252808,13.6132302 L7.625,14.5073594 C7.93376558,14.7946829 8.31221217,15.0401908 8.7603511,15.2438903 C9.20849004,15.4475898 9.67913608,15.5901773 10.1723033,15.6716571 L10.1723033,15.6716571 L10.0436516,16.9967695 L10.7769662,16.9967695 C10.9270606,16.9967695 11.0492785,16.9485256 11.1436235,16.8520363 C11.2379686,16.7555471 11.2915729,16.6472663 11.3044381,16.5271908 L11.3044381,16.5271908 L11.3816292,15.7231178 C11.8790848,15.6845221 12.3207845,15.5783855 12.7067415,15.4047049 C13.0926985,15.2310242 13.4186128,15.0069581 13.6844943,14.7324998 C13.9503758,14.4580415 14.151928,14.141776 14.2891572,13.7836937 C14.4263863,13.4256114 14.4949999,13.0428764 14.4949999,12.6354774 C14.4949999,12.3653075 14.4606931,12.124088 14.3920785,11.9118117 C14.323464,11.6995353 14.2280483,11.5119202 14.1058285,11.3489606 C13.9836088,11.186001 13.8399492,11.0444855 13.6748454,10.92441 C13.5097416,10.8043345 13.3317752,10.6981979 13.1409409,10.6059971 C12.9501066,10.5137963 12.7517706,10.4323177 12.5459269,10.3615589 C12.3400832,10.2908001 12.1342425,10.2254028 11.9283988,10.1653651 L11.9283988,10.1653651 L12.1535393,7.8817977 C12.28648,7.9203934 12.4119141,7.96542104 12.5298454,8.01688197 C12.6477767,8.0683429 12.7582016,8.1165868 12.8611235,8.16161512 C12.9640454,8.20664343 13.058389,8.24416646 13.1441572,8.27418534 C13.2299254,8.30420421 13.3071157,8.31921343 13.3757302,8.31921343 C13.4786521,8.31921343 13.5676353,8.29455544 13.6426825,8.24523871 C13.7177297,8.19592198 13.7917037,8.11765966 13.8646066,8.01044939 L13.8646066,8.01044939 L14.353483,7.29643255 C14.1219088,7.07772359 13.838878,6.87295504 13.5043819,6.68212076 C13.1698859,6.49128647 12.7710696,6.3529873 12.3079213,6.26721908 L12.3079213,6.26721908 L12.436573,5 Z M11.7482864,11.9793538 C12.0055911,12.0779873 12.2125038,12.2002051 12.3690308,12.3460111 C12.5255578,12.4918171 12.6038201,12.6869369 12.6038201,12.9313763 C12.6038201,13.5875031 12.2500316,13.9777427 11.5424438,14.1021066 L11.5424438,14.1021066 Z M10.9442134,7.83676962 L10.7512359,9.77941003 C10.4896428,9.67219976 10.2784418,9.5403331 10.1176264,9.38380611 C9.95681095,9.22727911 9.87640446,9.02251056 9.87640446,8.76949432 C9.87640446,8.65799564 9.89570202,8.55185906 9.93429771,8.4510814 C9.97289341,8.35030375 10.0340024,8.25917638 10.1176264,8.17769658 C10.2012504,8.09621677 10.3106032,8.02653114 10.4456882,7.96863759 C10.5807731,7.91074404 10.7469465,7.86678849 10.9442134,7.83676962 L10.9442134,7.83676962 Z"></path>
            </g>
        </g>
    </g>
</svg>