<?xml version="1.0" encoding="UTF-8"?>
<svg width="16px" height="16px" viewBox="0 0 16 16" version="1.1" xmlns="http://www.w3.org/2000/svg" xmlns:xlink="http://www.w3.org/1999/xlink">
    <title>Icon/Check/Back/16</title>
    <g id="Page-1" stroke="none" stroke-width="1" fill="none" fill-rule="evenodd">
        <g id="Icons" transform="translate(-121.000000, -377.000000)" fill="#0071C4" fill-rule="nonzero">
            <g id="Icon/Check/Back/16" transform="translate(121.000000, 377.000000)">
                <path d="M8.806,5.634 L7.651,7.634 L2,7.63414157 L2,13.6341416 L14,13.6341416 L14,7.63414157 L12.335,7.634 L13.49,5.634 L14.9991283,5.63414157 C15.5518945,5.63414157 16,6.08980597 16,6.62953914 L16,14.638744 C16,15.1884869 15.5468037,15.6341416 15.0026177,15.6341416 L0.996678026,15.6341416 C0.446227952,15.6341416 0,15.1784772 0,14.638744 L0,6.62953914 C0,6.07979624 0.444630861,5.63414157 1.00087166,5.63414157 L8.806,5.634 Z M4.74598615,9.36377452 L4.98948272,10.5321285 C5.01656365,10.6620692 5.04432222,10.7760123 5.07208572,10.873188 C5.078512,10.864143 5.08514673,10.8547898 5.0920025,10.8451121 C5.51254465,10.2514697 5.61846889,10.1341416 6,10.1341416 C6.17702855,10.1341416 6.33601089,10.1941396 6.4787632,10.2972696 C6.65831277,10.4269835 7.21116878,11.1382036 7.35355339,11.2805882 C7.54881554,11.4758503 7.54881554,11.7924328 7.35355339,11.987695 C7.15829124,12.1829571 6.84170876,12.1829571 6.64644661,11.987695 C6.48245137,11.8236997 6.19398413,11.4663634 6.02475777,11.2607527 C5.99392818,11.3024923 5.95649271,11.3547146 5.9079975,11.4231711 C5.48745535,12.0168134 5.38153111,12.1341416 5,12.1341416 C4.71199304,12.1341416 4.50862699,12.0061193 4.35296387,11.7560836 L4.35296387,11.7560836 L3.91602515,12.4114917 C3.76284892,12.641256 3.45241425,12.7033429 3.2226499,12.5501667 C2.99288556,12.3969905 2.93079862,12.0865558 3.08397485,11.8567915 L3.08397485,11.8567915 L4.74598615,9.36377452 Z M14.2918243,0.134094851 L14.3409132,0.16243637 C14.8192059,0.438578744 14.983081,1.05016915 14.7069386,1.52846177 L9.89197403,9.86822511 C9.81165441,10.0073428 9.69900209,10.1250633 9.56355137,10.2114234 L7.89056988,11.2780757 L7.9778272,9.29590509 C7.98489187,9.13542127 8.03051465,8.97900125 8.11083427,8.83988359 L12.9257989,0.500120255 C13.2019413,0.0218276315 13.8135317,-0.142047524 14.2918243,0.134094851 Z"></path>
            </g>
        </g>
    </g>
</svg>