<?xml version="1.0" encoding="UTF-8"?>
<svg width="24px" height="20px" viewBox="0 0 24 20" version="1.1" xmlns="http://www.w3.org/2000/svg" xmlns:xlink="http://www.w3.org/1999/xlink">
    <title>Icon/Check/Back/24</title>
    <g id="Page-1" stroke="none" stroke-width="1" fill="none" fill-rule="evenodd">
        <g id="Icons" transform="translate(-164.000000, -375.000000)" fill="#0071C4" fill-rule="nonzero">
            <g id="Icon/Check/Back/24" transform="translate(164.000000, 375.000000)">
                <path d="M12.29,7.634 L11.3423436,9.27666861 C11.275677,9.39213849 11.2169469,9.51163746 11.1664225,9.63432885 L2,9.63414157 L2,17.6341416 L22,17.6341416 L22,9.63414157 L18.129,9.634 L19.284,7.634 L23.0909091,7.63414157 C23.5571235,7.63414157 23.9413701,7.9850872 23.9938839,8.43721328 L24,8.54323248 L24,18.7250507 C24,19.2271277 23.5929861,19.6341416 23.0909091,19.6341416 L23.0909091,19.6341416 L0.909090909,19.6341416 C0.407013864,19.6341416 0,19.2271277 0,18.7250507 L0,18.7250507 L0,8.54323248 C0,8.04115544 0.407013864,7.63414157 0.909090909,7.63414157 L0.909090909,7.63414157 L12.29,7.634 Z M20.0849167,0.134087847 L20.1340056,0.162429366 C20.6122982,0.438571741 20.7761734,1.05016215 20.500031,1.52845477 L14.8555342,11.3050101 C14.784472,11.4280934 14.6879897,11.5346153 14.5725187,11.6174752 L12.720367,12.946545 L12.9452995,10.6779997 C12.9593227,10.5365689 13.0033322,10.3997519 13.0743944,10.2766686 L18.7188913,0.500113251 C18.9950336,0.0218206276 19.606624,-0.142054528 20.0849167,0.134087847 Z M8.00926298,14.5785193 C8.00753256,14.5769487 8.005793,14.5753616 8.00404431,14.5737581 L8.00926298,14.5785193 Z M8.00404431,14.5737581 C8.07706018,14.4677479 8.31007464,14.198145 8.59309714,13.8296043 C8.60620989,13.8125305 8.60620989,13.8125305 8.619355,13.7954228 C9.33713242,12.8614334 9.55120064,12.6341416 10,12.6341416 C10.324573,12.6341416 10.5110012,12.792721 10.7830849,13.1361458 C10.6867738,13.0145817 11.1666924,13.6416613 11.3092966,13.8029409 C11.7941344,14.3512728 12.3025074,14.6341416 13,14.6341416 L19,14.6341416 C19.2761424,14.6341416 19.5,14.8579992 19.5,15.1341416 C19.5,15.4102839 19.2761424,15.6341416 19,15.6341416 L13,15.6341416 C11.9802722,15.6341416 11.2191338,15.2106291 10.5601475,14.4653422 C10.3899614,14.2728687 9.88142691,13.6083984 9.99926766,13.7571373 C9.92507077,13.6634858 9.89057326,13.6341416 10,13.6341416 C10.0561974,13.6341416 9.77521971,13.9324761 9.41225624,14.404773 C9.39924757,14.4217031 9.39924757,14.4217031 9.38621007,14.4386789 C8.59203579,15.4728213 8.44467704,15.6341416 8,15.6341416 C7.49365354,15.6341416 6.93199443,15.0137045 6.0095456,13.5856946 L4.42803222,16.2050761 C4.28530276,16.4414718 3.97796112,16.5174033 3.74156545,16.3746738 C3.50516978,16.2319443 3.42923832,15.9246027 3.57196778,15.688207 L5.99438537,11.6760779 L6.42497387,12.3707081 C6.93192169,13.188522 7.34670054,13.7985617 7.66528645,14.196794 C7.79970627,14.3648188 7.91397432,14.4911638 8.00404431,14.5737581 Z"></path>
            </g>
        </g>
    </g>
</svg>