<?xml version="1.0" encoding="UTF-8"?>
<svg width="10px" height="12px" viewBox="0 0 10 12" version="1.1" xmlns="http://www.w3.org/2000/svg" xmlns:xlink="http://www.w3.org/1999/xlink">
    <title>Icon/Video/Play/Outline</title>
    <g id="Page-1" stroke="none" stroke-width="1" fill="none" fill-rule="evenodd">
        <g id="Icons" transform="translate(-123.000000, -993.000000)" fill="#0071C4">
            <g id="Icon/Video/Play/Outline" transform="translate(123.000000, 993.000000)">
                <path d="M0.295371253,0.250315219 C0.686389699,-0.0838820397 1.32262865,-0.0819395244 1.70767228,0.24715116 L1.70767228,0.24715116 L9.30700989,4.94483885 C10.2523497,5.52922023 10.2497097,6.4722365 9.30700989,7.05476975 L9.30700989,7.05476975 L1.70767228,11.7507149 C1.31869841,12.0831647 0.689115807,12.0840781 0.295371253,11.7475509 C0.100750071,11.5812112 0.00356052355,11.36295 0.00250539975,11.1450826 L0.00250539975,11.1450826 L0.00296737604,9.35875177 C0.00299693984,9.29071447 0.00302716042,9.22129043 0.00305791181,9.15058017 L0.00392014361,7.0170121 C0.00395002649,6.93216346 0.00397932537,6.846935 0.00400791792,6.76142437 L0.0040336076,2.25151958 C0.0039911949,2.19053865 0.00394575141,2.13113092 0.00389715479,2.07339404 L0.00315481556,1.46700238 C0.00307903649,1.42419479 0.00299961494,1.38344865 0.00291642856,1.34486163 L0.00206279773,1.0585111 C0.0016352922,0.959497189 0.00114167715,0.899716359 0.00057412286,0.885418292 C-0.00847621939,0.657418255 0.0894601645,0.426304158 0.295371253,0.250315219 Z M2,3 L2,9 L7,6 L2,3 Z"></path>
            </g>
        </g>
    </g>
</svg>