<?xml version="1.0" encoding="UTF-8"?>
<svg width="14px" height="14px" viewBox="0 0 14 14" version="1.1" xmlns="http://www.w3.org/2000/svg" xmlns:xlink="http://www.w3.org/1999/xlink">
    <title>Icon/LineChart/16</title>
    <g id="Page-1" stroke="none" stroke-width="1" fill="none" fill-rule="evenodd">
        <g id="Icons" transform="translate(-478.000000, -595.000000)" fill="#0071C4" fill-rule="nonzero">
            <g id="Icon/LineChart/16" transform="translate(478.000000, 595.000000)">
                <path d="M0.996795,2.30926389e-14 C1.54907691,-0.00176488665 1.99822484,0.444513086 2,0.996795 L2,0.996795 L2.0109509,4.14017527 C2.06458141,4.17212554 2.11597916,4.20958209 2.16436395,4.25259079 L2.16436395,4.25259079 L5.60027398,7.30673304 L7.07152342,3.62860943 C7.36126081,2.90426597 8.33191504,2.77588668 8.80000011,3.40000011 L8.80000011,3.40000011 L11.1081943,6.47759236 L12.2928933,5.29289333 C12.6834176,4.90236904 13.3165826,4.90236904 13.7071069,5.29289333 C14.0976312,5.68341762 14.0976312,6.3165826 13.7071069,6.70710689 L13.7071069,6.70710689 L11.7071069,8.70710689 C11.2767975,9.13741626 10.5651297,9.08683959 10.2000001,8.60000011 L10.2000001,8.60000011 L8.2676303,6.02350703 L6.9284768,9.37139079 C6.6711593,10.0146846 5.85347776,10.207713 5.33563627,9.74740943 L5.33563627,9.74740943 L2.018,6.799 L2.03526166,12 L13,12 C13.5522849,12 14,12.4477154 14,13 C14,13.5522849 13.5522849,14 13,14 L13,14 L0.0416616416,14 L4.4408921e-15,1.00320522 C-0.00176488665,0.45092331 0.444513086,0.00177538202 0.996795,2.30926389e-14 Z"></path>
            </g>
        </g>
    </g>
</svg>