<?xml version="1.0" encoding="UTF-8"?>
<svg width="22px" height="22px" viewBox="0 0 22 22" version="1.1" xmlns="http://www.w3.org/2000/svg" xmlns:xlink="http://www.w3.org/1999/xlink">
    <title>Icon/LineChart/24</title>
    <g id="Page-1" stroke="none" stroke-width="1" fill="none" fill-rule="evenodd">
        <g id="Icons" transform="translate(-518.000000, -591.000000)" fill="#0071C4" fill-rule="nonzero">
            <g id="Icon/LineChart/24" transform="translate(518.000000, 591.000000)">
                <path d="M1,0 C1.55228475,0 2,0.44771525 2,1 L2,1 L2.00035111,7.99978103 C2.15077857,7.99971681 2.30351076,8.03372139 2.4472136,8.10557281 L2.4472136,8.10557281 L5.4472136,9.60557281 C5.60286802,9.68340002 5.73551752,9.80050064 5.83205029,9.9452998 L5.83205029,9.9452998 L7.87620219,13.0115276 L11.1055728,6.5527864 C11.4009947,5.9619427 12.177957,5.8147989 12.6689647,6.25670585 L12.6689647,6.25670585 L17.0251851,10.1773042 L19.3598156,8.23177872 C19.7840925,7.87821464 20.4146572,7.9355387 20.7682213,8.3598156 C21.1217854,8.7840925 21.0644613,9.4146572 20.6401844,9.76822128 L20.6401844,9.76822128 L17.6401844,12.2682213 C17.2582714,12.5864821 16.700556,12.5758628 16.3310353,12.2432941 L16.3310353,12.2432941 L12.3071399,8.62178827 L8.89442719,15.4472136 C8.55104645,16.1339751 7.59386109,16.1935673 7.16794971,15.5547002 L7.16794971,15.5547002 L4.31525835,11.2756632 L2,10.118 L2,20 L21,20 C21.5522847,20 22,20.4477153 22,21 C22,21.5522847 21.5522847,22 21,22 L21,22 L0,22 L0,1 C0,0.44771525 0.44771525,0 1,0 Z"></path>
            </g>
        </g>
    </g>
</svg>