<?xml version="1.0" encoding="UTF-8"?>
<svg width="12px" height="16px" viewBox="0 0 12 16" version="1.1" xmlns="http://www.w3.org/2000/svg" xmlns:xlink="http://www.w3.org/1999/xlink">
    <title>Icon/Clipboard/16</title>
    <g id="Page-1" stroke="none" stroke-width="1" fill="none" fill-rule="evenodd">
        <g id="Icons" transform="translate(-123.000000, -488.000000)" fill="#0071C4">
            <g id="Icon/Clipboard/16" transform="translate(123.000000, 488.000000)">
                <path d="M6,0 C7.30625206,0 8.41751442,0.834850101 8.82932572,2.00008893 L10.9975267,2 C11.5511774,2 12,2.44994876 12,3.00684547 L12,14.9931545 C12,15.5492199 11.544239,16 10.9975267,16 L1.00247329,16 C0.448822582,16 0,15.5500512 0,14.9931545 L0,3.00684547 C0,2.45078007 0.455760956,2 1.00247329,2 L3.17067428,2.00008893 C3.58248558,0.834850101 4.69374794,0 6,0 Z M3,4 L2,4 L2,14 L10,14 L10,4 L9,4 L9,5 C9,5.55228475 8.55228475,6 8,6 L8,6 L4,6 C3.44771525,6 3,5.55228475 3,5 L3,5 L3,4 Z M6,2 C5.44771525,2 5,2.44771525 5,3 C5,3.55228475 5.44771525,4 6,4 C6.55228475,4 7,3.55228475 7,3 C7,2.44771525 6.55228475,2 6,2 Z"></path>
            </g>
        </g>
    </g>
</svg>