<?xml version="1.0" encoding="UTF-8"?>
<svg width="18px" height="24px" viewBox="0 0 18 24" version="1.1" xmlns="http://www.w3.org/2000/svg" xmlns:xlink="http://www.w3.org/1999/xlink">
    <title>Icon/Clipboard/24</title>
    <g id="Page-1" stroke="none" stroke-width="1" fill="none" fill-rule="evenodd">
        <g id="Icons" transform="translate(-167.000000, -484.000000)" fill="#0071C4">
            <g id="Icon/Clipboard/24" transform="translate(167.000000, 484.000000)">
                <path d="M3,2 C3.55228475,2 4,2.44771525 4,3 C4,3.55228475 3.55228475,4 3,4 L3,4 L2,4 L2,22 L16,22 L16,4 L15,4 C14.4477153,4 14,3.55228475 14,3 C14,2.44771525 14.4477153,2 15,2 L15,2 L17,2 C17.5522847,2 18,2.44771525 18,3 L18,3 L18,23 C18,23.5522847 17.5522847,24 17,24 L17,24 L1,24 C0.44771525,24 0,23.5522847 0,23 L0,23 L0,3 C0,2.44771525 0.44771525,2 1,2 L1,2 Z M13.0029699,17 C13.5142826,17 13.9356987,17.3827202 13.9932922,17.8826674 L14,18 C14,18.5522847 13.5469637,19 13.0029699,19 L6.99703014,19 C6.4463856,19 6,18.5561352 6,18 C6,17.4477153 6.45303631,17 6.99703014,17 L13.0029699,17 Z M4,17 C4.51283584,17 4.93550716,17.3827202 4.99327227,17.8826674 L5,18 C5,18.5128358 4.61727982,18.9355072 4.11733256,18.9932723 L4,19 C3.44771525,19 3,18.5561352 3,18 C3,17.4871642 3.38272018,17.0644928 3.88266744,17.0067277 L4,17 Z M14.0024554,13 C14.514032,13 14.9356655,13.3827202 14.9932888,13.8826674 L15,14 C15,14.5522847 14.5536886,15 14.0024554,15 L6.99754465,15 C6.44661595,15 6,14.5561352 6,14 C6,13.4477153 6.4463114,13 6.99754465,13 L14.0024554,13 Z M4,13 C4.51283584,13 4.93550716,13.3827202 4.99327227,13.8826674 L5,14 C5,14.5128358 4.61727982,14.9355072 4.11733256,14.9932723 L4,15 C3.44771525,15 3,14.5561352 3,14 C3,13.4871642 3.38272018,13.0644928 3.88266744,13.0067277 L4,13 Z M13.0029699,9 C13.5142826,9 13.9356987,9.38272018 13.9932922,9.88266744 L14,10 C14,10.5522847 13.5469637,11 13.0029699,11 L6.99703014,11 C6.4463856,11 6,10.5561352 6,10 C6,9.44771525 6.45303631,9 6.99703014,9 L13.0029699,9 Z M4,9 C4.51283584,9 4.93550716,9.38272018 4.99327227,9.88266744 L5,10 C5,10.5128358 4.61727982,10.9355072 4.11733256,10.9932723 L4,11 C3.44771525,11 3,10.5561352 3,10 C3,9.48716416 3.38272018,9.06449284 3.88266744,9.00672773 L4,9 Z M9,0 C10.6568542,0 12,1.34314575 12,3 C12,3.35063542 11.9398458,3.68722107 11.8292943,4 L13.0046024,4 C13.5543453,4 14,4.44386482 14,5 C14,5.55228475 13.5443356,6 13.0046024,6 L4.99539757,6 C4.44565467,6 4,5.55613518 4,5 C4,4.44771525 4.4556644,4 4.99539757,4 L6.17070571,4 C6.06015422,3.68722107 6,3.35063542 6,3 C6,1.34314575 7.34314575,0 9,0 Z M9,2 C8.44771525,2 8,2.44771525 8,3 C8,3.55228475 8.44771525,4 9,4 C9.55228475,4 10,3.55228475 10,3 C10,2.44771525 9.55228475,2 9,2 Z"></path>
            </g>
        </g>
    </g>
</svg>