<?xml version="1.0" encoding="UTF-8"?>
<svg width="24px" height="15px" viewBox="0 0 24 15" version="1.1" xmlns="http://www.w3.org/2000/svg" xmlns:xlink="http://www.w3.org/1999/xlink">
    <title>Icon/Devices/Laptop/24</title>
    <g id="Page-1" stroke="none" stroke-width="1" fill="none" fill-rule="evenodd">
        <g id="Icons" transform="translate(-73.000000, -433.000000)" fill="#0071C4">
            <g id="Icon/Devices/Laptop/24" transform="translate(73.000000, 433.000000)">
                <path d="M21.0081969,0 C21.5559546,0 22,0.449948758 22,1.00684547 L22,12 L24,12 L24,14.0010434 C24,14.5527519 23.5525308,15 22.9993054,15 L1.00069463,15 C0.448026248,15 0,14.5573397 0,14.0010434 L0,12 L2,12 L2,1.00684547 C2,0.450780073 2.45530558,0 2.99180311,0 L21.0081969,0 Z M10,12 C10,12.5561352 10.4519098,13 11.0093689,13 L11.0093689,13 L12.9906311,13 C13.5566468,13 14,12.5522847 14,12 L14,12 L20,12 L20,2 L4,2 L4,12 Z"></path>
            </g>
        </g>
    </g>
</svg>