<?xml version="1.0" encoding="UTF-8"?>
<svg width="16px" height="16px" viewBox="0 0 16 16" version="1.1" xmlns="http://www.w3.org/2000/svg" xmlns:xlink="http://www.w3.org/1999/xlink">
    <title>Icon/Wallet/16</title>
    <g id="Page-1" stroke="none" stroke-width="1" fill="none" fill-rule="evenodd">
        <g id="Icons" transform="translate(-343.000000, -991.000000)" fill="#0071C4">
            <g id="Icon/Wallet/16" transform="translate(343.000000, 991.000000)">
                <path d="M14.0011417,1.00094194 L14.0011417,5.00094194 L15.00027,5.00094194 C15.5530362,5.00094194 16.0011417,5.44577892 16.0011417,5.99651944 L16.0011417,15.0053644 C16.0011417,15.5552067 15.5565108,16.0009419 15.00027,16.0009419 L1.00201336,16.0009419 C0.449247208,16.0009419 0.00114170261,15.556105 0.00114170261,15.0053644 L0.00114170261,5.99651944 C0.00114170261,5.93507069 0.00669498157,5.8749222 0.0173367071,5.81655081 C-0.0615392845,5.38429837 0.125727808,4.90349037 0.640742423,4.70450745 L12.6407424,0.0681438104 C13.2959653,-0.185010483 14.0011417,0.298514643 14.0011417,1.00094194 Z M12.0011417,2.45934889 L6,5 L12.0011417,5 L12.0011417,2.45934889 Z"></path>
            </g>
        </g>
    </g>
</svg>