<?xml version="1.0" encoding="UTF-8"?>
<svg width="22px" height="21px" viewBox="0 0 22 21" version="1.1" xmlns="http://www.w3.org/2000/svg" xmlns:xlink="http://www.w3.org/1999/xlink">
    <title>Icon/Wallet/24</title>
    <g id="Page-1" stroke="none" stroke-width="1" fill="none" fill-rule="evenodd">
        <g id="Icons" transform="translate(-381.000000, -988.000000)" fill="#0071C4">
            <g id="Icon/Wallet/24" transform="translate(381.000000, 988.000000)">
                <path d="M18.0011016,1.00090475 L18.001,6 L20.9986399,6.00090475 C21.5522842,6.00090475 22.0011016,6.44982495 22.0011016,7.00838872 L22.0011016,19.9934208 C22.0011016,20.5498388 21.5616432,21.0009047 20.9986399,21.0009047 L1.00356324,21.0009047 C0.449918944,21.0009047 0.0011015662,20.5519845 0.0011015662,19.9934208 L0.00141866908,7.04392988 C-0.0176094919,6.67648799 0.154193112,6.29924004 0.552058113,6.10647679 C0.589471289,6.08782895 0.62793735,6.07149117 0.667614078,6.05756419 L16.6499781,0.0645755701 C17.3037289,-0.180580988 18.0011016,0.302698563 18.0011016,1.00090475 Z M16.0011016,2.44390522 L6.51576948,6.00090475 L16.0011016,6.00090475 L16.0011016,2.44390522 Z"></path>
            </g>
        </g>
    </g>
</svg>