<?xml version="1.0" encoding="UTF-8"?>
<svg width="16px" height="15px" viewBox="0 0 16 15" version="1.1" xmlns="http://www.w3.org/2000/svg" xmlns:xlink="http://www.w3.org/1999/xlink">
    <title>Icon/Mailbox/16</title>
    <g id="Page-1" stroke="none" stroke-width="1" fill="none" fill-rule="evenodd">
        <g id="Icons" transform="translate(-28.000000, -898.000000)" fill="#0071C4" fill-rule="nonzero">
            <g id="Icon/Mailbox/16" transform="translate(28.000000, 898.000000)">
                <path d="M2,9 L14,9 L14,4.00236948 C14,2.89574381 13.1056209,2 12.0037973,2 L3.99620271,2 C2.8942306,2 2,2.89566171 2,4.00236948 L2,9 Z M12,11 L12,14.009222 C12,14.5564136 11.5490248,15 11.009222,15 L6.99077797,15 C6.44358641,15 6,14.5490248 6,14.009222 L6,11 L1.00087166,11 C0.448105505,11 0,10.555163 0,10.0044225 L0,4.00236948 C0,1.79192185 1.78883037,0 3.99620271,0 L12.0037973,0 C14.2108391,0 16,1.79182182 16,4.00236948 L16,10.0044225 C16,10.5542648 15.5553691,11 14.9991283,11 L12,11 L12,11 Z M4,0 C6.20724676,0 8,1.79321343 8,3.99686968 L8,3.99686968 L8,4 L12.009222,4 C12.5490248,4 13,4.45190985 13,5.0093689 L13,5.0093689 L13,6.9906311 C13,7.55664682 12.5527519,8 12.0010434,8 L12.0010434,8 L10.9989566,8 C10.4426603,8 10,7.55228475 10,7 L10,7 L10,6 L8,6 L8,10 L6,10 L6,3.99686968 C6,2.89766803 5.10256233,2 4,2 L4,2 Z"></path>
            </g>
        </g>
    </g>
</svg>