<?xml version="1.0" encoding="UTF-8"?>
<svg width="24px" height="20px" viewBox="0 0 24 20" version="1.1" xmlns="http://www.w3.org/2000/svg" xmlns:xlink="http://www.w3.org/1999/xlink">
    <title>Icon/Mailbox/24</title>
    <g id="Page-1" stroke="none" stroke-width="1" fill="none" fill-rule="evenodd">
        <g id="Icons" transform="translate(-73.000000, -895.000000)" fill="#0071C4" fill-rule="nonzero">
            <g id="Icon/Mailbox/24" transform="translate(73.000000, 895.000000)">
                <path d="M18.9980273,0 C21.7605405,0 24,2.24565156 24,4.99478281 L24,13.992516 C24,14.5489341 23.5525308,15 22.9993054,15 L16,15 L16,18.9970707 C16,19.5509732 15.5469637,20 15.0029699,20 L8.99703014,20 C8.4463856,20 8,19.5621186 8,18.9970707 L8,15 L1.00069463,15 C0.448026248,15 0,14.5510798 0,13.992516 L0,4.99478281 C0,2.23624043 2.23630996,0 5.00197269,0 L18.9980273,0 Z M14,15 L10,15 L10,18 L14,18 L14,15 Z M5,2 C3.34601008,2 2,3.34356266 2,4.99478281 L2,13 L8,13 L8,4.99478281 C8,3.34685583 6.65348982,2 5,2 Z M18.9991284,2 L9,2 C9.62857661,2.83563119 10.0011011,3.87331463 10.0011011,4.99478281 L10.0011011,13 L22.0011011,13 L22.0011011,4.99478281 C22.0011011,3.34703242 20.6538831,2 18.9991284,2 Z M12.9970301,4 L19.0029699,4 C19.5469637,4 20,4.44762906 20,4.99980749 L20,4.99980749 L20,8.00019251 C20,8.55628335 19.5480902,9 18.9906311,9 L18.9906311,9 L17.0093689,9 C16.4433532,9 16,8.55275191 16,8.00104344 L16,8.00104344 L16,6 L13.0093689,6 C12.4433532,6 12,5.55228475 12,5 L12,5 L12.0067078,4.88266744 C12.0643013,4.38272018 12.4857174,4 12.9970301,4 L12.9970301,4 Z"></path>
            </g>
        </g>
    </g>
</svg>