<?xml version="1.0" encoding="UTF-8"?>
<svg width="14px" height="12px" viewBox="0 0 14 12" version="1.1" xmlns="http://www.w3.org/2000/svg" xmlns:xlink="http://www.w3.org/1999/xlink">
    <title>Icon/Flip/16</title>
    <g id="Page-1" stroke="none" stroke-width="1" fill="none" fill-rule="evenodd">
        <g id="Icons" transform="translate(-121.000000, -545.000000)" fill="#0071C4">
            <g id="Icon/Flip/16" transform="translate(121.000000, 545.000000)">
                <path d="M4,2 L4,0.941655249 C4,0.421593415 3.55194859,0 2.99924918,0 C2.71814942,0 2.45001007,0.111241611 2.26041104,0.306518027 L0.261912687,2.36485979 C-0.0873042289,2.72453372 -0.0873042289,3.2754603 0.261912687,3.63513423 L2.26041104,5.69347599 C2.63320137,6.07742923 3.26619675,6.1043242 3.67424578,5.7535476 C3.88177719,5.57514463 4,5.32283924 4,5.05833877 L4,4 L9.23529412,4 C10.7481908,4 12,5.33004726 12,7 C12,8.66995274 10.7481908,10 9.23529412,10 L5,10 C4.44771525,10 4,10.4477153 4,11 C4,11.5522847 4.44771525,12 5,12 L9.23529412,12 C11.8807767,12 14,9.74832525 14,7 C14,4.25167475 11.8807767,2 9.23529412,2 L4,2 Z"></path>
            </g>
        </g>
    </g>
</svg>