<?xml version="1.0" encoding="UTF-8"?>
<svg width="20px" height="18px" viewBox="0 0 20 18" version="1.1" xmlns="http://www.w3.org/2000/svg" xmlns:xlink="http://www.w3.org/1999/xlink">
    <title>Icon/Flip/24</title>
    <g id="Page-1" stroke="none" stroke-width="1" fill="none" fill-rule="evenodd">
        <g id="Icons" transform="translate(-166.000000, -542.000000)" fill="#0071C4" fill-rule="nonzero">
            <g id="Icon/Flip/24" transform="translate(166.000000, 542.000000)">
                <path d="M5.98838178,3.00372772 L12.493776,3.00372772 C16.639349,3.00372772 20,6.3615921 20,10.5037277 C20,14.6458633 16.639349,18.0037277 12.493776,18.0037277 L7.48879671,18.0037277 C6.6596821,18.0037277 5.9875519,17.3321548 5.9875519,16.5037277 C5.9875519,15.6753006 6.6596821,15.0037277 7.48879671,15.0037277 L12.493776,15.0037277 C14.9811198,15.0037277 16.9975104,12.9890091 16.9975104,10.5037277 C16.9975104,8.01844635 14.9811198,6.00372772 12.493776,6.00372772 L5.98838178,6.00372772 L5.98838178,8.0074518 C5.98838178,8.55973655 5.54029498,9.0074518 4.9875519,9.0074518 C4.74423585,9.0074518 4.5092527,8.91888675 4.32655394,8.75832194 L0.339844597,5.25460238 C-0.0751936751,4.88984599 -0.115709805,4.2579765 0.249349287,3.84328237 C0.277552864,3.81124411 0.30777975,3.78104229 0.339844597,3.7528621 L4.32655394,0.249142531 C4.74159222,-0.11561386 5.37398608,-0.0751313256 5.73904517,0.339562803 C5.89974323,0.522110069 5.98838178,0.756898376 5.98838178,1.00001267 L5.98838178,3.00372772 Z"></path>
            </g>
        </g>
    </g>
</svg>