<?xml version="1.0" encoding="UTF-8"?>
<svg width="16px" height="16px" viewBox="0 0 16 16" version="1.1" xmlns="http://www.w3.org/2000/svg" xmlns:xlink="http://www.w3.org/1999/xlink">
    <title>Icon/Help/Outline/16</title>
    <g id="Page-1" stroke="none" stroke-width="1" fill="none" fill-rule="evenodd">
        <g id="Icons" transform="translate(-299.000000, -166.000000)" fill="#0071C4">
            <g id="Icon/Help/Outline/16" transform="translate(299.000000, 166.000000)">
                <path d="M8,0 C12.418278,0 16,3.581722 16,8 C16,12.418278 12.418278,16 8,16 C3.581722,16 0,12.418278 0,8 C0,3.581722 3.581722,0 8,0 Z M8,2 C4.6862915,2 2,4.6862915 2,8 C2,11.3137085 4.6862915,14 8,14 C11.3137085,14 14,11.3137085 14,8 C14,4.6862915 11.3137085,2 8,2 Z M6,4.8195 C6.13566735,4.70583276 6.2832492,4.59950049 6.44275,4.5005 C6.6022508,4.40149951 6.77366575,4.31441704 6.957,4.23925 C7.14033425,4.16408296 7.33741561,4.10541688 7.54825,4.06325 C7.75908439,4.02108312 7.9873321,4 8.233,4 C8.57766839,4 8.88841528,4.04583287 9.16525,4.1375 C9.44208472,4.22916713 9.67766569,4.36024915 9.872,4.53075 C10.0663343,4.70125085 10.2157495,4.90658213 10.32025,5.14675 C10.4247505,5.38691787 10.477,5.6536652 10.477,5.947 C10.477,6.22933474 10.4385004,6.47133232 10.3615,6.673 C10.2844996,6.87466768 10.1864173,7.05066591 10.06725,7.201 C9.94808274,7.35133408 9.81791737,7.48058279 9.67675,7.58875 C9.53558263,7.69691721 9.40175063,7.79866619 9.27525,7.894 C9.14874937,7.98933381 9.03875047,8.08283288 8.94525,8.1745 C8.85174953,8.26616712 8.79400011,8.36883276 8.772,8.4825 L8.618,9.2525 L7.452,9.2525 L7.331,8.367 C7.32733332,8.34499989 7.32458334,8.32300011 7.32275,8.301 C7.32091666,8.27899989 7.32,8.25700011 7.32,8.235 C7.32,8.07366586 7.35849962,7.9325006 7.4355,7.8115 C7.51250038,7.69049939 7.60966608,7.57958384 7.727,7.47875 C7.84433392,7.37791616 7.97083265,7.28075047 8.1065,7.18725 C8.24216734,7.09374953 8.36866608,6.99291721 8.486,6.88475 C8.60333392,6.77658279 8.70049962,6.655584 8.7775,6.52175 C8.85450039,6.387916 8.893,6.22933425 8.893,6.046 C8.893,5.8259989 8.82058406,5.65091732 8.67575,5.52075 C8.53091594,5.39058268 8.33200127,5.3255 8.079,5.3255 C7.88466569,5.3255 7.72241732,5.34566646 7.59225,5.386 C7.46208268,5.42633353 7.35025047,5.47124975 7.25675,5.52075 C7.16324953,5.57025025 7.08166701,5.61516647 7.012,5.6555 C6.94233299,5.69583353 6.87266702,5.716 6.803,5.716 C6.64533254,5.716 6.52800039,5.64816734 6.451,5.5125 L6,4.8195 Z M6.98,10.9980002 C6.98,10.8576486 7.00556793,10.7270457 7.05670455,10.6061874 C7.10784116,10.4853291 7.17791622,10.380067 7.26693182,10.2903979 C7.35594741,10.2007288 7.46106,10.1295794 7.58227273,10.0769476 C7.70348545,10.0243158 7.83605989,9.99800023 7.98,9.99800023 C8.12015222,9.99800023 8.25083273,10.0243158 8.37204545,10.0769476 C8.49325818,10.1295794 8.59931773,10.2007288 8.69022727,10.2903979 C8.78113682,10.380067 8.85215884,10.4853291 8.90329545,10.6061874 C8.95443207,10.7270457 8.98,10.8576486 8.98,10.9980002 C8.98,11.1383518 8.95443207,11.2699294 8.90329545,11.3927371 C8.85215884,11.5155447 8.78113682,11.6217815 8.69022727,11.7114505 C8.59931773,11.8011196 8.49325818,11.8712943 8.37204545,11.9219768 C8.25083273,11.9726594 8.12015222,11.9980002 7.98,11.9980002 C7.83605989,11.9980002 7.70348545,11.9726594 7.58227273,11.9219768 C7.46106,11.8712943 7.35594741,11.8011196 7.26693182,11.7114505 C7.17791622,11.6217815 7.10784116,11.5155447 7.05670455,11.3927371 C7.00556793,11.2699294 6.98,11.1383518 6.98,10.9980002 Z"></path>
            </g>
        </g>
    </g>
</svg>