<?xml version="1.0" encoding="UTF-8"?>
<svg width="22px" height="22px" viewBox="0 0 22 22" version="1.1" xmlns="http://www.w3.org/2000/svg" xmlns:xlink="http://www.w3.org/1999/xlink">
    <title>Icon/Help/Outline/24</title>
    <g id="Page-1" stroke="none" stroke-width="1" fill="none" fill-rule="evenodd">
        <g id="Icons" transform="translate(-341.000000, -163.000000)" fill="#0071C4">
            <g id="Icon/Help/Outline/24" transform="translate(341.000000, 163.000000)">
                <path d="M11,0 C17.0751322,0 22,4.92486775 22,11 C22,17.0751322 17.0751322,22 11,22 C4.92486775,22 0,17.0751322 0,11 C0,4.92486775 4.92486775,0 11,0 Z M11,2 C6.02943725,2 2,6.02943725 2,11 C2,15.9705627 6.02943725,20 11,20 C15.9705627,20 20,15.9705627 20,11 C20,6.02943725 15.9705627,2 11,2 Z M10.97,13.9970003 C11.1802283,13.9970003 11.3762491,14.0364736 11.5580682,14.1154214 C11.7398873,14.1943692 11.8989766,14.3010932 12.0353409,14.4355968 C12.1717052,14.5701004 12.2782383,14.7279936 12.3549432,14.909281 C12.4316481,15.0905685 12.47,15.286473 12.47,15.4970003 C12.47,15.7075277 12.4316481,15.9048942 12.3549432,16.0891056 C12.2782383,16.2733171 12.1717052,16.4326722 12.0353409,16.5671758 C11.8989766,16.7016794 11.7398873,16.8069415 11.5580682,16.8829653 C11.3762491,16.958989 11.1802283,16.9970003 10.97,16.9970003 C10.7540898,16.9970003 10.5552282,16.958989 10.3734091,16.8829653 C10.19159,16.8069415 10.0339211,16.7016794 9.90039773,16.5671758 C9.76687433,16.4326722 9.66176175,16.2733171 9.58505682,16.0891056 C9.50835189,15.9048942 9.47,15.7075277 9.47,15.4970003 C9.47,15.286473 9.50835189,15.0905685 9.58505682,14.909281 C9.66176175,14.7279936 9.76687433,14.5701004 9.90039773,14.4355968 C10.0339211,14.3010932 10.19159,14.1943692 10.3734091,14.1154214 C10.5552282,14.0364736 10.7540898,13.9970003 10.97,13.9970003 Z M11.3495,5 C11.8665026,5 12.3326229,5.06874931 12.747875,5.20625 C13.1631271,5.34375069 13.5164985,5.54037372 13.808,5.796125 C14.0995015,6.05187628 14.3236242,6.3598732 14.480375,6.720125 C14.6371258,7.0803768 14.7155,7.4804978 14.7155,7.9205 C14.7155,8.34400212 14.6577506,8.70699849 14.54225,9.0095 C14.4267494,9.31200151 14.2796259,9.57599887 14.100875,9.8015 C13.9221241,10.0270011 13.7268761,10.2208742 13.515125,10.383125 C13.3033739,10.5453758 13.1026259,10.6979993 12.912875,10.841 C12.7231241,10.9840007 12.5581257,11.1242493 12.417875,11.26175 C12.2776243,11.3992507 12.1910002,11.5532491 12.158,11.72375 L11.927,12.87875 L10.178,12.87875 L9.9965,11.5505 C9.99099997,11.5174998 9.98687501,11.4845002 9.984125,11.4515 C9.98137499,11.4184998 9.98,11.3855002 9.98,11.3525 C9.98,11.1104988 10.0377494,10.8987509 10.15325,10.71725 C10.2687506,10.5357491 10.4144991,10.3693758 10.5905,10.218125 C10.7665009,10.0668742 10.956249,9.9211257 11.15975,9.780875 C11.363251,9.6406243 11.5529991,9.48937581 11.729,9.327125 C11.9050009,9.16487419 12.0507494,8.983376 12.16625,8.782625 C12.2817506,8.581874 12.3395,8.34400137 12.3395,8.069 C12.3395,7.73899835 12.2308761,7.47637598 12.013625,7.281125 C11.7963739,7.08587402 11.4980019,6.98825 11.1185,6.98825 C10.8269985,6.98825 10.583626,7.0184997 10.388375,7.079 C10.193124,7.1395003 10.0253757,7.20687463 9.885125,7.281125 C9.7448743,7.35537537 9.62250052,7.4227497 9.518,7.48325 C9.41349948,7.5437503 9.30900052,7.574 9.2045,7.574 C8.96799882,7.574 8.79200058,7.47225102 8.6765,7.26875 L8,6.22925 C8.20350102,6.05874915 8.4248738,5.89925074 8.664125,5.75075 C8.9033762,5.60224926 9.16049862,5.47162556 9.4355,5.358875 C9.71050138,5.24612444 10.0061234,5.15812532 10.322375,5.094875 C10.6386266,5.03162468 10.9809982,5 11.3495,5 Z"></path>
            </g>
        </g>
    </g>
</svg>