<?xml version="1.0" encoding="UTF-8"?>
<svg width="14px" height="14px" viewBox="0 0 14 14" version="1.1" xmlns="http://www.w3.org/2000/svg" xmlns:xlink="http://www.w3.org/1999/xlink">
    <title>Icon/Download/16</title>
    <g id="Page-1" stroke="none" stroke-width="1" fill="none" fill-rule="evenodd">
        <g id="Icons" transform="translate(-478.000000, -489.000000)" fill="#0071C4">
            <g id="Icon/Download/16" transform="translate(478.000000, 489.000000)">
                <path d="M13,9 C13.5522847,9 14,9.44771525 14,10 L14,13 C14,13.5522847 13.5522847,14 13,14 L1.00684547,14 C0.44771525,14 0,13.5562834 0,13.0001925 L0,9.99980749 C0,9.44762906 0.443864822,9 1,9 C1.55228475,9 2,9.44371665 2,9.99980749 L2,12 L2,12 L12,12 L12,10 C12,9.44771525 12.4477153,9 13,9 Z M7,2.48689958e-14 C7.55228475,2.48689958e-14 8,0.455664396 8,0.995397568 L8,6.58578644 L9.1278413,5.45794513 C9.51476417,5.07102227 10.142287,5.07121914 10.5355339,5.46446609 C10.9260582,5.85499039 10.9237531,6.49046048 10.5420549,6.8721587 L7.75220408,9.66200948 C7.69625118,9.72548932 7.63226222,9.78179339 7.56175199,9.82936136 C7.27135447,10.0295559 6.89749987,10.0569179 6.58148424,9.90968289 C6.47878105,9.86262361 6.38301128,9.79722484 6.29941418,9.71362774 L3.45794513,6.8721587 C3.07102227,6.48523583 3.07121914,5.85771305 3.46446609,5.46446609 C3.85499039,5.0739418 4.49046048,5.07624692 4.8721587,5.45794513 L6,6.58578644 L6,0.995397568 C6,0.445654671 6.44386482,2.48689958e-14 7,2.48689958e-14 Z"></path>
            </g>
        </g>
    </g>
</svg>