<?xml version="1.0" encoding="UTF-8"?>
<svg width="22px" height="22px" viewBox="0 0 22 22" version="1.1" xmlns="http://www.w3.org/2000/svg" xmlns:xlink="http://www.w3.org/1999/xlink">
    <title>Icon/Download/24</title>
    <g id="Page-1" stroke="none" stroke-width="1" fill="none" fill-rule="evenodd">
        <g id="Icons" transform="translate(-518.000000, -485.000000)" fill="#0071C4">
            <g id="Icon/Download/24" transform="translate(518.000000, 485.000000)">
                <path d="M12,13.5857864 L16.2928932,9.29289322 C16.6834175,8.90236893 17.3165825,8.90236893 17.7071068,9.29289322 C18.0976311,9.68341751 18.0976311,10.3165825 17.7071068,10.7071068 L11.7389847,16.6752288 C11.556723,16.8748352 11.2940555,17 11,17 C10.9770429,17 10.9542665,16.9992143 10.9316953,16.9976691 C10.6993115,16.9819788 10.4708969,16.8851104 10.2928932,16.7071068 L4.29289322,10.7071068 C3.90236893,10.3165825 3.90236893,9.68341751 4.29289322,9.29289322 C4.68341751,8.90236893 5.31658249,8.90236893 5.70710678,9.29289322 L10,13.5857864 L10,0.999960201 C10,0.447697432 10.4438648,-1.0658141e-14 11,-1.0658141e-14 C11.5522847,-1.0658141e-14 12,0.454708934 12,0.999960201 L12,13.5857864 L12,13.5857864 Z M2,20 L20,20 L20,16.990778 C20,16.4435864 20.4438648,16 21,16 C21.5522847,16 22,16.4509752 22,16.990778 L22,21.009222 C22,21.5564136 21.5561352,22 21,22 L20.998769,22 L20.9975383,22 L1.00246167,22 L1.00123067,22 L1,22 C0.44771525,22 0,21.5490248 0,21.009222 L0,16.990778 C0,16.4435864 0.443864822,16 1,16 C1.55228475,16 2,16.4509752 2,16.990778 L2,20 Z"></path>
            </g>
        </g>
    </g>
</svg>