<?xml version="1.0" encoding="UTF-8"?>
<svg width="16px" height="12px" viewBox="0 0 16 12" version="1.1" xmlns="http://www.w3.org/2000/svg" xmlns:xlink="http://www.w3.org/1999/xlink">
    <title>Icon/Video/Play/Square/Outline</title>
    <g id="Page-1" stroke="none" stroke-width="1" fill="none" fill-rule="evenodd">
        <g id="Icons" transform="translate(-213.000000, -993.000000)" fill="#0071C4">
            <g id="Icon/Video/Play/Square/Outline" transform="translate(213.000000, 993.000000)">
                <path d="M14.9991283,0 C15.5518945,0 16,0.455760956 16,1.00247329 L16,10.9975267 C16,11.5511774 15.5553691,12 14.9991283,12 L1.00087166,12 C0.448105505,12 0,11.544239 0,10.9975267 L0,1.00247329 C0,0.448822582 0.444630861,0 1.00087166,0 L14.9991283,0 Z M14,2 L2,2 L2,10 L14,10 L14,2 Z M6.14524695,3.12515761 C6.3375278,2.95805898 6.65039428,2.95903024 6.83973705,3.12357558 L6.83973705,3.12357558 L10.5766633,5.47241943 C11.0415282,5.76461012 11.04023,6.23611825 10.5766633,6.52738488 L10.5766633,6.52738488 L6.83973705,8.87535747 C6.64846161,9.04158237 6.33886834,9.04203905 6.14524695,8.87377544 C6.04954321,8.79060562 6.00175086,8.681475 6.00123201,8.57254129 L6.00123201,8.57254129 L6.00192896,6.5048762 C6.00195743,6.42257334 6.00198481,6.33956134 6.00201067,6.25619642 L6.0020181,4.17926734 C6.00198094,4.11840357 6.00193831,4.06039284 6.00188976,4.00559138 L6.00128129,3.60864635 C6.0011933,3.57630646 6.00109809,3.54824449 6.0009952,3.52481666 L6.00028232,3.44270915 C5.99583187,3.32870913 6.04399147,3.21315208 6.14524695,3.12515761 Z"></path>
            </g>
        </g>
    </g>
</svg>